<?xml version="1.0" encoding="UTF-8" standalone="no"?>
<!DOCTYPE svg PUBLIC "-//W3C//DTD SVG 1.1//EN" "http://www.w3.org/Graphics/SVG/1.1/DTD/svg11.dtd">
<svg xmlns="http://www.w3.org/2000/svg" version="1.1" viewBox="0.00 0.00 46.00 46.00">
<path fill="#000000" d="
  M 22.78 1.99
  A 0.34 0.33 -68.6 0 1 23.39 1.72
  Q 23.68 2.21 23.45 3.04
  Q 23.26 3.74 23.06 3.04
  L 22.78 1.99
  Z"
/>
<path fill="#000000" d="
  M 19.61 22.00
  L 9.04 18.51
  Q 8.56 18.35 8.46 17.87
  Q 7.40 12.92 10.34 8.88
  A 1.10 1.09 45.2 0 1 12.12 8.89
  L 16.18 14.53
  Q 16.32 14.73 16.52 14.59
  L 16.84 14.36
  Q 17.04 14.21 16.89 14.00
  L 12.75 8.43
  A 1.16 1.16 0.0 0 1 13.52 6.59
  Q 17.79 5.99 21.54 3.83
  A 0.77 0.77 0.0 0 1 22.69 4.48
  L 22.86 14.81
  Q 22.87 15.51 22.31 15.11
  L 21.28 14.39
  A 1.50 1.40 -17.9 0 0 20.79 14.16
  C 15.04 12.56 13.94 20.75 19.26 19.72
  Q 19.81 19.61 20.17 20.04
  L 21.62 21.72
  A 0.46 0.46 0.0 0 1 21.22 22.48
  Q 20.27 22.39 19.93 23.24
  A 1.10 1.10 0.0 0 1 19.13 23.91
  Q 12.94 25.22 9.41 20.02
  A 0.44 0.44 0.0 0 1 9.85 19.34
  Q 10.36 19.43 10.73 19.78
  Q 11.09 20.12 11.58 20.26
  Q 14.86 21.16 17.99 22.36
  Q 18.61 22.59 19.61 22.32
  Q 20.14 22.17 19.61 22.00
  Z"
/>
<path fill="#000000" d="
  M 23.52 5.00
  A 1.12 1.12 0.0 0 1 25.17 4.02
  Q 28.95 6.05 33.21 6.56
  Q 34.01 6.66 34.32 7.41
  L 34.44 7.70
  A 0.50 0.50 0.0 0 1 33.95 8.39
  C 28.84 8.07 27.42 9.94 23.98 13.24
  Q 23.47 13.73 23.47 13.02
  L 23.52 5.00
  Z"
/>
<path fill="#000000" d="
  M 35.73 7.24
  L 35.63 7.60
  A 0.13 0.13 0.0 0 1 35.38 7.59
  Q 35.03 6.23 36.21 5.49
  A 0.29 0.29 0.0 0 1 36.64 5.85
  Q 36.37 6.50 35.85 7.03
  A 0.63 0.56 78.3 0 0 35.73 7.24
  Z"
/>
<path fill="#000000" d="
  M 10.14 6.25
  Q 9.03 5.14 10.50 5.77
  Q 11.10 6.04 11.69 6.91
  Q 12.10 7.50 11.44 7.21
  Q 10.84 6.95 10.14 6.25
  Z"
/>
<path fill="#000000" d="
  M 25.05 20.47
  Q 24.94 20.63 25.10 20.74
  L 25.37 20.92
  Q 25.57 21.06 25.71 20.87
  L 33.61 10.27
  A 0.81 0.80 -67.0 0 1 34.37 9.96
  L 36.33 10.23
  Q 37.01 10.32 36.80 9.67
  L 36.67 9.28
  Q 36.55 8.88 36.95 8.97
  Q 40.36 9.76 41.52 13.03
  A 0.30 0.29 73.3 0 1 41.32 13.41
  L 41.02 13.49
  Q 40.90 13.53 40.84 13.41
  Q 39.93 11.49 38.00 10.59
  A 0.50 0.50 0.0 0 0 37.42 11.38
  L 41.37 15.84
  A 1.01 1.00 59.8 0 1 40.95 17.46
  L 34.74 19.56
  A 0.39 0.38 -31.9 0 1 34.34 19.47
  C 32.63 17.74 30.11 16.13 28.81 19.52
  Q 28.68 19.87 28.72 20.24
  L 28.82 21.19
  A 0.42 0.42 0.0 0 1 28.36 21.65
  Q 27.64 21.57 27.04 21.93
  A 0.28 0.28 0.0 0 0 27.24 22.45
  L 31.21 21.62
  A 0.92 0.91 -35.7 0 0 31.49 19.94
  L 31.27 19.81
  Q 30.83 19.55 31.23 19.23
  Q 31.91 18.70 32.40 19.60
  C 35.04 24.44 28.13 25.50 25.35 22.27
  Q 25.02 21.90 25.02 21.40
  Q 25.02 20.84 24.51 20.62
  Q 23.97 20.38 23.98 19.80
  Q 24.11 12.26 31.19 10.11
  Q 32.95 9.57 31.87 11.07
  L 25.05 20.47
  Z"
/>
<path fill="#000000" d="
  M 5.50 17.55
  Q 5.36 17.51 5.23 17.45
  Q 4.79 17.23 4.84 16.74
  Q 4.97 15.43 6.10 14.90
  Q 6.61 14.66 6.72 15.22
  Q 6.94 16.31 6.75 17.40
  Q 6.67 17.92 6.15 17.84
  Q 5.95 17.80 5.77 17.68
  Q 5.65 17.60 5.50 17.55
  Z"
/>
<path fill="#000000" d="
  M 18.04 16.75
  L 17.82 17.06
  A 0.15 0.13 84.9 0 1 17.62 16.86
  L 18.31 15.85
  A 0.90 0.89 -67.7 0 1 19.22 15.46
  Q 23.02 16.18 22.60 20.10
  A 0.71 0.71 0.0 0 1 21.39 20.52
  Q 20.26 19.35 20.18 17.78
  A 1.37 1.14 65.5 0 0 18.04 16.75
  Z"
/>
<path fill="#000000" d="
  M 4.25 17.06
  Q 4.71 17.28 4.24 17.48
  Q 3.09 17.96 2.34 16.92
  A 0.37 0.37 0.0 0 1 2.79 16.37
  L 4.25 17.06
  Z"
/>
<ellipse fill="#000000" cx="0.00" cy="0.00" transform="translate(43.13,17.11) rotate(-43.4)" rx="0.70" ry="0.54"/>
<path fill="#000000" d="
  M 39.18 29.04
  Q 39.90 29.43 40.72 29.41
  A 0.71 0.70 -6.5 0 1 41.42 29.96
  Q 41.78 31.57 40.44 32.43
  Q 40.00 32.71 39.76 32.25
  Q 38.98 30.73 38.57 29.07
  A 0.68 0.65 -70.5 0 0 38.47 28.85
  Q 36.46 26.17 33.34 25.13
  Q 32.56 24.87 33.14 24.29
  Q 34.25 23.20 34.43 21.58
  A 2.01 2.00 84.1 0 1 35.80 19.89
  L 41.18 18.12
  A 0.90 0.90 0.0 0 1 42.35 19.09
  Q 41.87 22.81 42.56 27.75
  Q 42.69 28.69 41.84 29.09
  Q 41.47 29.26 41.12 29.06
  Q 40.25 28.56 39.29 28.59
  A 0.24 0.24 0.0 0 0 39.18 29.04
  Z"
/>
<path fill="#000000" d="
  M 12.64 24.78
  Q 13.19 25.06 13.30 25.16
  Q 14.29 26.07 13.15 26.45
  L 5.37 29.05
  A 0.85 0.85 0.0 0 1 4.29 28.51
  Q 3.94 27.47 4.46 26.00
  Q 5.08 24.26 4.07 19.56
  Q 3.82 18.39 5.01 18.29
  L 5.64 18.24
  Q 6.93 18.14 7.40 19.35
  Q 8.71 22.77 12.64 24.78
  Z"
/>
<path fill="#000000" d="
  M 15.03 29.00
  Q 14.78 29.95 15.41 30.67
  Q 15.79 31.11 15.21 31.00
  Q 14.06 30.77 13.48 29.36
  A 1.89 1.88 -29.0 0 1 14.13 27.12
  Q 16.69 25.26 19.55 26.30
  A 0.95 0.95 0.0 0 1 19.95 27.81
  L 18.61 29.39
  A 0.51 0.51 0.0 0 1 17.76 29.27
  Q 17.15 27.86 15.63 28.36
  A 0.89 0.89 0.0 0 0 15.03 29.00
  Z"
/>
<path fill="#000000" d="
  M 37.85 35.43
  Q 37.15 36.15 36.87 37.11
  Q 35.77 40.96 33.90 37.58
  Q 32.88 35.73 31.42 34.25
  Q 31.09 33.92 31.05 33.46
  Q 30.81 31.15 28.73 30.15
  Q 28.25 29.92 28.01 29.43
  Q 27.50 28.35 26.49 27.69
  A 0.52 0.52 0.0 0 1 26.47 26.84
  Q 27.89 25.80 29.73 26.10
  C 33.82 26.76 36.26 27.86 37.86 31.63
  Q 38.04 32.07 38.03 32.55
  Q 37.97 34.00 39.41 34.14
  Q 39.95 34.19 39.99 34.74
  Q 40.24 38.08 37.49 39.90
  A 0.32 0.32 0.0 0 1 37.05 39.46
  L 38.51 37.17
  Q 38.86 36.63 38.70 36.01
  L 38.61 35.64
  A 0.45 0.45 0.0 0 0 37.85 35.43
  Z"
/>
<path fill="#000000" d="
  M 5.01 29.90
  L 12.00 27.57
  Q 12.25 27.49 12.20 27.75
  Q 11.47 31.95 15.72 32.64
  A 0.34 0.34 0.0 0 1 15.93 33.18
  L 11.83 38.60
  A 0.85 0.84 -39.2 0 1 10.40 38.46
  Q 8.59 34.67 5.40 31.64
  C 4.99 31.26 4.85 30.79 4.76 30.32
  Q 4.70 30.00 5.01 29.90
  Z"
/>
<path fill="#000000" d="
  M 11.71 40.33
  L 10.18 41.69
  A 0.17 0.17 0.0 0 1 9.92 41.49
  Q 10.53 40.25 11.81 39.71
  Q 12.22 39.53 12.49 39.16
  L 20.55 27.99
  A 0.64 0.63 49.1 0 1 21.63 28.07
  C 24.38 33.40 20.54 38.69 15.37 40.12
  Q 14.03 40.49 12.71 40.11
  Q 12.14 39.94 11.71 40.33
  Z"
/>
<path fill="#000000" d="
  M 26.41 32.60
  Q 27.28 33.88 28.76 33.19
  Q 29.26 32.95 29.13 33.49
  C 28.38 36.69 21.34 33.42 25.24 27.97
  A 0.52 0.51 -46.2 0 1 26.06 27.95
  L 27.37 29.65
  A 0.68 0.67 50.4 0 1 27.29 30.58
  Q 26.74 31.05 26.38 31.67
  Q 26.11 32.15 26.41 32.60
  Z"
/>
<path fill="#000000" d="
  M 3.70 30.43
  Q 3.33 30.79 2.88 30.90
  Q 2.34 31.04 2.49 30.50
  Q 2.75 29.54 3.86 29.49
  A 0.32 0.31 80.4 0 1 4.17 29.72
  Q 4.28 30.07 3.94 30.25
  Q 3.79 30.34 3.70 30.43
  Z"
/>
<ellipse fill="#000000" cx="0.00" cy="0.00" transform="translate(43.06,30.12) rotate(32.5)" rx="0.73" ry="0.55"/>
<path fill="#000000" d="
  M 23.35 37.39
  Q 22.45 39.86 22.80 42.49
  A 0.73 0.72 -83.3 0 1 21.82 43.27
  L 17.60 41.62
  Q 17.09 41.42 17.56 41.14
  Q 20.64 39.38 23.01 36.84
  Q 23.41 36.41 23.49 35.89
  Q 23.53 35.61 23.51 35.30
  Q 23.48 34.72 24.01 34.93
  C 24.58 35.16 24.95 35.66 25.46 35.86
  Q 28.20 36.95 30.20 34.85
  Q 30.57 34.46 30.90 34.89
  L 34.11 39.12
  Q 34.93 40.21 33.59 40.42
  Q 29.08 41.14 25.14 43.29
  Q 23.80 44.02 23.61 42.51
  Q 23.30 39.94 23.73 37.50
  A 0.11 0.10 -85.2 0 0 23.63 37.37
  L 23.37 37.37
  Q 23.35 37.37 23.35 37.39
  Z"
/>
<path fill="#000000" d="
  M 36.50 41.43
  Q 36.66 41.89 36.20 41.73
  Q 35.48 41.48 35.20 40.33
  Q 34.98 39.44 35.64 40.08
  Q 36.23 40.65 36.50 41.43
  Z"
/>
<path fill="#000000" d="
  M 23.49 44.50
  Q 23.63 44.91 23.37 45.44
  Q 23.15 45.91 22.86 45.48
  Q 22.50 44.95 23.01 44.40
  Q 23.34 44.04 23.49 44.50
  Z"
/>
</svg>
