<?xml version="1.0" encoding="UTF-8" standalone="no"?>
<!DOCTYPE svg PUBLIC "-//W3C//DTD SVG 1.1//EN" "http://www.w3.org/Graphics/SVG/1.1/DTD/svg11.dtd">
<svg xmlns="http://www.w3.org/2000/svg" version="1.1" viewBox="0.00 0.00 46.00 46.00">
<path fill="#000000" d="
  M 37.79 9.16
  L 40.30 17.41
  Q 40.45 17.89 40.35 18.38
  C 39.87 20.83 40.02 23.04 38.29 24.97
  Q 37.42 25.94 37.65 24.66
  Q 38.32 20.94 37.01 17.26
  C 36.32 15.34 36.59 13.81 36.33 11.98
  Q 35.97 9.46 35.83 12.00
  C 35.64 15.64 34.50 20.47 32.49 23.40
  A 0.89 0.88 -63.4 0 1 31.48 23.74
  Q 29.68 23.12 29.02 25.00
  A 0.69 0.68 17.2 0 0 29.50 25.90
  Q 30.93 26.25 32.96 24.41
  Q 33.74 23.69 33.67 24.75
  Q 33.23 30.89 29.60 35.86
  A 0.47 0.47 0.0 0 1 28.80 35.37
  Q 30.29 32.42 28.84 28.16
  Q 28.59 27.42 28.07 27.31
  Q 27.49 27.19 27.34 27.76
  L 27.14 28.52
  Q 26.44 31.20 26.04 28.46
  L 25.75 26.46
  A 0.80 0.80 0.0 0 1 26.20 25.63
  L 28.20 24.69
  A 0.59 0.59 0.0 0 0 28.41 23.79
  L 28.25 23.59
  A 0.31 0.31 0.0 0 0 27.82 23.54
  L 24.48 26.05
  Q 24.11 26.33 24.14 26.80
  Q 24.27 28.89 25.70 30.44
  Q 26.05 30.83 25.96 31.34
  Q 24.83 37.53 23.82 43.70
  Q 23.71 44.38 23.16 43.93
  A 0.13 0.13 0.0 0 1 23.11 43.85
  L 21.11 31.36
  Q 21.02 30.82 21.38 30.41
  Q 22.78 28.78 22.86 26.62
  Q 22.88 26.03 22.35 25.77
  Q 20.84 25.01 19.70 23.82
  Q 18.94 23.03 18.66 24.34
  Q 18.61 24.56 21.14 25.85
  A 0.20 0.19 -74.0 0 1 21.24 26.04
  Q 21.15 27.53 20.87 29.01
  Q 20.81 29.33 20.64 29.45
  Q 20.50 29.56 20.33 29.54
  Q 20.08 29.50 20.03 29.26
  L 19.69 27.82
  A 0.71 0.70 -39.7 0 0 18.36 27.70
  Q 16.66 31.52 18.15 35.41
  Q 19.02 37.70 17.47 35.81
  Q 13.60 31.10 13.43 24.70
  Q 13.39 23.32 14.20 24.45
  Q 15.23 25.90 17.04 25.98
  A 0.90 0.89 -12.7 0 0 17.87 24.67
  Q 17.21 23.43 15.78 23.55
  A 2.03 2.03 0.0 0 1 13.76 22.36
  Q 11.41 17.12 11.16 11.34
  Q 11.14 11.07 10.92 11.06
  L 10.91 11.06
  Q 10.70 11.06 10.68 11.27
  C 10.45 13.50 10.66 15.23 9.91 17.48
  Q 8.69 21.13 9.38 24.84
  A 0.33 0.33 0.0 0 1 8.81 25.11
  C 6.98 23.03 7.31 21.08 6.64 18.62
  Q 6.51 18.15 6.65 17.68
  L 9.08 9.38
  Q 9.23 8.88 8.93 9.31
  Q 6.82 12.37 6.46 16.21
  C 6.28 18.17 5.20 18.45 4.75 20.07
  Q 3.30 25.34 3.34 29.88
  Q 3.36 32.85 2.76 29.94
  C 0.44 18.68 4.19 8.07 12.67 1.28
  Q 14.26 0.01 13.30 1.81
  L 11.11 5.92
  A 0.79 0.77 -34.9 0 0 11.03 6.34
  Q 11.47 10.69 15.72 10.51
  C 16.80 10.47 17.66 9.82 18.64 9.44
  Q 19.60 9.07 18.94 9.86
  Q 16.44 12.89 18.40 16.48
  A 0.69 0.69 0.0 0 0 19.45 16.67
  L 20.48 15.77
  A 1.13 1.13 0.0 0 0 20.87 14.96
  Q 20.93 13.85 19.88 13.66
  Q 19.30 13.55 19.47 12.99
  L 20.68 8.99
  A 0.38 0.38 0.0 0 1 21.41 9.17
  Q 21.30 9.79 20.93 10.31
  A 0.98 0.98 0.0 0 0 20.76 10.95
  Q 20.85 11.82 21.53 11.77
  Q 21.98 11.74 22.14 12.17
  Q 22.24 12.45 22.25 12.75
  Q 22.28 13.60 22.88 12.87
  Q 23.05 12.66 23.28 12.53
  Q 23.65 12.32 23.98 12.61
  Q 24.13 12.74 24.20 12.94
  A 0.31 0.31 0.0 0 0 24.79 12.77
  Q 24.62 11.86 25.55 11.72
  A 0.68 0.66 0.5 0 0 26.12 11.17
  Q 26.31 10.07 25.55 9.23
  A 0.29 0.29 0.0 0 1 25.60 8.79
  L 25.91 8.60
  Q 26.11 8.47 26.19 8.70
  L 27.55 12.91
  Q 27.74 13.48 27.16 13.64
  Q 25.89 14.01 26.10 15.34
  Q 26.20 16.00 25.63 15.66
  Q 25.49 15.57 25.35 15.52
  Q 24.92 15.38 24.82 15.82
  L 23.99 19.72
  A 0.69 0.68 85.2 0 0 24.91 20.51
  Q 27.88 19.33 26.76 16.54
  Q 26.58 16.11 27.00 16.31
  L 27.78 16.68
  A 0.68 0.67 -62.8 0 0 28.66 16.39
  Q 30.46 13.04 28.23 10.14
  Q 27.63 9.35 28.56 9.71
  Q 33.69 11.71 35.61 8.05
  Q 36.62 6.12 35.29 4.83
  Q 34.90 4.45 34.74 3.94
  Q 34.15 2.05 32.70 0.72
  Q 32.54 0.57 32.68 0.40
  L 32.88 0.17
  A 0.08 0.07 35.9 0 1 32.98 0.16
  C 42.02 6.74 46.91 18.44 44.38 29.35
  Q 43.73 32.12 43.67 29.28
  Q 43.56 24.33 42.07 19.61
  Q 41.92 19.11 41.57 18.73
  Q 40.64 17.74 40.55 16.51
  Q 40.22 12.27 37.90 9.10
  Q 37.67 8.78 37.79 9.16
  Z
  M 23.06 20.04
  L 22.14 15.74
  A 0.24 0.24 0.0 0 0 21.85 15.55
  L 21.72 15.58
  A 2.35 2.32 77.9 0 0 19.94 18.36
  L 19.98 18.54
  A 2.35 2.32 77.9 0 0 22.74 20.35
  L 22.88 20.32
  A 0.24 0.24 0.0 0 0 23.06 20.04
  Z
  M 15.53 18.86
  Q 16.68 19.80 17.37 21.16
  Q 17.72 21.85 18.37 22.04
  Q 18.92 22.20 18.96 21.63
  Q 19.15 18.25 16.46 16.13
  A 0.97 0.96 -65.8 0 0 14.92 16.72
  C 14.65 18.27 13.69 21.21 15.59 21.94
  Q 16.34 22.23 15.90 21.55
  Q 15.16 20.40 15.17 19.03
  Q 15.17 18.57 15.53 18.86
  Z
  M 32.14 17.08
  L 31.92 16.47
  A 0.82 0.82 0.0 0 0 30.65 16.09
  Q 27.70 18.34 28.19 20.77
  Q 28.67 23.20 29.80 21.01
  Q 30.49 19.68 31.72 18.65
  Q 32.48 18.02 32.14 17.08
  Z
  M 31.16 21.38
  L 30.99 21.69
  Q 30.42 22.71 31.40 22.07
  Q 32.92 21.07 32.60 19.18
  Q 32.45 18.30 32.04 19.10
  Q 31.67 19.81 31.50 20.53
  Q 31.39 20.97 31.16 21.38
  Z
  M 23.15 22.98
  L 20.54 21.20
  Q 20.40 21.10 20.33 21.26
  L 20.20 21.56
  Q 20.13 21.74 20.30 21.83
  Q 22.37 22.77 23.37 24.71
  Q 23.56 25.09 23.77 24.72
  Q 23.88 24.52 23.88 24.27
  A 0.90 0.88 73.2 0 1 24.23 23.60
  L 26.84 21.60
  Q 26.90 21.55 26.85 21.50
  L 26.64 21.25
  Q 26.57 21.17 26.48 21.23
  L 23.85 22.98
  Q 23.50 23.22 23.15 22.98
  Z"
/>
</svg>
