<?xml version="1.0" encoding="UTF-8" standalone="no"?>
<!DOCTYPE svg PUBLIC "-//W3C//DTD SVG 1.1//EN" "http://www.w3.org/Graphics/SVG/1.1/DTD/svg11.dtd">
<svg xmlns="http://www.w3.org/2000/svg" version="1.1" viewBox="0.00 0.00 46.00 46.00">
<path fill="#000000" d="
  M 25.39 12.57
  L 26.83 11.33
  Q 27.20 11.01 27.67 10.88
  Q 30.16 10.18 32.68 10.82
  A 0.52 0.52 0.0 0 0 33.33 10.28
  L 33.24 9.22
  A 0.76 0.76 0.0 0 0 32.47 8.52
  L 30.75 8.53
  A 0.34 0.33 -68.0 0 1 30.51 7.96
  Q 35.13 3.25 40.97 3.24
  Q 44.11 3.24 41.05 3.94
  Q 39.18 4.37 38.43 7.51
  C 37.58 11.07 41.64 10.97 43.74 11.98
  Q 43.98 12.09 43.73 12.14
  L 39.82 12.92
  A 2.12 2.12 0.0 0 0 38.41 16.08
  L 39.26 17.52
  Q 39.81 18.45 38.79 18.09
  Q 36.14 17.16 35.29 18.70
  A 0.87 0.86 41.0 0 0 35.36 19.64
  Q 36.75 21.52 37.15 23.81
  Q 37.29 24.64 36.67 24.08
  Q 35.34 22.88 33.71 22.38
  A 0.94 0.94 0.0 0 0 32.53 23.56
  L 32.82 24.49
  Q 32.99 25.03 32.45 24.85
  Q 31.50 24.53 30.91 23.72
  A 0.44 0.44 0.0 0 0 30.18 23.74
  Q 29.84 24.30 29.10 24.26
  A 0.49 0.48 -67.2 0 1 28.77 23.45
  Q 30.84 21.14 32.62 19.37
  C 37.60 14.41 28.19 8.91 26.37 15.56
  A 2.41 2.40 17.5 0 0 27.89 18.46
  Q 30.53 19.40 31.63 16.58
  Q 31.86 16.02 31.51 15.52
  Q 30.99 14.79 30.01 14.93
  A 0.48 0.47 61.2 0 0 29.77 15.76
  Q 30.70 16.56 29.67 17.55
  A 0.88 0.88 0.0 0 1 28.22 17.18
  Q 27.41 14.63 29.67 13.68
  A 1.96 1.95 -37.1 0 1 31.66 13.95
  C 35.95 17.38 27.88 20.61 27.47 23.61
  Q 27.19 25.66 29.51 25.88
  C 32.83 26.19 33.57 27.75 32.18 30.67
  Q 28.65 38.07 20.12 38.08
  C 18.78 38.08 17.91 38.70 17.66 39.98
  Q 17.52 40.73 17.10 40.10
  L 16.74 39.57
  A 0.76 0.74 42.9 0 1 16.70 38.80
  Q 18.12 36.12 21.26 36.00
  Q 21.44 35.99 21.44 35.81
  Q 21.44 35.65 21.44 35.49
  Q 21.44 35.28 21.24 35.23
  Q 17.13 34.25 15.53 37.57
  Q 14.74 39.22 15.53 40.51
  Q 16.51 42.13 19.11 42.62
  A 0.87 0.87 0.0 0 0 20.04 41.36
  Q 19.72 40.73 19.33 40.43
  A 0.26 0.26 0.0 0 1 19.50 39.97
  L 19.96 39.99
  A 1.37 1.37 0.0 0 1 21.13 41.95
  C 18.24 47.95 8.25 39.31 11.81 35.47
  A 0.42 0.42 0.0 0 0 11.50 34.77
  L 9.51 34.77
  A 0.51 0.51 0.0 0 1 9.01 34.26
  L 9.00 13.19
  Q 9.00 12.64 9.56 12.64
  L 16.50 12.61
  Q 17.06 12.61 16.78 12.12
  Q 16.32 11.32 15.61 10.73
  Q 15.13 10.33 15.43 9.79
  Q 16.44 7.95 18.55 7.20
  A 1.36 1.36 0.0 0 1 20.35 8.67
  Q 20.18 9.92 19.44 10.39
  Q 18.88 10.74 18.78 10.08
  Q 18.65 9.19 17.84 8.91
  Q 17.37 8.75 17.15 9.20
  Q 16.39 10.69 17.66 11.15
  Q 22.46 12.88 23.80 7.79
  Q 24.07 6.74 25.58 6.60
  Q 26.65 6.49 27.51 7.13
  L 28.99 8.22
  A 0.37 0.36 62.8 0 1 28.78 8.88
  Q 25.52 8.88 24.57 12.03
  A 0.51 0.51 0.0 0 0 25.39 12.57
  Z
  M 20.04 14.54
  Q 20.75 13.47 21.22 14.66
  Q 21.89 16.35 23.15 17.62
  A 0.52 0.51 -69.3 0 0 24.03 17.22
  L 23.89 15.31
  Q 23.78 13.71 22.18 13.76
  L 14.83 14.02
  Q 14.15 14.05 14.51 14.62
  L 16.65 18.01
  A 0.64 0.64 0.0 0 0 17.72 18.03
  L 20.04 14.54
  Z
  M 10.48 17.25
  A 0.40 0.34 40.3 0 0 10.50 17.37
  Q 10.80 18.29 11.32 17.57
  Q 12.37 16.13 13.35 14.59
  A 0.35 0.34 -72.4 0 0 13.08 14.06
  L 11.46 13.97
  A 0.66 0.65 -85.3 0 0 10.78 14.55
  L 10.48 17.25
  Z
  M 25.22 21.37
  A 0.37 0.36 57.1 0 0 25.85 21.51
  L 26.77 20.38
  Q 27.17 19.90 26.72 19.46
  Q 26.27 19.01 25.67 18.77
  Q 25.06 18.54 25.01 19.19
  Q 24.93 20.30 25.22 21.37
  Z
  M 20.23 23.14
  L 17.40 19.13
  Q 17.15 18.77 16.92 19.14
  L 14.16 23.43
  Q 14.02 23.66 14.16 23.89
  L 16.76 28.02
  A 0.48 0.48 0.0 0 0 17.56 28.04
  L 20.09 24.39
  A 0.55 0.55 0.0 0 1 20.99 24.37
  Q 21.88 25.56 22.66 27.06
  Q 22.90 27.52 23.43 27.56
  Q 23.85 27.60 23.85 27.18
  L 23.82 20.21
  A 0.50 0.50 0.0 0 0 22.89 19.95
  L 20.92 23.12
  Q 20.59 23.65 20.23 23.14
  Z
  M 11.45 19.77
  A 0.39 0.39 0.0 0 0 10.72 19.96
  L 10.67 27.36
  A 0.39 0.39 0.0 0 0 11.39 27.57
  L 13.62 23.88
  A 0.39 0.39 0.0 0 0 13.62 23.48
  L 11.45 19.77
  Z
  M 29.37 30.72
  Q 29.01 30.80 28.72 30.99
  Q 28.39 31.22 28.21 31.82
  Q 27.30 34.75 24.80 34.64
  Q 22.92 34.55 24.54 35.50
  Q 25.73 36.19 27.28 35.17
  Q 31.12 32.63 31.03 28.03
  Q 31.02 27.48 30.47 27.46
  Q 27.39 27.34 25.71 24.78
  Q 25.23 24.06 25.05 24.90
  C 24.59 26.98 27.79 28.16 29.19 29.07
  Q 29.90 29.53 29.88 30.12
  Q 29.86 30.63 29.37 30.72
  Z
  M 26.74 30.48
  Q 27.32 30.86 28.03 30.81
  A 0.48 0.48 0.0 0 0 28.31 29.96
  Q 27.12 28.97 25.56 28.78
  Q 25.22 28.74 25.20 29.09
  L 25.08 32.56
  Q 25.07 33.03 25.53 33.09
  Q 25.79 33.13 26.04 33.08
  Q 26.53 33.00 26.80 32.53
  Q 27.35 31.57 26.57 30.75
  Q 25.65 29.77 26.74 30.48
  Z
  M 14.33 32.95
  A 0.37 0.37 0.0 0 0 14.66 33.52
  L 19.89 33.35
  A 0.37 0.37 0.0 0 0 20.17 32.75
  L 17.43 29.08
  A 0.37 0.37 0.0 0 0 16.83 29.10
  L 14.33 32.95
  Z
  M 10.79 32.88
  A 0.44 0.44 0.0 0 0 11.17 33.27
  L 12.98 33.49
  A 0.44 0.44 0.0 0 0 13.40 32.81
  L 11.31 29.58
  A 0.44 0.44 0.0 0 0 10.51 29.86
  L 10.79 32.88
  Z
  M 23.33 29.66
  C 22.43 30.15 21.54 31.85 20.95 32.70
  Q 20.61 33.20 21.18 33.39
  C 23.79 34.27 24.09 31.77 23.97 30.01
  Q 23.93 29.34 23.33 29.66
  Z
  M 14.32 36.40
  L 14.68 35.89
  A 0.44 0.44 0.0 0 0 14.10 35.25
  Q 12.49 36.19 12.32 38.06
  A 0.47 0.47 0.0 0 0 13.12 38.43
  Q 13.74 37.79 14.05 36.93
  A 2.02 1.74 -22.3 0 1 14.32 36.40
  Z"
/>
<path fill="#000000" d="
  M 33.23 31.83
  C 33.90 29.91 36.42 28.91 38.28 28.41
  A 0.49 0.49 0.0 0 1 38.87 29.03
  L 38.03 31.70
  Q 37.87 32.24 37.30 32.24
  L 33.55 32.28
  Q 33.07 32.28 33.23 31.83
  Z"
/>
<path fill="#000000" d="
  M 36.86 34.54
  L 34.38 37.00
  A 0.32 0.32 0.0 0 1 34.02 37.06
  L 31.14 35.70
  A 0.32 0.32 0.0 0 1 31.03 35.20
  L 32.05 34.05
  A 0.32 0.32 0.0 0 1 32.30 33.94
  L 36.64 33.99
  A 0.32 0.32 0.0 0 1 36.86 34.54
  Z"
/>
<path fill="#000000" d="
  M 31.77 38.72
  L 28.28 40.34
  A 0.59 0.59 0.0 0 1 27.68 40.28
  L 26.59 39.48
  A 0.59 0.59 0.0 0 1 26.64 38.50
  L 29.40 36.81
  A 0.59 0.59 0.0 0 1 29.96 36.78
  L 31.77 37.65
  A 0.59 0.59 0.0 0 1 31.77 38.72
  Z"
/>
</svg>
