<?xml version="1.0" encoding="UTF-8" standalone="no"?>
<!DOCTYPE svg PUBLIC "-//W3C//DTD SVG 1.1//EN" "http://www.w3.org/Graphics/SVG/1.1/DTD/svg11.dtd">
<svg xmlns="http://www.w3.org/2000/svg" version="1.1" viewBox="0.00 0.00 46.00 46.00">
<path fill="#000000" d="
  M 25.59 5.16
  C 25.39 7.95 20.88 8.03 20.49 5.17
  Q 20.42 4.68 19.92 4.64
  L 19.14 4.59
  Q 17.47 4.47 18.65 5.65
  L 19.43 6.42
  Q 19.98 6.98 19.45 7.56
  L 16.18 11.10
  A 0.75 0.70 -22.5 0 0 15.98 11.54
  Q 15.73 14.93 18.22 17.17
  Q 18.90 17.78 18.43 18.56
  L 17.42 20.24
  Q 17.03 20.91 16.40 20.44
  Q 15.36 19.66 14.13 20.18
  Q 12.09 21.03 13.41 19.25
  C 14.52 17.74 13.89 14.41 11.57 14.03
  Q 9.32 13.67 11.37 12.67
  C 13.66 11.56 13.80 9.13 11.85 7.60
  Q 11.39 7.24 11.30 6.95
  Q 11.22 6.72 11.25 6.52
  Q 11.31 6.07 11.75 6.16
  L 13.99 6.63
  A 1.23 1.23 0.0 0 0 15.39 4.98
  L 14.16 1.76
  Q 13.83 0.91 14.63 1.35
  L 17.09 2.72
  A 0.71 0.70 -52.0 0 0 17.92 2.61
  Q 18.71 1.84 19.74 1.43
  Q 20.20 1.25 20.40 1.69
  L 20.55 2.00
  Q 20.82 2.57 21.24 2.84
  Q 21.38 2.92 21.50 2.83
  A 0.91 0.09 -32.9 0 0 22.11 2.34
  L 22.68 0.75
  A 0.35 0.35 0.0 0 1 23.31 0.69
  Q 23.72 1.38 23.94 2.08
  Q 24.09 2.59 24.33 2.74
  Q 24.57 2.90 24.84 2.85
  A 0.67 0.67 0.0 0 0 25.31 2.50
  L 25.68 1.77
  Q 25.94 1.27 26.46 1.49
  Q 27.43 1.89 28.20 2.60
  A 0.76 0.76 0.0 0 0 29.08 2.71
  L 31.42 1.42
  Q 32.28 0.94 31.92 1.86
  L 30.73 4.85
  A 1.29 1.28 -83.9 0 0 32.13 6.59
  L 33.40 6.39
  Q 35.76 6.01 34.13 7.76
  C 32.39 9.64 32.33 11.94 35.02 12.85
  A 1.43 0.74 62.6 0 1 35.56 13.23
  Q 35.71 13.39 35.67 13.62
  A 0.34 0.34 0.0 0 1 35.37 13.91
  Q 32.11 14.30 32.06 17.81
  A 1.30 1.28 -65.7 0 0 32.37 18.65
  Q 32.88 19.23 33.08 20.00
  A 0.43 0.43 0.0 0 1 32.47 20.48
  Q 30.95 19.69 29.55 20.52
  Q 29.04 20.82 28.72 20.32
  L 27.68 18.66
  A 1.16 1.16 0.0 0 1 27.88 17.19
  Q 30.26 15.03 30.21 11.74
  A 0.87 0.83 -68.0 0 0 29.99 11.19
  L 26.54 7.49
  Q 26.10 7.02 26.55 6.57
  L 27.85 5.27
  A 0.41 0.41 0.0 0 0 27.53 4.57
  L 26.06 4.69
  Q 25.63 4.73 25.59 5.16
  Z"
/>
<path fill="#000000" d="
  M 8.87 14.02
  Q 9.48 14.82 10.50 14.96
  A 2.36 2.36 0.0 0 1 12.36 18.20
  L 11.50 20.29
  Q 11.22 20.96 11.84 21.33
  Q 12.69 21.85 13.69 21.43
  Q 14.39 21.13 13.98 21.77
  C 12.64 23.87 11.75 25.07 9.01 24.58
  Q 8.46 24.48 8.46 23.93
  L 8.43 2.43
  Q 8.43 1.86 8.99 1.76
  C 11.38 1.33 11.74 2.68 13.04 4.11
  Q 14.62 5.84 12.32 5.38
  L 11.22 5.16
  A 1.36 1.35 -14.2 0 0 9.91 7.35
  L 11.57 9.33
  A 1.34 1.33 -37.8 0 1 11.32 11.27
  L 9.04 12.88
  A 0.80 0.80 0.0 0 0 8.87 14.02
  Z"
/>
<path fill="#000000" d="
  M 35.89 14.57
  Q 38.56 14.22 36.30 12.44
  L 34.81 11.27
  A 1.41 1.40 -53.3 0 1 34.54 9.36
  C 35.28 8.32 37.28 6.89 35.85 5.47
  Q 35.47 5.11 34.96 5.20
  L 33.49 5.46
  Q 31.58 5.81 32.86 4.34
  L 34.72 2.20
  A 1.35 1.33 -68.2 0 1 35.77 1.74
  L 37.27 1.79
  Q 37.73 1.80 37.73 2.27
  L 37.75 24.21
  A 0.42 0.42 0.0 0 1 37.40 24.62
  Q 33.66 25.29 32.19 21.80
  Q 31.95 21.21 32.53 21.45
  Q 33.47 21.84 34.30 21.36
  A 0.76 0.75 63.8 0 0 34.62 20.42
  L 33.66 18.05
  Q 33.52 17.71 33.62 17.35
  Q 34.28 14.79 35.89 14.57
  Z"
/>
<path fill="#000000" d="
  M 7.37 6.48
  L 4.31 8.96
  A 0.30 0.30 0.0 0 1 3.82 8.77
  L 3.46 6.27
  A 0.30 0.30 0.0 0 1 3.55 6.01
  L 6.99 2.69
  A 0.30 0.30 0.0 0 1 7.50 2.90
  L 7.48 6.25
  A 0.30 0.30 0.0 0 1 7.37 6.48
  Z"
/>
<path fill="#000000" d="
  M 39.51 3.15
  L 41.92 5.35
  A 0.31 0.31 0.0 0 1 42.02 5.58
  L 42.01 8.53
  A 0.31 0.31 0.0 0 1 41.51 8.77
  L 39.13 6.84
  A 0.31 0.31 0.0 0 1 39.02 6.60
  L 38.99 3.38
  A 0.31 0.31 0.0 0 1 39.51 3.15
  Z"
/>
<path fill="#000000" d="
  M 0.00 17.34
  L 0.00 9.28
  L 2.32 7.03
  Q 2.77 6.59 2.77 7.22
  L 2.76 19.26
  Q 2.76 19.85 2.25 19.55
  Q 0.93 18.76 0.00 17.34
  Z"
/>
<path fill="#000000" d="
  M 46.00 9.29
  L 46.00 17.69
  L 43.73 19.72
  Q 43.25 20.16 43.25 19.50
  L 43.25 7.26
  Q 43.25 6.69 43.73 7.01
  Q 45.05 7.93 46.00 9.29
  Z"
/>
<path fill="#000000" d="
  M 21.30 10.93
  L 21.92 11.55
  Q 22.44 12.07 21.77 12.37
  L 21.04 12.71
  A 1.11 1.09 -47.3 0 1 20.23 12.75
  Q 16.58 11.56 20.45 8.13
  Q 20.88 7.75 21.26 7.73
  Q 21.51 7.72 21.71 7.81
  Q 22.21 8.04 22.07 8.57
  Q 21.85 9.43 21.27 10.10
  Q 20.90 10.53 21.30 10.93
  Z"
/>
<path fill="#000000" d="
  M 24.78 9.99
  Q 24.19 9.49 24.17 9.40
  Q 23.57 6.27 25.93 8.41
  Q 26.62 9.03 27.21 10.05
  A 1.83 1.83 0.0 0 1 26.75 12.41
  Q 25.52 13.36 24.15 12.32
  Q 23.66 11.95 24.12 11.56
  L 24.79 10.99
  A 0.66 0.65 -45.8 0 0 24.78 9.99
  Z"
/>
<path fill="#000000" d="
  M 3.73 12.13
  Q 3.85 11.59 4.29 11.25
  L 6.92 9.21
  Q 7.44 8.80 7.45 9.47
  L 7.48 16.75
  Q 7.49 17.93 6.64 17.11
  L 4.16 14.74
  Q 3.81 14.40 3.72 13.93
  Q 3.54 13.03 3.73 12.13
  Z"
/>
<path fill="#000000" d="
  M 39.37 9.56
  C 43.13 11.33 42.97 15.20 39.37 16.94
  Q 39.03 17.10 39.03 16.73
  L 39.03 9.77
  Q 39.03 9.40 39.37 9.56
  Z"
/>
<path fill="#000000" d="
  M 25.91 15.38
  Q 26.21 15.64 26.20 15.25
  Q 26.15 12.78 28.59 11.73
  A 0.30 0.29 82.0 0 1 29.00 12.04
  Q 28.66 14.73 26.72 16.61
  Q 26.35 16.97 26.24 17.48
  C 25.19 22.32 20.68 21.80 19.80 17.22
  A 1.42 1.41 15.2 0 0 19.32 16.39
  Q 17.30 14.63 17.12 11.90
  A 0.31 0.30 -77.7 0 1 17.57 11.61
  Q 19.83 12.84 19.89 15.30
  Q 19.90 15.62 20.14 15.41
  L 22.65 13.13
  Q 23.03 12.79 23.41 13.13
  L 25.91 15.38
  Z
  M 23.0484 19.6700
  A 2.40 2.18 89.8 0 0 25.2200 17.2624
  A 2.40 2.18 89.8 0 0 23.0316 14.8700
  A 2.40 2.18 89.8 0 0 20.8600 17.2776
  A 2.40 2.18 89.8 0 0 23.0484 19.6700
  Z"
/>
<circle fill="#000000" cx="23.01" cy="17.28" r="1.19"/>
<path fill="#000000" d="
  M 6.95 24.07
  L 3.85 21.09
  A 0.31 0.31 0.0 0 1 3.76 20.87
  L 3.69 17.61
  A 0.31 0.31 0.0 0 1 4.22 17.39
  L 7.40 20.48
  A 0.31 0.31 0.0 0 1 7.49 20.70
  L 7.47 23.85
  A 0.31 0.31 0.0 0 1 6.95 24.07
  Z"
/>
<path fill="#000000" d="
  M 39.13 20.02
  L 41.48 17.84
  A 0.31 0.31 0.0 0 1 42.00 18.07
  L 42.01 21.23
  A 0.31 0.31 0.0 0 1 41.92 21.45
  L 39.52 23.80
  A 0.31 0.31 0.0 0 1 38.99 23.58
  L 39.03 20.24
  A 0.31 0.31 0.0 0 1 39.13 20.02
  Z"
/>
<rect fill="#000000" x="-2.15" y="-1.02" transform="translate(23.05,22.62) rotate(-0.2)" width="4.30" height="2.04" rx="0.26"/>
<path fill="#000000" d="
  M 21.28 26.07
  Q 20.80 25.87 20.41 25.52
  A 0.46 0.46 0.0 0 1 20.72 24.72
  L 25.52 24.75
  A 0.41 0.40 -61.7 0 1 25.74 25.49
  L 24.71 26.17
  A 0.98 0.98 0.0 0 0 24.28 26.98
  L 24.26 32.52
  A 1.00 1.00 0.0 0 1 23.23 33.52
  L 22.75 33.51
  Q 21.77 33.48 21.77 32.50
  L 21.75 26.77
  A 0.76 0.75 -79.1 0 0 21.28 26.07
  Z"
/>
<path fill="#000000" d="
  M 7.69 29.08
  L 8.17 29.68
  Q 8.44 30.01 8.09 30.26
  L 5.08 32.43
  Q 4.76 32.66 4.76 32.27
  L 4.76 25.74
  Q 4.76 24.95 5.33 25.49
  Q 6.62 26.72 8.50 26.28
  A 0.34 0.34 0.0 0 1 8.84 26.82
  L 7.70 28.22
  Q 7.35 28.65 7.69 29.08
  Z"
/>
<path fill="#000000" d="
  M 38.34 28.09
  L 37.25 26.97
  A 0.35 0.35 0.0 0 1 37.55 26.38
  Q 39.40 26.68 40.78 25.52
  Q 41.28 25.11 41.28 25.75
  L 41.27 32.02
  A 0.34 0.33 17.9 0 1 40.74 32.29
  L 38.13 30.38
  A 0.60 0.60 0.0 0 1 38.02 29.50
  L 38.38 29.06
  Q 38.80 28.56 38.34 28.09
  Z"
/>
<path fill="#000000" d="
  M 10.01 30.26
  A 0.32 0.32 0.0 0 1 10.13 29.82
  L 10.70 29.50
  A 2.05 1.87 60.6 0 1 13.34 30.37
  L 14.86 33.07
  A 2.05 1.87 60.6 0 1 14.24 35.78
  L 13.67 36.10
  A 0.32 0.32 0.0 0 1 13.23 35.97
  L 10.01 30.26
  Z"
/>
<path fill="#000000" d="
  M 33.11 35.89
  Q 32.90 36.59 32.36 36.10
  L 30.97 34.84
  A 0.89 0.89 0.0 0 1 30.82 33.69
  L 33.83 29.22
  A 0.51 0.50 -55.7 0 1 34.54 29.08
  L 35.91 30.04
  A 0.47 0.47 0.0 0 1 35.99 30.74
  Q 33.97 32.98 33.11 35.89
  Z"
/>
<path fill="#000000" d="
  M 2.67 34.99
  L 8.29 31.50
  A 0.66 0.66 0.0 0 1 9.14 31.63
  L 10.43 33.13
  A 1.32 1.32 0.0 0 1 9.45 35.31
  L 2.79 35.41
  Q 1.98 35.42 2.67 34.99
  Z"
/>
<path fill="#000000" d="
  M 43.48 35.06
  A 0.14 0.14 0.0 0 1 43.41 35.32
  C 41.15 35.55 37.32 35.94 35.47 34.31
  Q 35.02 33.92 35.41 33.47
  L 37.09 31.50
  A 0.44 0.44 0.0 0 1 37.66 31.42
  L 43.48 35.06
  Z"
/>
<path fill="#000000" d="
  M 25.04 34.25
  L 25.68 36.51
  A 0.77 0.76 -18.4 0 1 25.21 37.44
  Q 22.96 38.28 20.79 37.31
  A 0.68 0.67 20.0 0 1 20.42 36.52
  L 21.05 34.22
  A 0.48 0.47 -73.6 0 1 21.65 33.89
  Q 22.99 34.29 24.33 33.87
  Q 24.88 33.70 25.04 34.25
  Z"
/>
<path fill="#000000" d="
  M 7.26 41.01
  Q 7.15 37.14 10.61 35.55
  A 0.73 0.72 -21.7 0 1 11.60 35.97
  C 12.45 38.36 9.97 40.19 7.73 41.28
  Q 7.28 41.50 7.26 41.01
  Z"
/>
<path fill="#000000" d="
  M 38.69 41.74
  L 35.07 39.01
  Q 34.03 38.24 34.31 36.97
  L 34.52 35.99
  Q 34.77 34.84 35.69 35.58
  L 38.08 37.50
  Q 38.29 37.67 38.34 37.93
  L 38.99 41.56
  Q 39.07 42.02 38.69 41.74
  Z"
/>
<path fill="#000000" d="
  M 10.78 42.95
  Q 11.47 39.09 14.67 37.00
  Q 15.15 36.68 15.40 37.20
  C 16.51 39.54 12.79 42.54 11.16 43.26
  Q 10.68 43.47 10.78 42.95
  Z"
/>
<path fill="#000000" d="
  M 31.31 37.05
  C 33.93 38.47 34.43 40.32 35.39 42.89
  Q 35.74 43.81 34.87 43.34
  C 33.32 42.49 29.42 39.39 30.71 37.22
  Q 30.93 36.84 31.31 37.05
  Z"
/>
<path fill="#000000" d="
  M 25.60 38.21
  Q 26.16 37.43 27.06 37.36
  A 0.51 0.50 -71.0 0 1 27.47 38.21
  L 23.42 42.63
  A 0.51 0.51 0.0 0 1 22.67 42.62
  L 19.10 38.65
  Q 17.86 37.27 19.57 37.39
  Q 19.92 37.42 20.28 38.07
  A 0.98 0.96 -14.7 0 0 21.15 38.57
  L 25.03 38.51
  A 0.70 0.69 -72.2 0 0 25.60 38.21
  Z"
/>
<path fill="#000000" d="
  M 17.82 43.34
  Q 16.33 43.19 14.98 42.55
  Q 14.42 42.29 14.84 41.84
  L 16.40 40.16
  Q 16.80 39.73 17.04 40.26
  L 18.18 42.85
  Q 18.42 43.41 17.82 43.34
  Z"
/>
<path fill="#000000" d="
  M 31.22 42.63
  L 28.26 43.54
  A 0.35 0.35 0.0 0 1 27.83 43.06
  L 29.12 40.25
  A 0.35 0.35 0.0 0 1 29.70 40.16
  L 31.38 42.07
  A 0.35 0.35 0.0 0 1 31.22 42.63
  Z"
/>
</svg>
