<?xml version="1.0" encoding="UTF-8" standalone="no"?>
<!DOCTYPE svg PUBLIC "-//W3C//DTD SVG 1.1//EN" "http://www.w3.org/Graphics/SVG/1.1/DTD/svg11.dtd">
<svg xmlns="http://www.w3.org/2000/svg" version="1.1" viewBox="0.00 0.00 46.00 46.00">
<path fill="#000000" d="
  M 40.84 13.33
  C 41.80 15.42 42.72 17.43 43.08 19.63
  Q 45.10 31.89 36.41 38.89
  Q 33.58 41.16 37.19 40.77
  Q 39.69 40.51 42.15 40.83
  A 1.51 1.50 16.6 0 1 43.31 42.96
  L 43.13 43.34
  A 2.81 2.81 0.0 0 1 40.27 44.93
  Q 36.31 44.49 32.82 42.42
  A 1.37 1.34 55.5 0 0 31.90 42.24
  C 30.43 42.47 28.66 43.59 27.27 43.22
  Q 26.26 42.96 27.29 42.77
  Q 28.89 42.48 30.02 41.30
  Q 30.49 40.82 29.89 40.49
  C 26.19 38.48 25.65 35.93 24.45 32.56
  Q 24.31 32.15 24.73 32.02
  L 28.45 30.92
  Q 28.95 30.78 28.89 31.29
  Q 28.75 32.51 28.19 33.56
  Q 27.94 34.04 28.22 34.51
  Q 29.84 37.26 32.57 38.92
  A 0.89 0.89 0.0 0 0 33.60 38.85
  Q 42.06 31.84 40.47 20.74
  C 38.11 4.22 18.11 -0.22 9.34 13.91
  C 6.71 18.14 5.60 28.18 12.98 28.61
  C 17.77 28.90 22.97 31.24 23.76 36.40
  C 24.55 41.62 20.14 44.72 15.25 43.50
  C 1.68 40.09 -3.30 22.46 4.89 11.88
  C 11.78 2.98 21.98 -0.55 32.48 4.28
  Q 40.19 7.82 43.73 15.55
  Q 43.77 15.63 43.69 15.66
  L 43.43 15.78
  Q 43.13 15.92 43.01 15.61
  Q 42.42 14.10 41.06 13.15
  Q 40.61 12.84 40.84 13.33
  Z
  M 18.46 35.58
  A 2.33 2.33 0.0 0 0 16.13 33.25
  A 2.33 2.33 0.0 0 0 13.80 35.58
  A 2.33 2.33 0.0 0 0 16.13 37.91
  A 2.33 2.33 0.0 0 0 18.46 35.58
  Z"
/>
<path fill="#000000" d="
  M 26.45 9.26
  C 22.64 9.32 23.11 12.99 25.22 14.80
  C 28.83 17.90 33.24 20.42 29.88 26.13
  Q 28.09 29.17 24.56 29.79
  C 18.43 30.86 13.72 25.53 14.23 19.50
  Q 14.83 12.32 20.95 8.70
  C 22.31 7.90 25.84 7.04 26.74 8.78
  Q 26.98 9.25 26.45 9.26
  Z
  M 27.54 21.10
  Q 27.02 23.09 24.99 22.82
  Q 20.47 22.23 19.25 17.59
  A 1.20 1.19 -39.1 0 1 19.34 16.76
  Q 20.32 14.81 22.49 15.02
  Q 23.19 15.09 22.74 14.55
  Q 21.39 12.91 21.54 10.77
  A 0.44 0.44 0.0 0 0 20.82 10.40
  C 18.48 12.31 16.54 14.90 16.31 17.94
  C 15.62 27.22 28.37 30.29 29.04 21.53
  Q 29.08 21.00 28.81 20.55
  Q 27.18 17.89 24.34 16.72
  A 1.81 1.81 0.0 0 0 22.27 17.23
  Q 21.33 18.37 22.44 19.78
  Q 24.56 22.48 27.28 20.90
  Q 27.65 20.68 27.54 21.10
  Z"
/>
<circle fill="#000000" cx="35.14" cy="19.98" r="2.79"/>
</svg>
