<?xml version="1.0" encoding="UTF-8" standalone="no"?>
<!DOCTYPE svg PUBLIC "-//W3C//DTD SVG 1.1//EN" "http://www.w3.org/Graphics/SVG/1.1/DTD/svg11.dtd">
<svg xmlns="http://www.w3.org/2000/svg" version="1.1" viewBox="0.00 0.00 46.00 46.00">
<path fill="#000000" d="
  M 17.50 17.43
  Q 16.34 18.48 15.67 19.90
  Q 15.44 20.39 14.95 20.17
  L 14.19 19.83
  A 0.95 0.95 0.0 0 1 13.84 18.37
  L 15.07 16.86
  A 0.94 0.93 52.5 0 0 15.19 15.90
  L 12.10 8.89
  A 0.24 0.24 0.0 0 1 12.47 8.60
  L 15.48 10.81
  Q 16.57 11.61 17.39 10.54
  Q 20.89 5.96 23.26 0.73
  A 0.27 0.27 0.0 0 1 23.76 0.73
  Q 26.11 5.92 29.57 10.47
  Q 30.48 11.67 31.69 10.78
  L 34.63 8.62
  Q 35.29 8.13 34.96 8.88
  L 31.81 16.05
  Q 31.63 16.46 31.91 16.81
  L 33.30 18.53
  A 0.71 0.70 -45.4 0 1 33.30 19.40
  Q 32.81 20.01 31.96 19.97
  Q 31.48 19.95 31.21 19.54
  L 30.54 18.54
  Q 29.25 16.61 27.73 18.36
  Q 24.09 22.51 27.79 26.54
  A 0.49 0.49 0.0 0 0 28.53 26.52
  Q 29.24 25.68 30.29 25.80
  A 0.83 0.83 0.0 0 1 30.78 27.21
  L 25.76 32.18
  A 0.37 0.36 -52.2 0 1 25.32 32.24
  L 25.09 32.11
  Q 25.07 32.10 25.18 31.97
  Q 26.17 30.91 26.31 29.43
  Q 26.36 28.93 26.00 28.59
  L 23.92 26.58
  A 0.61 0.61 0.0 0 0 23.08 26.58
  L 21.04 28.56
  Q 20.68 28.91 20.73 29.41
  Q 20.90 30.89 21.86 31.97
  Q 21.96 32.08 21.90 32.11
  L 21.59 32.26
  A 0.38 0.37 53.7 0 1 21.17 32.19
  L 16.06 27.13
  A 0.72 0.72 0.0 0 1 16.28 25.95
  L 16.75 25.75
  A 1.01 1.00 -35.4 0 1 17.83 25.93
  L 18.33 26.38
  Q 18.76 26.75 19.20 26.39
  C 22.33 23.84 21.30 19.45 18.25 17.38
  Q 17.85 17.11 17.50 17.43
  Z
  M 26.72 15.08
  A 0.39 0.39 0.0 0 0 26.73 14.69
  L 23.87 9.33
  A 0.39 0.39 0.0 0 0 23.18 9.33
  L 20.30 14.68
  A 0.39 0.39 0.0 0 0 20.31 15.07
  L 23.23 19.71
  A 0.39 0.39 0.0 0 0 23.90 19.70
  L 26.72 15.08
  Z"
/>
<path fill="#000000" d="
  M 8.37 27.91
  L 8.44 28.50
  A 0.37 0.37 0.0 0 1 7.93 28.89
  Q 7.11 28.58 6.86 27.77
  Q 6.69 27.24 7.09 26.84
  Q 8.15 25.77 7.28 24.69
  C 5.17 22.07 3.93 18.47 5.53 15.22
  C 6.95 12.33 8.70 9.65 12.01 11.51
  A 1.97 1.97 0.0 0 1 12.22 14.81
  Q 11.42 15.41 10.52 15.51
  A 0.89 0.88 -79.2 0 0 9.83 15.98
  C 8.21 19.21 10.58 22.18 12.29 24.78
  Q 12.52 25.12 12.42 25.52
  Q 11.70 28.34 8.98 27.42
  A 0.46 0.46 0.0 0 0 8.37 27.91
  Z
  M 11.36 25.40
  A 1.19 1.19 0.0 0 0 10.17 24.21
  A 1.19 1.19 0.0 0 0 8.98 25.40
  A 1.19 1.19 0.0 0 0 10.17 26.59
  A 1.19 1.19 0.0 0 0 11.36 25.40
  Z"
/>
<path fill="#000000" d="
  M 38.11 27.40
  L 37.20 27.67
  Q 36.70 27.82 36.23 27.56
  Q 33.51 26.07 35.36 23.65
  C 37.22 21.22 39.82 16.49 35.26 15.05
  C 32.00 14.03 35.59 8.52 39.42 11.84
  Q 40.45 12.73 41.65 15.35
  C 43.26 18.85 41.54 22.82 39.35 25.62
  A 0.49 0.48 -55.1 0 0 39.47 26.32
  L 39.77 26.50
  Q 40.21 26.79 40.25 27.31
  Q 40.34 28.51 39.19 28.85
  Q 38.71 28.99 38.72 28.48
  L 38.74 27.89
  A 0.49 0.49 0.0 0 0 38.11 27.40
  Z
  M 37.9086 24.7459
  A 1.27 1.14 -31.0 0 0 36.2329 24.4228
  A 1.27 1.14 -31.0 0 0 35.7314 26.0541
  A 1.27 1.14 -31.0 0 0 37.4071 26.3772
  A 1.27 1.14 -31.0 0 0 37.9086 24.7459
  Z"
/>
<path fill="#000000" d="
  M 22.91 41.51
  L 19.63 44.69
  Q 19.06 45.23 18.49 44.71
  L 17.12 43.46
  Q 16.56 42.95 17.10 42.43
  L 20.59 39.02
  Q 21.00 38.61 20.60 38.20
  C 17.81 35.31 13.59 32.19 11.55 28.90
  Q 11.25 28.42 11.76 28.18
  L 12.31 27.93
  A 1.12 1.10 -6.1 0 0 12.94 27.16
  Q 13.27 25.74 14.06 24.53
  Q 14.38 24.03 14.12 23.50
  Q 13.29 21.78 11.39 21.48
  Q 11.24 21.46 11.26 21.31
  L 11.30 21.05
  A 0.30 0.30 0.0 0 1 11.60 20.78
  Q 15.20 20.70 16.10 24.14
  A 0.98 0.97 -27.5 0 1 15.78 25.14
  Q 15.06 25.74 14.59 26.49
  A 0.82 0.82 0.0 0 0 14.71 27.51
  L 23.06 35.74
  Q 23.41 36.08 23.76 35.74
  L 32.35 27.39
  Q 32.84 26.91 32.39 26.38
  L 31.22 25.01
  A 0.96 0.90 -69.7 0 1 31.00 24.49
  C 30.80 22.67 31.82 22.03 33.12 21.07
  Q 33.99 20.42 34.75 20.71
  Q 36.15 21.24 34.73 21.72
  Q 33.43 22.16 32.84 23.44
  Q 32.59 23.99 32.94 24.48
  Q 33.79 25.68 34.11 27.14
  A 1.10 1.08 -86.7 0 0 34.81 27.94
  L 35.41 28.16
  A 0.65 0.64 -56.9 0 1 35.63 29.23
  L 26.10 38.35
  A 0.42 0.42 0.0 0 0 26.10 38.95
  L 29.98 42.69
  Q 30.48 43.17 29.97 43.65
  L 28.52 45.02
  Q 28.02 45.49 27.52 45.01
  L 23.89 41.51
  Q 23.40 41.04 22.91 41.51
  Z
  M 22.80 39.22
  Q 20.93 40.17 19.78 41.85
  Q 19.45 42.32 19.96 42.07
  Q 21.79 41.17 22.80 39.22
  L 23.32 39.35
  Q 23.78 39.46 24.12 39.79
  L 26.93 42.54
  Q 27.10 42.70 27.27 42.55
  L 27.48 42.36
  Q 27.55 42.29 27.48 42.23
  L 24.35 39.16
  A 0.71 0.70 45.3 0 1 24.35 38.15
  L 29.83 32.86
  Q 29.91 32.79 29.83 32.71
  L 29.63 32.52
  Q 29.45 32.35 29.27 32.52
  L 24.05 37.55
  A 0.93 0.93 0.0 0 1 22.75 37.54
  L 17.58 32.44
  Q 17.51 32.37 17.46 32.43
  L 17.28 32.62
  A 0.27 0.27 0.0 0 0 17.28 33.00
  L 22.40 38.08
  Q 22.72 38.40 22.78 38.85
  Q 22.80 39.04 22.80 39.22
  Z"
/>
<path fill="#000000" d="
  M 12.40 37.56
  Q 10.58 34.53 7.39 36.15
  Q 6.92 36.38 6.76 35.89
  Q 6.19 34.23 4.87 33.19
  Q 1.87 30.82 5.50 31.77
  L 7.14 32.19
  Q 7.65 32.33 8.06 32.00
  Q 9.00 31.24 9.16 29.96
  A 0.71 0.71 0.0 0 1 10.31 29.50
  Q 11.78 30.68 11.50 32.50
  Q 11.41 33.04 11.63 33.55
  Q 12.51 35.64 14.19 34.41
  Q 14.66 34.06 15.07 34.47
  L 17.81 37.19
  Q 21.36 40.71 16.57 39.21
  Q 14.08 38.44 12.20 41.79
  A 0.39 0.39 0.0 0 1 11.49 41.48
  L 12.50 38.48
  Q 12.66 38.00 12.40 37.56
  Z"
/>
<path fill="#000000" d="
  M 34.33 34.89
  C 35.48 34.35 35.57 33.57 35.52 32.27
  Q 35.46 30.82 36.67 29.57
  A 0.70 0.69 63.9 0 1 37.86 29.98
  Q 38.01 31.35 39.14 32.11
  Q 39.56 32.39 40.04 32.24
  L 43.15 31.30
  A 0.32 0.32 0.0 0 1 43.54 31.50
  L 43.64 31.80
  Q 43.70 31.98 43.54 32.08
  Q 41.33 33.55 40.26 35.92
  Q 40.04 36.41 39.57 36.16
  Q 36.52 34.60 34.61 37.59
  Q 34.36 37.98 34.51 38.41
  L 35.61 41.69
  Q 35.81 42.26 35.28 41.96
  L 34.90 41.74
  Q 34.81 41.69 34.76 41.60
  Q 32.97 38.50 29.54 39.58
  Q 28.84 39.80 28.48 39.64
  Q 28.11 39.47 28.00 39.08
  Q 27.87 38.58 28.23 38.20
  Q 29.74 36.60 31.34 35.08
  Q 31.99 34.46 32.59 34.47
  Q 33.01 34.48 33.44 34.80
  A 0.88 0.87 50.6 0 0 34.33 34.89
  Z"
/>
</svg>
