<?xml version="1.0" encoding="UTF-8" standalone="no"?>
<!DOCTYPE svg PUBLIC "-//W3C//DTD SVG 1.1//EN" "http://www.w3.org/Graphics/SVG/1.1/DTD/svg11.dtd">
<svg xmlns="http://www.w3.org/2000/svg" version="1.1" viewBox="0.00 0.00 46.00 46.00">
<path fill="#000000" d="
  M 24.81 3.66
  Q 24.98 3.76 25.17 3.76
  Q 25.61 3.78 25.42 4.18
  L 25.08 4.88
  A 0.43 0.42 -61.0 0 1 24.47 5.06
  Q 24.20 4.90 24.04 4.47
  Q 23.84 3.95 23.66 3.80
  Q 23.24 3.43 22.75 3.59
  Q 22.20 3.76 22.00 4.30
  L 21.80 4.81
  Q 21.49 5.62 21.04 4.87
  L 20.67 4.26
  Q 20.65 4.23 21.19 3.68
  Q 21.33 3.54 21.53 3.49
  A 0.51 0.51 0.0 0 0 21.92 3.10
  Q 22.07 2.34 22.73 2.02
  Q 23.30 1.73 23.71 2.23
  Q 23.99 2.57 24.07 3.00
  A 1.23 0.32 27.0 0 0 24.81 3.66
  Z"
/>
<path fill="#000000" d="
  M 19.30 23.40
  Q 18.74 22.66 18.75 21.99
  Q 18.82 16.78 18.84 11.48
  Q 18.84 10.90 18.27 10.83
  L 16.57 10.60
  Q 16.04 10.53 15.51 10.65
  L 14.30 10.93
  A 0.43 0.43 0.0 0 1 13.88 10.23
  Q 14.39 9.66 15.15 9.52
  Q 15.64 9.42 15.67 8.92
  Q 15.80 6.40 13.58 5.81
  A 0.65 0.65 0.0 0 0 12.98 6.92
  Q 13.59 7.45 13.76 8.21
  A 0.41 0.41 0.0 0 1 13.29 8.71
  C 9.77 8.02 10.84 4.06 13.78 3.98
  C 16.40 3.91 17.41 6.89 16.88 9.04
  Q 16.75 9.56 17.27 9.72
  Q 18.33 10.05 19.02 9.34
  Q 19.42 8.94 19.17 8.43
  Q 18.97 8.00 18.98 7.51
  A 0.26 0.25 42.5 0 1 19.49 7.49
  Q 19.57 8.14 19.41 8.75
  Q 19.16 9.71 20.14 9.80
  L 20.56 9.84
  Q 21.50 9.93 21.51 8.98
  L 21.52 6.43
  Q 21.52 6.42 21.53 6.42
  L 21.82 6.43
  Q 21.99 6.43 22.00 6.60
  Q 22.07 7.68 21.74 8.70
  Q 21.41 9.74 22.50 9.78
  L 23.42 9.82
  Q 24.19 9.85 24.26 9.08
  L 24.49 6.42
  Q 24.50 6.25 24.68 6.22
  L 24.92 6.17
  Q 24.99 6.16 24.98 6.26
  L 24.61 8.91
  Q 24.48 9.83 25.41 9.83
  L 25.97 9.83
  Q 26.84 9.84 26.62 9.00
  Q 26.36 8.07 26.61 7.66
  Q 27.14 6.77 27.07 7.82
  Q 26.92 9.93 28.48 9.93
  Q 29.34 9.94 29.12 9.10
  C 28.23 5.73 31.10 2.24 34.57 5.04
  A 1.70 1.69 47.0 0 1 34.48 7.75
  L 33.04 8.75
  A 0.52 0.52 0.0 0 1 32.24 8.19
  Q 32.47 7.31 33.22 6.75
  A 0.41 0.40 42.9 0 0 33.19 6.08
  L 32.91 5.90
  A 1.03 1.02 42.4 0 0 31.73 5.95
  Q 30.29 7.06 30.41 9.04
  A 0.59 0.59 0.0 0 0 31.02 9.60
  Q 31.74 9.58 31.85 9.78
  Q 32.85 11.44 30.97 10.79
  Q 29.39 10.25 27.67 10.89
  Q 27.22 11.06 27.22 11.53
  L 27.24 22.63
  Q 27.24 22.74 27.14 22.80
  L 26.84 22.96
  Q 26.65 23.07 26.65 22.85
  L 26.59 11.49
  Q 26.59 10.75 25.84 10.76
  L 25.41 10.76
  Q 24.67 10.77 24.67 11.51
  L 24.68 22.18
  Q 24.68 22.31 24.49 22.31
  L 24.48 22.31
  Q 24.27 22.31 24.27 22.25
  L 24.28 11.76
  Q 24.28 10.75 23.26 10.75
  L 22.83 10.76
  Q 21.92 10.76 21.93 11.67
  L 22.02 22.27
  Q 22.03 22.33 21.97 22.33
  L 21.72 22.32
  Q 21.57 22.31 21.57 22.00
  L 21.47 11.46
  Q 21.46 10.71 20.71 10.76
  L 20.01 10.80
  Q 19.39 10.84 19.39 11.46
  L 19.30 23.40
  Z"
/>
<path fill="#000000" d="
  M 19.30 23.40
  L 26.35 23.50
  Q 26.84 23.51 26.76 23.99
  Q 26.65 24.60 26.18 25.04
  A 0.26 0.26 0.0 0 0 26.49 25.45
  L 28.18 24.39
  A 1.09 1.08 33.6 0 1 28.94 24.24
  Q 33.21 25.00 33.60 29.23
  Q 33.69 30.18 34.51 29.69
  L 34.98 29.41
  Q 35.98 28.81 36.04 27.64
  C 36.32 22.74 32.25 20.51 30.52 16.52
  Q 29.51 14.22 29.58 11.88
  Q 29.63 10.27 30.54 11.59
  C 33.30 15.58 36.70 18.92 39.89 22.60
  Q 41.88 24.89 41.39 27.35
  Q 41.31 27.75 41.20 27.36
  L 40.26 23.79
  A 0.38 0.37 -13.0 0 0 39.82 23.52
  L 39.55 23.57
  Q 39.46 23.59 39.47 23.68
  C 39.57 24.56 40.12 25.39 40.23 26.13
  Q 41.05 31.71 35.68 33.30
  Q 35.20 33.44 34.75 33.23
  L 33.10 32.47
  A 1.17 1.16 -46.4 0 0 32.07 32.50
  L 31.20 32.96
  A 0.28 0.27 -52.0 0 0 31.26 33.47
  L 34.80 34.33
  Q 35.22 34.43 35.61 34.24
  C 38.40 32.90 39.82 33.04 41.25 29.95
  Q 41.65 29.08 41.66 30.04
  C 41.71 36.47 26.17 34.57 24.62 39.00
  Q 24.43 39.55 24.99 39.43
  Q 25.16 39.39 25.32 39.32
  Q 25.52 39.24 25.66 39.23
  Q 26.67 39.19 26.97 40.01
  Q 27.19 40.63 26.69 41.05
  L 23.48 43.70
  Q 23.03 44.08 22.57 43.70
  L 19.23 40.90
  A 0.76 0.75 -48.5 0 1 19.17 39.80
  Q 20.02 38.91 21.09 39.43
  Q 21.69 39.72 21.51 39.08
  Q 21.06 37.48 19.25 37.03
  C 15.20 36.03 9.78 35.27 6.24 33.01
  Q 3.77 31.43 4.64 28.78
  Q 4.80 28.30 4.68 27.81
  C 3.51 23.04 12.64 15.84 15.25 12.15
  Q 17.07 9.59 16.47 12.67
  Q 16.41 12.95 15.96 13.95
  Q 15.84 14.22 16.11 14.34
  Q 16.25 14.41 16.33 14.53
  Q 16.38 14.61 16.34 14.70
  C 14.37 19.19 10.43 22.31 9.94 27.07
  Q 9.81 28.40 10.87 29.20
  L 11.38 29.58
  Q 12.29 30.27 12.42 29.14
  Q 12.87 25.33 16.52 24.34
  Q 16.95 24.22 17.39 24.32
  Q 18.51 24.59 19.36 25.37
  A 0.31 0.30 1.2 0 0 19.80 24.95
  Q 19.07 24.10 19.30 23.40
  Z
  M 11.33 31.89
  C 3.42 28.45 12.41 18.36 15.45 14.89
  Q 15.45 14.88 15.45 14.87
  L 15.22 14.67
  Q 15.07 14.54 14.93 14.68
  C 10.91 18.86 2.79 29.33 11.25 32.66
  A 0.14 0.14 0.0 0 0 11.43 32.58
  L 11.52 32.34
  A 0.36 0.35 -68.4 0 0 11.33 31.89
  Z
  M 31.22 15.40
  C 33.61 18.26 41.46 27.74 36.11 31.10
  Q 35.41 31.54 34.60 32.02
  A 0.24 0.24 0.0 0 0 34.52 32.36
  L 34.68 32.63
  Q 34.82 32.84 35.04 32.72
  Q 40.38 29.78 37.85 24.49
  Q 35.82 20.23 31.80 15.10
  Q 31.65 14.90 31.45 15.05
  L 31.23 15.23
  Q 31.13 15.31 31.22 15.40
  Z
  M 12.42 33.87
  L 14.75 33.58
  Q 15.30 33.51 14.89 33.13
  L 14.51 32.77
  A 0.68 0.66 72.3 0 0 14.21 32.61
  Q 12.78 32.27 11.65 33.13
  Q 11.23 33.45 10.73 33.33
  Q 5.39 32.08 5.76 26.73
  C 5.84 25.57 6.59 24.32 7.02 23.18
  A 0.18 0.18 0.0 0 0 6.73 22.99
  Q 5.66 24.00 5.17 26.63
  C 4.11 32.35 6.56 32.38 10.44 34.25
  Q 10.79 34.42 11.07 34.38
  Q 11.38 34.34 11.66 34.16
  Q 12.00 33.92 12.42 33.87
  Z
  M 17.68 27.51
  L 17.35 28.16
  Q 17.08 28.72 17.70 28.70
  Q 18.42 28.67 18.72 28.42
  A 1.43 1.42 -57.2 0 0 18.19 25.96
  C 15.22 25.12 13.33 27.65 14.76 30.23
  Q 15.17 30.96 15.86 30.51
  L 16.13 30.33
  A 0.60 0.60 0.0 0 0 16.29 29.47
  Q 15.62 28.54 15.78 28.03
  Q 16.15 26.83 17.18 26.76
  A 0.52 0.52 0.0 0 1 17.68 27.51
  Z
  M 28.83 26.75
  Q 29.92 26.85 30.19 28.06
  Q 30.29 28.53 30.01 28.91
  Q 29.82 29.17 29.75 29.47
  Q 29.63 29.96 30.01 30.29
  Q 30.98 31.14 31.39 30.13
  Q 32.52 27.33 30.26 26.04
  A 1.71 1.70 45.8 0 0 28.61 26.01
  Q 25.22 27.81 28.23 28.73
  Q 29.05 28.98 28.67 28.22
  Q 28.43 27.75 28.39 27.18
  Q 28.35 26.70 28.83 26.75
  Z
  M 20.58 29.40
  Q 20.23 30.99 21.58 31.38
  Q 22.33 31.60 22.00 30.89
  L 21.26 29.32
  Q 20.81 28.35 20.58 29.40
  Z
  M 24.07 31.26
  A 0.19 0.19 0.0 0 0 24.30 31.44
  Q 25.85 31.12 25.49 29.42
  A 0.35 0.34 62.9 0 0 24.92 29.23
  Q 24.05 30.02 24.07 31.26
  Z
  M 16.06 31.25
  L 16.21 32.28
  Q 16.29 32.78 16.79 32.72
  Q 17.40 32.65 17.63 32.03
  A 0.63 0.63 0.0 0 0 17.28 31.23
  Q 16.79 31.03 16.28 31.01
  A 0.21 0.21 0.0 0 0 16.06 31.25
  Z
  M 29.98 31.51
  A 0.46 0.45 1.8 0 0 29.44 30.94
  Q 27.88 31.30 28.85 32.71
  A 0.45 0.45 0.0 0 0 29.65 32.59
  L 29.98 31.51
  Z
  M 20.39 32.05
  Q 20.50 31.67 20.43 31.28
  A 0.84 0.65 -56.2 0 0 19.02 31.75
  L 19.01 32.21
  A 0.65 0.65 0.0 0 0 19.81 32.86
  Q 20.44 32.72 20.38 32.31
  Q 20.36 32.18 20.39 32.05
  Z
  M 26.86 31.49
  A 0.28 0.28 0.0 0 0 26.71 31.24
  Q 26.18 30.94 25.84 31.23
  Q 25.57 31.46 25.62 31.88
  Q 25.69 32.58 26.29 32.77
  Q 26.84 32.95 27.04 33.48
  L 27.31 34.18
  A 0.31 0.31 0.0 0 0 27.88 34.20
  Q 28.24 33.45 27.50 33.00
  Q 26.87 32.63 26.86 31.49
  Z
  M 22.2543 36.4740
  A 1.97 0.65 67.8 0 0 22.1118 34.4044
  A 1.97 0.65 67.8 0 0 20.7657 32.8260
  A 1.97 0.65 67.8 0 0 20.9082 34.8956
  A 1.97 0.65 67.8 0 0 22.2543 36.4740
  Z
  M 23.69 35.55
  Q 23.45 35.81 23.39 36.16
  A 0.34 0.34 0.0 0 0 23.94 36.48
  Q 25.43 35.23 25.56 33.29
  A 0.38 0.38 0.0 0 0 24.99 32.94
  Q 23.76 33.64 23.83 35.16
  Q 23.84 35.38 23.69 35.55
  Z"
/>
</svg>
