<?xml version="1.0" encoding="UTF-8" standalone="no"?>
<!DOCTYPE svg PUBLIC "-//W3C//DTD SVG 1.1//EN" "http://www.w3.org/Graphics/SVG/1.1/DTD/svg11.dtd">
<svg xmlns="http://www.w3.org/2000/svg" version="1.1" viewBox="0.00 0.00 46.00 46.00">
<path fill="#000000" d="
  M 22.75 31.63
  Q 22.56 32.10 22.69 32.68
  A 0.45 0.45 0.0 0 1 22.26 33.22
  L 20.75 33.26
  Q 20.25 33.28 20.23 32.77
  Q 20.22 32.38 20.39 32.07
  Q 20.69 31.51 20.20 31.10
  L 15.28 27.03
  Q 14.92 26.74 14.89 26.28
  Q 14.85 25.63 15.09 24.98
  Q 15.28 24.49 15.11 24.00
  Q 14.85 23.20 14.01 23.09
  A 0.89 0.89 0.0 0 1 13.30 22.53
  Q 12.98 21.66 13.00 20.74
  Q 13.02 20.25 13.51 20.26
  L 14.26 20.28
  Q 15.01 20.30 15.30 19.60
  Q 16.50 16.67 19.12 14.86
  A 1.01 1.00 -17.6 0 0 19.55 14.04
  L 19.50 6.83
  Q 19.50 6.45 19.24 6.17
  Q 19.12 6.04 19.10 5.85
  Q 19.06 5.47 19.44 5.39
  Q 20.58 5.18 20.46 3.94
  A 0.61 0.61 0.0 0 1 21.08 3.27
  L 24.95 3.30
  A 0.65 0.65 0.0 0 1 25.60 4.00
  Q 25.51 5.23 26.81 5.48
  A 0.41 0.40 31.0 0 1 26.99 6.19
  Q 26.88 6.28 26.77 6.33
  Q 26.52 6.44 26.52 6.71
  L 26.47 13.86
  Q 26.46 14.38 26.85 14.74
  C 28.53 16.26 29.76 17.22 30.81 19.67
  A 0.98 0.97 -12.2 0 0 31.72 20.25
  L 32.27 20.24
  Q 32.93 20.23 32.97 20.89
  Q 33.01 21.70 32.73 22.48
  Q 32.54 23.01 31.99 23.12
  Q 31.34 23.25 31.05 23.79
  C 30.66 24.54 31.08 25.24 31.18 26.07
  A 1.06 1.05 67.1 0 1 30.81 26.99
  L 25.82 31.11
  Q 25.34 31.50 25.65 32.03
  Q 25.83 32.33 25.73 32.82
  A 0.56 0.55 7.0 0 1 25.15 33.27
  L 23.79 33.19
  Q 23.25 33.16 23.35 32.62
  Q 23.44 32.10 23.22 31.61
  Q 22.97 31.08 22.75 31.63
  Z
  M 24.89 4.36
  L 21.29 4.39
  A 0.25 0.24 3.9 0 0 21.04 4.60
  L 21.00 4.86
  A 0.25 0.25 0.0 0 0 21.26 5.14
  L 24.75 5.05
  Q 25.07 5.05 25.03 4.72
  L 25.00 4.46
  Q 24.99 4.36 24.89 4.36
  Z
  M 23.9857 6.5783
  A 0.34 0.34 0.0 0 0 23.6451 6.2389
  L 22.3851 6.2411
  A 0.34 0.34 0.0 0 0 22.0457 6.5817
  L 22.0543 11.5417
  A 0.34 0.34 0.0 0 0 22.3949 11.8811
  L 23.6549 11.8789
  A 0.34 0.34 0.0 0 0 23.9943 11.5383
  L 23.9857 6.5783
  Z
  M 22.9769 30.1798
  A 7.61 7.23 90.4 0 0 30.2598 22.6205
  A 7.61 7.23 90.4 0 0 23.0831 14.9602
  A 7.61 7.23 90.4 0 0 15.8002 22.5195
  A 7.61 7.23 90.4 0 0 22.9769 30.1798
  Z"
/>
<path fill="#000000" d="
  M 12.59 16.82
  L 6.51 15.25
  A 0.25 0.25 0.0 0 1 6.37 15.16
  L 4.94 13.18
  A 0.25 0.25 0.0 0 1 5.21 12.79
  L 14.43 15.55
  A 0.25 0.25 0.0 0 0 14.74 15.40
  L 14.98 14.71
  A 0.25 0.25 0.0 0 0 14.82 14.38
  L 3.97 11.08
  A 0.25 0.25 0.0 0 1 3.83 10.97
  L 1.13 6.63
  A 0.25 0.25 0.0 0 1 1.43 6.26
  L 18.25 12.13
  A 0.25 0.25 0.0 0 1 18.35 12.53
  L 12.87 18.73
  A 0.25 0.25 0.0 0 1 12.67 18.81
  L 8.05 18.52
  A 0.25 0.25 0.0 0 1 7.85 18.40
  L 7.06 17.17
  A 0.25 0.25 0.0 0 1 7.32 16.79
  L 12.30 17.76
  A 0.25 0.25 0.0 0 0 12.59 17.60
  L 12.76 17.15
  A 0.25 0.25 0.0 0 0 12.59 16.82
  Z"
/>
<path fill="#000000" d="
  M 33.27 17.22
  L 33.67 17.65
  A 0.26 0.26 0.0 0 0 33.91 17.73
  L 38.77 16.79
  A 0.26 0.26 0.0 0 1 39.03 17.18
  L 38.25 18.41
  A 0.26 0.26 0.0 0 1 38.05 18.53
  L 33.35 18.76
  A 0.26 0.26 0.0 0 1 33.15 18.68
  L 27.71 12.54
  A 0.26 0.26 0.0 0 1 27.82 12.12
  L 44.59 6.27
  A 0.26 0.26 0.0 0 1 44.90 6.66
  L 42.20 10.99
  A 0.26 0.26 0.0 0 1 42.06 11.10
  L 31.20 14.37
  A 0.26 0.26 0.0 0 0 31.05 14.76
  L 31.45 15.41
  A 0.26 0.26 0.0 0 0 31.74 15.52
  L 40.91 12.77
  A 0.26 0.26 0.0 0 1 41.19 13.17
  L 39.63 15.16
  A 0.26 0.26 0.0 0 1 39.49 15.25
  L 33.40 16.79
  A 0.26 0.26 0.0 0 0 33.27 17.22
  Z"
/>
<path fill="#000000" d="
  M 18.90 25.14
  L 17.30 24.68
  A 0.52 0.52 0.0 0 1 17.08 23.81
  L 18.10 22.78
  A 0.47 0.47 0.0 0 0 17.96 22.02
  L 17.54 21.83
  Q 17.00 21.59 17.05 21.00
  Q 17.07 20.70 17.33 20.50
  Q 17.50 20.36 17.90 20.34
  Q 18.40 20.32 18.84 20.13
  A 0.65 0.65 0.0 0 0 19.18 19.27
  Q 18.92 18.66 19.01 17.99
  A 0.70 0.69 7.1 0 1 19.76 17.41
  Q 20.43 17.47 20.94 17.86
  A 0.61 0.60 30.2 0 0 21.87 17.62
  L 22.33 16.54
  Q 22.45 16.24 22.77 16.24
  L 23.24 16.23
  Q 23.56 16.23 23.69 16.53
  L 24.13 17.62
  A 0.63 0.63 0.0 0 0 25.00 17.94
  L 25.51 17.67
  Q 27.28 16.75 26.96 18.73
  Q 26.93 18.93 26.86 19.34
  Q 26.76 19.90 27.29 20.10
  Q 27.72 20.27 28.20 20.26
  Q 28.70 20.25 28.83 20.73
  Q 29.14 21.80 27.90 22.10
  A 0.25 0.25 0.0 0 0 27.78 22.51
  L 28.88 23.77
  A 0.61 0.61 0.0 0 1 28.57 24.76
  L 27.22 25.08
  A 0.55 0.54 72.1 0 0 26.85 25.81
  Q 27.18 26.63 26.87 27.49
  A 0.49 0.48 22.8 0 1 26.20 27.76
  L 24.98 27.17
  Q 24.50 26.94 24.23 27.41
  Q 24.04 27.75 23.98 28.13
  Q 23.90 28.63 23.46 28.88
  Q 23.23 29.01 22.96 28.98
  Q 22.41 28.92 22.20 28.41
  L 21.86 27.54
  A 0.59 0.58 -22.3 0 0 21.08 27.22
  L 19.85 27.74
  Q 19.22 28.00 19.07 27.34
  Q 18.88 26.54 19.20 25.79
  A 0.48 0.47 -70.0 0 0 18.90 25.14
  Z
  M 26.17 22.58
  A 3.16 3.16 0.0 0 0 23.01 19.42
  A 3.16 3.16 0.0 0 0 19.85 22.58
  A 3.16 3.16 0.0 0 0 23.01 25.74
  A 3.16 3.16 0.0 0 0 26.17 22.58
  Z"
/>
<path fill="#000000" d="
  M 30.72 36.02
  L 26.95 42.70
  Q 26.73 43.10 26.48 42.71
  Q 26.16 42.22 25.59 42.42
  Q 25.08 42.59 25.04 43.13
  L 24.93 44.55
  Q 24.90 44.99 24.45 44.96
  L 24.04 44.94
  Q 23.62 44.91 23.72 44.51
  Q 23.94 43.55 23.57 42.68
  Q 23.35 42.15 23.59 41.64
  Q 24.43 39.82 23.44 38.14
  A 0.55 0.55 0.0 0 0 22.46 38.21
  Q 21.72 40.05 22.54 41.87
  Q 22.69 42.20 22.54 42.53
  Q 22.10 43.46 22.29 44.51
  Q 22.36 44.88 21.99 44.91
  L 21.52 44.94
  A 0.44 0.43 -1.9 0 1 21.06 44.52
  L 21.00 43.00
  Q 20.98 42.58 20.57 42.50
  Q 19.96 42.38 19.45 42.77
  Q 19.10 43.04 18.91 42.64
  L 16.62 37.91
  A 0.97 0.95 1.2 0 0 16.18 37.46
  Q 15.33 37.03 15.41 36.04
  Q 15.45 35.59 15.02 35.70
  L 14.72 35.78
  A 0.45 0.44 -9.5 0 0 14.37 36.26
  L 14.62 38.77
  A 0.42 0.42 0.0 0 1 13.88 39.07
  L 12.61 37.46
  A 0.88 0.88 0.0 0 0 11.63 37.18
  L 7.15 38.78
  A 1.36 1.35 -42.3 0 1 6.17 38.74
  L 5.40 38.41
  Q 4.58 38.05 5.38 37.66
  L 10.73 35.05
  A 0.91 0.89 -10.2 0 0 11.24 34.33
  Q 11.31 33.74 11.67 33.30
  A 0.70 0.70 0.0 0 1 12.75 33.30
  Q 14.07 34.94 16.17 34.26
  A 0.51 0.51 0.0 0 0 16.46 33.54
  L 16.20 33.05
  Q 15.98 32.63 15.52 32.77
  L 14.40 33.12
  A 0.81 0.80 63.4 0 1 13.51 32.82
  Q 12.83 31.86 11.86 31.21
  Q 11.41 30.90 11.70 30.44
  Q 11.87 30.18 12.05 29.96
  Q 12.22 29.73 12.23 29.51
  Q 12.26 29.01 11.90 28.67
  Q 11.52 28.31 11.05 28.55
  Q 10.56 28.80 10.00 28.81
  Q 9.22 28.82 9.66 28.18
  Q 10.11 27.54 10.26 26.78
  A 0.54 0.54 0.0 0 0 9.66 26.13
  L 8.53 26.27
  Q 8.13 26.32 8.05 25.94
  Q 8.02 25.78 8.10 25.60
  Q 8.16 25.49 8.32 25.39
  Q 9.47 24.69 8.96 23.64
  Q 8.74 23.17 8.24 23.28
  L 7.79 23.38
  A 0.42 0.41 11.9 0 1 7.36 22.73
  Q 8.76 20.83 10.78 19.69
  A 1.04 1.04 0.0 0 1 12.33 20.65
  Q 12.16 23.45 13.32 25.87
  Q 13.43 26.11 13.28 26.20
  L 13.05 26.32
  A 0.08 0.08 0.0 0 1 12.94 26.28
  L 11.10 21.58
  A 0.53 0.51 -4.0 0 0 10.72 21.26
  L 10.37 21.19
  Q 10.00 21.12 10.08 21.49
  Q 11.16 26.65 15.17 29.47
  C 16.12 30.13 17.45 30.38 18.56 30.94
  Q 19.02 31.18 18.94 31.69
  L 18.58 34.02
  Q 18.46 34.84 19.28 34.84
  L 26.64 34.83
  A 0.84 0.84 0.0 0 0 27.47 33.85
  L 27.11 31.71
  Q 27.00 31.10 27.57 30.86
  C 32.30 28.82 34.85 27.00 35.91 21.52
  Q 36.01 20.98 35.57 21.31
  L 34.69 21.95
  A 0.39 0.38 -15.7 0 0 34.54 22.21
  Q 34.31 24.16 33.16 25.73
  Q 32.61 26.49 32.83 25.64
  Q 32.90 25.38 33.09 25.17
  Q 33.35 24.90 33.39 24.53
  L 33.76 20.69
  A 1.13 1.13 0.0 0 1 35.43 19.82
  Q 37.37 20.91 38.69 22.73
  Q 39.04 23.21 38.45 23.27
  L 37.46 23.38
  A 0.79 0.78 59.7 0 0 37.09 24.80
  Q 37.57 25.15 37.90 25.65
  A 0.39 0.39 0.0 0 1 37.53 26.26
  L 36.28 26.12
  A 0.62 0.62 0.0 0 0 35.72 27.11
  Q 36.52 28.14 36.45 28.53
  Q 36.33 29.24 35.73 28.84
  Q 34.63 28.11 33.84 29.00
  A 0.64 0.64 0.0 0 0 33.90 29.90
  Q 34.14 30.11 34.30 30.38
  Q 34.53 30.77 34.20 31.09
  L 32.32 32.92
  Q 32.00 33.24 31.56 33.10
  L 30.47 32.75
  A 0.56 0.56 0.0 0 0 29.78 33.05
  L 29.55 33.54
  Q 29.31 34.06 29.85 34.22
  Q 31.00 34.57 32.15 34.33
  Q 32.61 34.23 32.84 33.82
  Q 33.21 33.18 34.00 33.22
  A 0.73 0.72 84.8 0 1 34.68 33.79
  Q 34.95 34.93 35.53 35.20
  Q 38.30 36.50 40.68 37.68
  Q 41.37 38.02 40.68 38.37
  L 40.11 38.67
  Q 39.27 39.10 38.41 38.68
  Q 36.86 37.92 34.76 37.27
  Q 33.56 36.90 32.47 38.60
  Q 32.10 39.17 31.53 38.80
  Q 31.21 38.58 31.59 37.53
  Q 31.91 36.64 31.42 35.98
  Q 31.03 35.47 30.72 36.02
  Z
  M 27.6212 36.5126
  A 0.26 0.26 0.0 0 0 27.3630 36.2508
  L 18.5432 36.1892
  A 0.26 0.26 0.0 0 0 18.2814 36.4474
  L 18.2788 36.8274
  A 0.26 0.26 0.0 0 0 18.5370 37.0892
  L 27.3568 37.1508
  A 0.26 0.26 0.0 0 0 27.6186 36.8926
  L 27.6212 36.5126
  Z
  M 20.4758 41.6889
  A 1.12 0.90 62.0 0 0 20.7447 40.2775
  A 1.12 0.90 62.0 0 0 19.4242 39.7111
  A 1.12 0.90 62.0 0 0 19.1553 41.1225
  A 1.12 0.90 62.0 0 0 20.4758 41.6889
  Z
  M 25.5504 41.6974
  A 1.13 0.90 119.1 0 0 26.8864 41.1477
  A 1.13 0.90 119.1 0 0 26.6496 39.7226
  A 1.13 0.90 119.1 0 0 25.3136 40.2723
  A 1.13 0.90 119.1 0 0 25.5504 41.6974
  Z"
/>
<circle fill="#000000" cx="23.03" cy="22.57" r="1.42"/>
</svg>
