<?xml version="1.0" encoding="UTF-8" standalone="no"?>
<!DOCTYPE svg PUBLIC "-//W3C//DTD SVG 1.1//EN" "http://www.w3.org/Graphics/SVG/1.1/DTD/svg11.dtd">
<svg xmlns="http://www.w3.org/2000/svg" version="1.1" viewBox="0.00 0.00 46.00 46.00">
<path fill="#000000" d="
  M 9.69 16.72
  L 11.69 12.53
  A 0.82 0.80 -88.6 0 1 12.09 12.14
  Q 12.54 11.95 12.73 11.53
  Q 12.95 11.05 12.42 10.93
  Q 11.70 10.78 11.36 11.37
  Q 9.50 14.63 8.51 16.09
  Q 8.23 16.50 8.66 16.76
  Q 9.10 17.03 9.69 16.72
  L 9.77 20.28
  Q 9.78 20.74 9.62 21.18
  Q 9.24 22.21 10.03 22.96
  Q 10.47 23.36 10.44 22.77
  Q 10.02 13.44 18.66 9.91
  Q 18.94 9.80 19.08 9.53
  L 19.26 9.19
  Q 19.43 8.88 19.79 8.82
  Q 19.95 8.80 20.09 8.86
  A 0.35 0.35 0.0 0 1 20.20 9.42
  L 19.92 9.71
  Q 19.45 10.21 20.11 10.00
  C 28.29 7.44 36.97 13.91 35.96 22.65
  Q 35.79 24.21 35.64 25.70
  L 33.82 28.75
  Q 32.89 30.32 32.72 28.51
  Q 32.67 28.02 33.47 27.31
  Q 33.93 26.91 33.56 26.42
  Q 32.03 24.37 29.88 23.02
  A 1.06 1.05 -69.5 0 1 29.40 21.96
  L 29.58 20.72
  Q 29.67 20.15 29.17 19.83
  L 25.56 17.54
  A 0.40 0.40 0.0 0 1 25.69 16.82
  Q 27.44 16.46 28.47 15.12
  A 0.69 0.69 0.0 0 0 27.84 14.02
  Q 25.67 14.29 24.88 16.27
  A 0.25 0.23 -79.2 0 1 24.68 16.42
  L 23.76 16.50
  A 0.25 0.24 67.7 0 0 23.60 16.90
  Q 25.19 18.79 27.48 19.60
  A 1.82 1.81 -80.6 0 1 28.69 21.30
  L 28.71 31.70
  A 0.75 0.73 72.3 0 1 28.41 32.30
  L 25.91 34.24
  Q 25.45 34.59 25.20 35.12
  Q 24.52 36.54 23.08 37.20
  Q 22.58 37.42 22.28 37.87
  Q 20.97 39.83 18.80 38.51
  A 0.73 0.72 -75.7 0 1 18.46 37.93
  L 18.34 34.24
  Q 18.33 33.69 17.83 33.46
  L 15.88 32.56
  Q 15.41 32.35 15.41 31.83
  Q 15.41 31.42 15.62 31.09
  Q 15.91 30.65 15.49 30.33
  Q 14.03 29.22 13.06 27.62
  Q 12.76 27.11 13.15 26.67
  Q 14.36 25.31 15.97 24.46
  A 0.59 0.59 0.0 0 1 16.80 24.78
  L 16.95 25.21
  Q 17.21 25.94 16.53 26.30
  Q 15.94 26.61 15.51 27.11
  Q 15.15 27.54 15.36 28.05
  L 15.85 29.23
  Q 16.34 30.40 16.40 29.14
  Q 16.52 26.76 18.26 27.00
  Q 18.89 28.17 18.59 29.17
  Q 18.44 29.71 17.91 29.91
  Q 17.11 30.23 16.48 30.82
  Q 16.08 31.20 16.30 31.69
  L 16.49 32.11
  Q 16.76 32.70 17.24 32.26
  C 18.60 31.03 20.71 28.21 18.26 27.00
  L 17.99 21.02
  Q 17.97 20.57 18.32 20.29
  Q 19.17 19.61 20.16 19.26
  A 0.29 0.29 0.0 0 0 19.99 18.71
  Q 19.16 18.95 18.36 18.72
  A 1.08 1.07 -2.1 0 1 17.66 18.08
  Q 16.02 13.91 19.45 11.19
  Q 19.77 10.94 19.52 10.62
  L 19.33 10.38
  Q 19.13 10.14 18.90 10.34
  C 15.43 13.31 12.48 15.11 12.50 20.32
  Q 12.50 20.89 13.05 21.05
  Q 13.37 21.14 13.68 21.09
  Q 14.16 21.00 14.11 21.48
  C 13.95 23.17 12.67 24.15 11.03 23.63
  Q 10.52 23.47 10.57 24.00
  L 10.64 24.67
  Q 10.80 26.36 11.91 25.07
  Q 13.56 23.16 16.14 22.65
  A 0.34 0.34 0.0 0 1 16.54 22.92
  L 16.64 23.44
  Q 16.67 23.66 16.46 23.70
  Q 13.72 24.13 12.25 26.37
  Q 11.94 26.85 12.15 27.38
  Q 12.86 29.12 14.44 30.07
  Q 14.79 30.28 14.44 30.50
  L 13.94 30.82
  Q 13.77 30.93 13.62 30.78
  Q 10.85 28.10 9.18 24.62
  A 0.25 0.25 0.0 0 0 8.84 24.50
  L 8.52 24.66
  Q 8.32 24.76 8.41 24.97
  C 9.46 27.16 10.41 29.32 12.37 30.86
  C 13.70 31.89 14.68 33.27 16.49 33.84
  A 0.71 0.70 14.2 0 1 16.97 34.63
  L 16.89 35.05
  A 0.31 0.31 0.0 0 1 16.46 35.28
  Q 10.19 32.51 7.47 26.25
  Q 7.25 25.74 6.81 25.40
  Q 4.64 23.76 3.46 21.28
  Q 3.28 20.90 3.46 20.52
  C 4.72 17.79 6.87 16.46 8.26 13.86
  Q 11.47 7.90 18.11 5.69
  Q 18.62 5.52 18.94 5.09
  Q 20.65 2.71 23.36 1.57
  Q 23.79 1.38 24.22 1.56
  Q 26.99 2.72 28.51 5.22
  A 1.42 1.41 84.2 0 0 29.24 5.82
  Q 36.50 8.43 39.51 15.53
  A 1.52 1.48 5.3 0 0 40.08 16.20
  Q 42.48 17.73 43.61 20.38
  Q 43.83 20.89 43.56 21.38
  Q 42.88 22.61 41.99 23.74
  C 41.12 24.83 39.91 24.91 39.14 26.38
  A 0.36 0.36 0.0 0 1 38.54 26.43
  L 38.36 26.20
  A 0.48 0.48 0.0 0 1 38.44 25.53
  Q 38.92 25.14 38.68 24.51
  A 0.34 0.34 0.0 0 0 38.24 24.33
  L 38.00 24.43
  Q 37.58 24.61 37.64 24.15
  Q 38.38 18.80 35.46 14.36
  C 34.53 12.95 32.95 12.13 31.86 10.58
  A 1.02 1.02 0.0 0 0 31.00 10.14
  Q 30.40 10.14 30.10 9.57
  A 0.85 0.85 0.0 0 0 29.20 9.13
  Q 28.54 9.25 27.94 8.96
  Q 27.38 8.70 27.96 8.48
  Q 28.73 8.19 29.72 8.68
  Q 31.53 9.59 33.45 10.51
  A 0.30 0.30 0.0 0 0 33.87 10.28
  L 33.94 9.81
  A 0.44 0.43 -72.7 0 0 33.70 9.35
  L 28.43 6.82
  Q 27.98 6.60 27.60 6.93
  Q 27.39 7.11 27.41 7.33
  Q 27.45 7.83 26.96 7.92
  C 24.26 8.38 21.69 9.48 19.54 7.01
  Q 19.17 6.59 18.67 6.83
  L 13.83 9.08
  Q 12.81 9.56 13.88 9.90
  Q 15.08 10.28 15.81 9.33
  Q 16.17 8.87 16.74 8.77
  Q 17.81 8.59 18.75 7.99
  Q 18.85 7.93 18.91 8.04
  L 19.05 8.36
  Q 19.19 8.67 18.86 8.74
  Q 17.05 9.11 15.55 10.15
  Q 15.09 10.47 14.83 10.97
  Q 14.31 11.96 13.20 12.34
  Q 12.69 12.51 12.39 12.95
  Q 11.20 14.66 10.27 16.51
  Q 10.15 16.75 9.69 16.72
  Z
  M 23.87 5.39
  Q 23.04 5.23 22.43 6.15
  A 0.53 0.52 -72.5 0 0 22.85 6.97
  L 24.40 7.02
  Q 24.92 7.03 24.90 6.51
  Q 24.86 5.59 23.87 5.39
  Z
  M 34.59 11.70
  L 37.78 17.33
  A 0.13 0.13 0.0 0 0 37.96 17.38
  L 37.98 17.37
  A 1.27 1.16 60.5 0 0 38.37 15.69
  L 36.30 12.04
  A 1.27 1.16 60.5 0 0 34.67 11.50
  L 34.64 11.52
  A 0.13 0.13 0.0 0 0 34.59 11.70
  Z
  M 23.83 13.23
  Q 23.40 12.61 22.77 12.24
  A 0.58 0.57 15.6 0 0 21.91 12.72
  Q 21.85 14.68 23.53 15.59
  Q 23.85 15.76 24.16 15.58
  Q 25.42 14.86 26.35 13.77
  Q 26.91 13.12 26.40 12.44
  L 26.25 12.24
  A 0.37 0.36 52.1 0 0 25.73 12.17
  Q 25.15 12.61 24.74 13.22
  A 0.55 0.55 0.0 0 1 23.83 13.23
  Z
  M 21.55 16.92
  Q 21.19 17.11 21.14 17.16
  Q 19.59 18.48 21.61 18.29
  Q 22.60 18.20 23.00 16.97
  Q 23.14 16.56 22.98 16.16
  Q 22.30 14.48 20.56 14.24
  A 0.80 0.79 -6.1 0 0 19.70 15.30
  Q 20.17 16.53 21.48 16.62
  Q 22.05 16.65 21.55 16.92
  Z
  M 27.40 31.11
  C 27.45 28.95 27.10 23.95 28.14 22.26
  Q 28.40 21.85 28.00 21.56
  L 23.94 18.63
  A 0.79 0.78 44.6 0 0 23.01 18.63
  L 19.72 21.11
  Q 19.34 21.40 19.27 21.87
  Q 18.74 25.45 20.54 28.41
  A 0.87 0.86 -48.8 0 1 20.59 29.22
  Q 18.83 32.94 20.08 36.98
  Q 20.21 37.39 20.64 37.40
  C 23.69 37.49 25.21 33.54 27.03 31.92
  Q 27.39 31.60 27.40 31.11
  Z
  M 8.20 19.55
  Q 7.08 19.56 6.95 20.54
  A 1.02 1.02 0.0 0 0 8.34 21.63
  Q 10.21 20.87 8.99 19.84
  A 1.27 1.21 63.7 0 0 8.20 19.55
  Z
  M 38.05 20.33
  Q 38.04 21.75 39.32 21.79
  A 1.07 1.06 -37.2 0 0 39.61 19.69
  Q 39.10 19.57 38.65 19.63
  A 0.71 0.70 85.8 0 0 38.05 20.33
  Z"
/>
<path fill="#000000" d="
  M 22.70 27.51
  L 22.06 27.49
  Q 21.51 27.48 21.28 26.98
  Q 19.31 22.80 23.24 20.39
  A 1.90 1.90 0.0 0 1 26.02 22.67
  L 25.30 24.58
  Q 25.13 25.04 25.13 25.52
  C 25.14 27.77 24.23 28.03 23.52 29.85
  Q 23.30 30.42 23.82 30.74
  Q 23.98 30.84 24.06 31.03
  A 0.11 0.11 0.0 0 1 23.92 31.18
  Q 23.24 30.94 22.81 30.32
  Q 22.53 29.90 22.74 29.44
  Q 23.07 28.76 23.13 28.00
  Q 23.18 27.52 22.70 27.51
  Z
  M 22.19 23.18
  L 21.24 23.73
  A 0.32 0.31 -64.1 0 0 21.44 24.32
  Q 22.82 24.10 23.75 23.52
  Q 24.38 23.13 24.36 22.49
  Q 24.34 21.91 23.76 21.96
  Q 23.21 22.00 22.91 22.49
  Q 22.64 22.93 22.19 23.18
  Z
  M 22.77 25.25
  Q 22.27 24.92 22.27 25.52
  Q 22.26 26.33 23.31 27.16
  Q 23.93 27.65 23.81 26.86
  Q 23.66 25.83 22.77 25.25
  Z"
/>
<ellipse fill="#000000" cx="0.00" cy="0.00" transform="translate(30.38,25.08) rotate(46.5)" rx="1.08" ry="0.43"/>
<path fill="#000000" d="
  M 22.13 46.00
  L 18.93 46.00
  C 18.44 43.20 19.24 40.96 21.65 39.29
  C 23.40 38.08 24.53 37.22 25.64 35.36
  Q 26.41 34.08 27.06 34.04
  A 3.10 2.62 87.0 0 0 29.51 30.81
  L 29.32 27.03
  Q 29.29 26.46 29.85 26.53
  Q 30.78 26.64 31.74 26.22
  A 0.41 0.41 0.0 0 1 32.28 26.75
  Q 31.95 27.54 31.26 28.06
  A 0.79 0.77 65.2 0 0 30.98 28.85
  Q 31.19 29.73 32.27 29.82
  A 0.43 0.42 21.7 0 1 32.57 30.51
  Q 32.08 31.11 31.44 31.49
  A 1.17 1.17 0.0 0 0 31.23 33.33
  L 32.82 34.89
  A 0.34 0.34 0.0 0 0 33.39 34.62
  Q 33.33 33.77 32.48 33.37
  A 1.24 1.24 0.0 0 1 32.30 31.23
  L 35.75 28.83
  Q 36.29 28.45 36.71 28.97
  L 37.13 29.48
  Q 37.52 29.97 37.56 29.35
  C 37.60 28.89 35.87 27.03 35.64 25.70
  Q 36.17 25.59 36.55 25.65
  Q 36.92 25.70 37.21 26.16
  C 38.42 28.03 39.54 30.52 37.88 32.18
  Q 37.58 32.47 37.22 32.69
  Q 35.58 33.65 35.20 32.97
  A 0.37 0.37 0.0 0 0 34.58 32.93
  Q 34.39 33.19 34.49 33.56
  A 0.77 0.74 49.7 0 1 34.46 34.08
  Q 33.47 36.34 31.23 37.39
  Q 26.70 39.51 22.47 42.39
  A 0.75 0.74 -32.9 0 0 22.25 43.38
  Q 23.46 45.41 22.13 46.00
  Z
  M 36.66 31.41
  Q 36.12 31.74 36.09 32.21
  Q 36.07 32.70 36.52 32.52
  Q 37.36 32.17 37.38 31.26
  A 0.26 0.26 0.0 0 0 37.00 31.02
  Q 36.75 31.16 36.66 31.41
  Z
  M 31.27 36.58
  Q 32.03 36.54 32.16 35.82
  Q 32.29 35.02 31.59 35.43
  C 27.62 37.74 22.50 38.98 20.34 43.64
  Q 20.17 44.01 20.51 44.24
  L 20.75 44.40
  Q 21.27 44.76 21.33 44.13
  C 21.68 40.35 27.62 38.35 30.55 36.79
  Q 30.89 36.61 31.27 36.58
  Z"
/>
</svg>
