<?xml version="1.0" encoding="UTF-8" standalone="no"?>
<!DOCTYPE svg PUBLIC "-//W3C//DTD SVG 1.1//EN" "http://www.w3.org/Graphics/SVG/1.1/DTD/svg11.dtd">
<svg xmlns="http://www.w3.org/2000/svg" version="1.1" viewBox="0.00 0.00 46.00 46.00">
<path fill="#000000" d="
  M 21.27 22.70
  Q 20.82 20.52 19.00 19.18
  A 1.24 1.07 -66.0 0 0 17.26 20.00
  Q 17.17 20.33 16.76 20.40
  A 0.51 0.50 -15.8 0 1 16.19 20.09
  Q 15.65 18.71 16.94 18.10
  A 0.93 0.91 -15.8 0 0 17.46 17.19
  Q 17.40 16.41 17.68 15.70
  Q 18.18 14.40 19.22 15.33
  Q 19.69 15.74 20.23 15.92
  Q 20.69 16.07 21.05 15.76
  Q 23.65 13.59 21.60 11.26
  Q 21.18 10.79 21.72 10.46
  L 22.14 10.20
  Q 22.59 9.92 22.69 9.38
  Q 23.08 7.11 22.19 5.05
  Q 22.00 4.62 22.19 4.18
  Q 22.60 3.24 23.30 2.51
  Q 23.69 2.10 24.06 2.53
  C 26.42 5.35 22.68 7.51 25.39 10.64
  Q 25.70 10.99 25.42 11.36
  Q 23.66 13.70 26.04 15.74
  Q 26.83 16.41 28.39 14.76
  Q 28.71 14.42 29.04 14.75
  Q 29.95 15.65 29.72 16.94
  A 0.88 0.87 -67.3 0 0 30.07 17.81
  Q 31.16 18.61 31.09 19.95
  Q 31.04 20.82 30.41 20.21
  L 29.35 19.20
  Q 28.94 18.81 28.45 19.08
  Q 26.51 20.15 26.04 22.05
  Q 25.66 23.58 27.35 23.75
  Q 27.95 23.82 27.69 24.36
  C 25.67 28.62 24.33 32.99 26.54 37.47
  A 1.10 1.08 -47.4 0 1 26.57 38.35
  L 24.12 44.63
  A 0.55 0.55 0.0 0 1 23.10 44.63
  L 20.77 38.85
  A 2.35 2.34 -39.7 0 1 20.97 36.73
  C 23.02 33.53 21.19 28.09 19.47 24.32
  Q 19.27 23.88 19.74 23.77
  L 20.74 23.54
  A 0.71 0.71 0.0 0 0 21.27 22.70
  Z
  M 22.33 17.33
  C 23.45 20.60 23.32 24.62 23.26 28.03
  A 0.48 0.48 0.0 0 0 23.74 28.52
  L 24.00 28.52
  Q 24.26 28.51 24.25 28.26
  C 24.10 24.69 23.99 21.24 24.77 17.73
  Q 25.11 16.17 23.79 14.97
  Q 23.41 14.62 23.16 15.08
  L 22.40 16.46
  Q 22.17 16.88 22.33 17.33
  Z"
/>
<path fill="#000000" d="
  M 12.82 14.29
  Q 12.81 14.13 12.78 13.97
  Q 12.60 12.72 13.59 13.50
  Q 14.74 14.41 15.54 13.45
  A 1.27 1.26 -75.7 0 0 14.33 11.40
  Q 12.37 11.78 10.53 11.07
  Q 9.92 10.84 10.54 10.62
  C 12.79 9.81 15.12 10.11 15.73 7.00
  Q 15.82 6.56 15.55 6.20
  Q 15.07 5.56 14.36 5.11
  A 0.31 0.31 0.0 0 1 14.52 4.54
  C 15.67 4.52 17.12 5.48 17.85 6.21
  C 19.18 7.54 17.75 9.38 17.53 10.94
  A 1.69 1.67 35.5 0 0 17.70 11.93
  Q 17.96 12.42 18.00 12.97
  Q 18.05 13.51 17.58 13.79
  Q 16.80 14.25 16.26 14.96
  A 1.41 1.36 -29.7 0 0 15.99 15.89
  Q 16.05 16.65 15.79 17.35
  Q 15.47 18.22 14.78 17.59
  L 13.69 16.61
  A 0.76 0.76 0.0 0 0 12.93 16.44
  Q 12.31 16.63 11.75 16.31
  Q 11.30 16.06 11.74 15.79
  Q 12.25 15.47 12.63 14.99
  Q 12.87 14.68 12.82 14.29
  Z"
/>
<path fill="#000000" d="
  M 31.45 7.03
  C 32.05 10.12 34.35 9.78 36.52 10.59
  Q 37.20 10.84 36.52 11.09
  Q 34.71 11.78 32.76 11.44
  A 1.04 1.02 29.4 0 0 31.90 11.67
  Q 31.28 12.19 31.66 13.19
  Q 32.05 14.24 33.94 13.38
  Q 34.52 13.11 34.40 13.74
  Q 34.11 15.17 35.51 15.84
  Q 36.05 16.11 35.48 16.31
  Q 34.72 16.59 33.91 16.47
  Q 33.38 16.38 33.07 16.83
  L 32.69 17.39
  Q 32.35 17.88 31.79 17.67
  Q 31.44 17.53 31.23 17.21
  Q 31.09 16.99 31.09 16.54
  Q 31.10 14.64 29.49 13.61
  Q 29.00 13.31 29.20 12.76
  Q 30.03 10.53 28.83 8.43
  A 1.51 1.50 49.4 0 1 28.95 6.76
  Q 30.31 5.02 32.48 4.47
  Q 32.72 4.41 32.90 4.54
  Q 33.31 4.83 32.87 5.07
  Q 32.04 5.52 31.57 6.33
  A 1.03 1.01 -35.8 0 0 31.45 7.03
  Z"
/>
<path fill="#000000" d="
  M 11.51 25.35
  Q 13.18 25.44 12.60 27.16
  A 0.79 0.79 0.0 0 0 12.83 28.01
  Q 13.74 28.82 15.01 28.54
  A 0.87 0.87 0.0 0 0 15.68 27.73
  Q 15.75 25.97 17.21 24.93
  A 0.45 0.45 0.0 0 1 17.92 25.27
  Q 18.04 27.13 19.01 28.71
  A 0.46 0.46 0.0 0 1 18.69 29.41
  Q 18.16 29.50 17.98 29.99
  A 0.75 0.73 -60.9 0 0 18.21 30.83
  C 18.99 31.43 19.73 31.79 20.01 32.79
  Q 20.72 35.33 18.81 36.97
  Q 18.35 37.37 18.49 36.78
  Q 18.60 36.30 18.78 35.88
  C 19.62 33.92 18.03 32.02 16.22 32.03
  Q 11.60 32.05 9.04 31.01
  A 0.46 0.46 0.0 0 1 8.76 30.50
  Q 8.78 30.36 8.81 30.23
  Q 8.85 30.01 9.06 30.00
  Q 9.95 29.95 10.33 29.32
  Q 10.60 28.87 10.41 28.19
  Q 10.09 27.13 9.37 26.45
  A 1.49 1.49 0.0 0 1 9.17 24.51
  Q 10.75 22.22 10.70 19.48
  Q 10.68 18.50 11.23 19.31
  Q 12.93 21.80 10.98 24.13
  A 0.75 0.74 -68.7 0 0 11.51 25.35
  Z"
/>
<path fill="#000000" d="
  M 35.10 25.49
  Q 36.02 25.11 35.74 24.15
  Q 34.77 20.77 35.69 19.40
  A 0.40 0.40 0.0 0 1 36.42 19.61
  C 36.51 22.40 39.12 24.80 37.39 27.05
  A 0.17 0.02 -52.0 0 0 37.36 27.10
  Q 35.95 29.03 37.51 29.91
  Q 38.83 30.65 37.45 31.29
  Q 35.33 32.27 32.44 32.15
  C 29.25 32.01 27.09 33.11 28.73 36.73
  Q 28.95 37.22 28.48 36.97
  C 26.47 35.87 26.43 32.74 28.15 31.44
  Q 29.01 30.79 29.09 30.38
  Q 29.22 29.71 28.46 29.34
  A 0.57 0.57 0.0 0 1 28.25 28.51
  Q 29.10 27.31 29.09 25.82
  Q 29.08 23.67 30.46 25.31
  Q 31.34 26.35 31.50 27.73
  A 0.82 0.80 -76.0 0 0 31.84 28.31
  C 33.25 29.32 35.14 28.00 34.45 26.30
  Q 34.26 25.84 34.72 25.65
  L 35.10 25.49
  Z"
/>
</svg>
