<?xml version="1.0" encoding="UTF-8" standalone="no"?>
<!DOCTYPE svg PUBLIC "-//W3C//DTD SVG 1.1//EN" "http://www.w3.org/Graphics/SVG/1.1/DTD/svg11.dtd">
<svg xmlns="http://www.w3.org/2000/svg" version="1.1" viewBox="0.00 0.00 46.00 46.00">
<path fill="#000000" fill-opacity="0.996" d="
  M 30.13 41.94
  L 15.98 41.93
  A 1.34 1.34 0.0 0 1 15.05 41.56
  L 5.50 32.40
  A 1.34 1.34 0.0 0 1 5.09 31.43
  L 5.13 15.62
  A 1.34 1.34 0.0 0 1 5.54 14.66
  L 15.15 5.44
  A 1.34 1.34 0.0 0 1 16.08 5.07
  L 30.03 5.06
  A 1.34 1.34 0.0 0 1 30.96 5.43
  L 40.54 14.63
  A 1.34 1.34 0.0 0 1 40.95 15.60
  L 40.95 31.47
  A 1.34 1.34 0.0 0 1 40.54 32.44
  L 31.06 41.56
  A 1.34 1.34 0.0 0 1 30.13 41.94
  Z
  M 17.28 39.21
  Q 17.26 39.53 17.51 39.75
  Q 17.73 39.94 18.02 39.94
  Q 22.79 40.06 27.22 39.89
  A 6.63 6.58 21.8 0 0 31.52 38.07
  L 38.25 31.62
  Q 38.62 31.26 38.29 30.86
  L 38.11 30.64
  A 0.52 0.51 47.6 0 0 37.36 30.60
  L 34.29 33.54
  Q 34.13 33.70 33.98 33.52
  L 33.79 33.29
  A 0.21 0.21 0.0 0 1 33.80 33.00
  L 36.73 30.08
  Q 37.08 29.74 37.07 29.25
  L 36.99 25.52
  Q 36.99 25.34 37.16 25.35
  L 37.42 25.36
  Q 37.62 25.37 37.63 25.57
  L 37.87 29.72
  Q 37.88 29.96 38.13 29.94
  L 38.50 29.91
  A 0.50 0.49 88.2 0 0 38.96 29.41
  L 39.02 17.70
  Q 39.02 17.37 38.70 17.45
  L 38.30 17.53
  A 0.69 0.68 84.1 0 0 37.77 18.19
  L 37.69 21.84
  Q 37.68 22.08 37.44 22.10
  L 37.14 22.13
  Q 36.81 22.15 36.81 21.82
  L 36.80 17.72
  Q 36.80 17.13 36.39 16.73
  L 33.74 14.15
  A 0.32 0.32 0.0 0 1 33.76 13.67
  L 33.98 13.48
  Q 34.15 13.34 34.30 13.49
  L 37.21 16.33
  A 0.62 0.62 0.0 0 0 38.09 16.31
  L 38.32 16.07
  Q 38.60 15.79 38.31 15.51
  L 31.55 9.05
  A 7.10 7.03 -21.0 0 0 27.13 7.11
  Q 22.61 6.83 17.84 7.13
  Q 17.50 7.15 17.47 7.50
  L 17.44 7.78
  A 0.34 0.33 4.8 0 0 17.76 8.15
  L 21.77 8.35
  A 0.21 0.20 0.1 0 1 21.97 8.54
  L 21.99 8.80
  Q 22.00 8.84 21.96 8.84
  L 18.27 8.92
  A 1.42 1.41 -67.2 0 0 17.32 9.31
  L 14.16 12.34
  Q 14.04 12.45 13.93 12.34
  L 13.69 12.11
  Q 13.55 11.97 13.69 11.82
  L 17.06 8.33
  Q 17.33 8.04 16.98 7.86
  L 16.70 7.72
  A 0.78 0.77 -52.9 0 0 15.79 7.85
  L 7.75 15.56
  Q 7.53 15.78 7.68 16.06
  L 7.86 16.35
  Q 8.20 16.96 8.72 16.48
  L 11.95 13.44
  Q 12.01 13.37 12.08 13.43
  L 12.31 13.62
  A 0.32 0.32 0.0 0 1 12.34 14.09
  L 9.44 17.08
  A 0.99 0.98 -23.5 0 0 9.15 17.80
  L 9.22 21.86
  Q 9.23 22.20 8.89 22.17
  L 8.60 22.14
  Q 8.46 22.12 8.45 21.98
  L 8.36 17.98
  A 0.53 0.53 0.0 0 0 7.82 17.46
  L 7.47 17.46
  A 0.29 0.28 -1.1 0 0 7.19 17.74
  Q 7.10 22.78 7.16 27.74
  Q 7.22 32.31 8.50 27.99
  Q 8.60 27.65 8.30 25.57
  Q 8.27 25.36 8.49 25.35
  L 8.79 25.33
  A 0.43 0.42 89.4 0 1 9.23 25.77
  L 9.17 29.16
  Q 9.15 29.80 9.62 30.25
  L 12.36 32.95
  Q 12.53 33.11 12.35 33.26
  L 12.06 33.53
  Q 11.91 33.66 11.77 33.52
  L 8.60 30.50
  A 0.39 0.38 42.4 0 0 8.05 30.52
  L 7.81 30.80
  Q 7.44 31.21 7.84 31.59
  L 15.46 38.91
  Q 15.84 39.28 16.37 39.25
  L 17.28 39.21
  Z"
/>
<path fill="#000000" fill-opacity="0.996" d="
  M 24.45 8.14
  C 25.49 8.37 27.40 8.59 28.36 8.15
  A 0.53 0.52 55.1 0 1 28.95 8.26
  L 32.28 11.65
  Q 32.53 11.90 32.26 12.14
  L 32.04 12.35
  Q 31.99 12.39 31.95 12.35
  Q 30.36 10.63 28.66 9.15
  Q 28.28 8.83 27.79 8.89
  Q 25.99 9.13 24.11 8.73
  Q 24.05 8.72 24.06 8.66
  L 24.10 8.39
  Q 24.15 8.08 24.45 8.14
  Z"
/>
<path fill="#000000" fill-opacity="0.996" d="
  M 34.46 28.29
  Q 34.60 28.24 34.73 28.19
  Q 35.29 27.94 35.12 28.53
  Q 33.15 35.40 26.03 33.30
  Q 25.04 33.00 24.34 32.22
  Q 23.98 31.82 23.47 31.67
  Q 19.23 30.35 15.05 30.48
  A 1.30 1.29 -7.0 0 1 13.75 29.47
  L 13.30 27.38
  Q 13.12 26.56 12.33 26.28
  L 12.03 26.18
  Q 11.49 25.99 11.48 25.41
  Q 11.41 20.30 13.14 14.97
  Q 13.31 14.47 13.79 14.68
  L 16.14 15.71
  A 0.73 0.73 0.0 0 0 17.06 15.43
  L 18.69 12.77
  Q 18.98 12.31 19.40 12.66
  Q 20.10 13.24 20.79 13.89
  C 22.19 15.22 23.66 14.31 24.22 12.79
  Q 24.52 11.95 25.20 12.53
  L 27.23 14.29
  Q 27.74 14.73 28.34 14.45
  Q 29.43 13.95 29.97 12.87
  A 0.33 0.33 0.0 0 1 30.51 12.79
  C 32.14 14.64 33.65 16.29 33.62 18.99
  Q 33.59 23.15 33.74 27.80
  Q 33.76 28.55 34.46 28.29
  Z
  M 25.42 16.98
  Q 25.75 17.31 25.82 17.81
  A 0.57 0.57 0.0 0 0 26.19 18.28
  Q 26.64 18.46 26.92 18.18
  Q 27.33 17.78 27.30 17.24
  Q 27.22 15.83 25.57 14.74
  Q 25.01 14.38 24.77 15.00
  Q 24.52 15.66 24.08 16.17
  Q 23.81 16.48 23.86 16.93
  Q 23.89 17.24 24.09 17.46
  A 0.51 0.48 66.9 0 0 24.48 17.63
  Q 25.01 17.60 25.11 17.08
  A 0.19 0.18 27.0 0 1 25.42 16.98
  Z
  M 19.15 18.19
  Q 20.21 17.68 21.32 17.63
  Q 22.33 17.58 21.65 16.83
  L 19.99 15.00
  Q 19.44 14.39 19.05 15.11
  L 18.01 16.99
  A 0.87 0.87 0.0 0 0 19.15 18.19
  Z
  M 31.08 17.73
  L 31.15 18.00
  Q 31.34 18.71 31.97 18.31
  Q 32.24 18.14 32.22 17.83
  Q 32.12 16.50 31.14 15.27
  Q 30.75 14.78 30.30 15.21
  Q 29.72 15.75 29.18 16.35
  Q 28.87 16.69 28.88 17.15
  Q 28.90 17.60 29.23 17.88
  Q 29.71 18.26 30.10 17.79
  Q 30.34 17.48 30.76 17.48
  Q 31.01 17.49 31.08 17.73
  Z
  M 16.29 18.70
  A 0.44 0.44 0.0 0 0 16.58 18.03
  Q 15.89 16.96 14.67 16.73
  Q 13.96 16.59 14.02 17.31
  Q 14.06 17.78 13.85 18.20
  Q 13.32 19.28 14.50 19.05
  L 16.29 18.70
  Z
  M 21.19 23.99
  Q 20.55 23.76 20.05 23.27
  Q 18.81 22.09 19.15 23.77
  Q 19.49 25.51 19.37 27.21
  Q 19.25 28.86 20.89 28.69
  Q 21.35 28.65 21.54 28.63
  Q 23.21 28.46 23.02 26.80
  Q 22.59 22.97 23.14 18.82
  A 0.44 0.43 -83.4 0 0 22.76 18.33
  L 22.44 18.28
  Q 22.15 18.25 22.05 18.53
  L 21.27 20.72
  Q 21.08 21.25 20.55 21.07
  Q 20.10 20.91 19.80 20.54
  A 0.30 0.30 0.0 0 0 19.28 20.64
  Q 19.15 21.03 19.33 21.42
  Q 19.82 22.50 20.94 22.46
  A 0.45 0.43 -8.3 0 1 21.38 22.78
  L 21.61 23.61
  Q 21.78 24.21 21.19 23.99
  Z
  M 26.26 24.05
  Q 26.07 24.22 25.88 24.05
  Q 25.35 23.58 25.15 22.88
  Q 24.91 22.05 24.57 22.84
  Q 24.30 23.49 24.46 24.16
  Q 24.99 26.35 24.33 28.21
  Q 24.13 28.78 24.73 28.87
  Q 26.30 29.13 27.60 28.32
  A 0.87 0.87 0.0 0 0 28.00 27.52
  Q 27.66 23.23 28.41 19.09
  A 0.29 0.29 0.0 0 0 28.08 18.75
  L 27.82 18.79
  Q 27.24 18.89 27.03 19.44
  L 26.69 20.35
  Q 26.51 20.83 26.02 20.70
  Q 25.44 20.55 25.02 20.09
  Q 24.75 19.79 24.47 20.08
  Q 24.30 20.26 24.44 20.47
  Q 25.36 21.94 26.55 23.28
  Q 26.82 23.57 26.52 23.83
  L 26.26 24.05
  Z
  M 16.00 23.32
  L 14.78 22.43
  Q 13.66 21.62 14.04 22.95
  Q 14.56 24.80 15.57 26.50
  C 16.03 27.28 16.79 27.36 17.60 27.47
  Q 18.37 27.57 18.20 26.81
  C 17.88 25.29 17.26 22.48 17.71 21.07
  Q 18.09 19.89 17.17 19.17
  Q 16.59 18.73 16.76 19.44
  Q 16.90 20.04 16.61 20.60
  Q 16.33 21.13 15.77 20.93
  L 15.01 20.66
  Q 14.35 20.43 14.75 21.00
  Q 15.48 22.02 16.77 22.65
  Q 16.82 22.67 16.80 22.73
  L 16.65 23.12
  Q 16.46 23.65 16.00 23.32
  Z
  M 30.26 23.50
  Q 29.76 23.34 29.45 22.80
  Q 28.85 21.76 28.97 23.01
  L 29.40 27.41
  Q 29.51 28.59 30.65 28.27
  L 31.34 28.07
  Q 32.40 27.77 32.35 26.67
  L 32.08 20.99
  Q 32.05 20.41 31.48 20.48
  L 30.93 20.55
  Q 30.32 20.63 29.89 20.18
  Q 29.73 20.02 29.49 19.95
  Q 28.98 19.80 29.23 20.27
  L 30.70 22.97
  Q 31.13 23.78 30.26 23.50
  Z
  M 28.79 31.96
  Q 28.81 32.63 29.48 32.56
  Q 31.77 32.32 31.93 29.85
  Q 31.97 29.18 31.34 29.41
  Q 29.30 30.15 26.79 30.43
  Q 24.76 30.65 26.28 32.01
  Q 27.24 32.86 28.42 31.81
  Q 28.77 31.49 28.79 31.96
  Z"
/>
<path fill="#000000" fill-opacity="0.996" d="
  M 17.28 39.21
  L 13.60 35.36
  Q 13.47 35.23 13.59 35.08
  L 13.83 34.78
  Q 14.05 34.50 14.32 34.75
  L 17.22 37.55
  Q 17.65 37.97 18.24 37.97
  L 22.00 37.96
  Q 22.39 37.95 22.22 38.30
  L 22.01 38.73
  Q 21.91 38.93 21.69 38.90
  Q 19.37 38.57 17.28 39.21
  Z"
/>
<path fill="#000000" fill-opacity="0.996" d="
  M 28.84 38.88
  L 24.35 38.84
  A 0.20 0.20 0.0 0 1 24.17 38.72
  L 23.99 38.26
  A 0.20 0.20 0.0 0 1 24.17 37.99
  L 28.38 37.92
  A 0.20 0.20 0.0 0 0 28.52 37.87
  L 31.93 34.71
  A 0.20 0.20 0.0 0 1 32.22 34.72
  L 32.47 34.99
  A 0.20 0.20 0.0 0 1 32.47 35.27
  L 28.98 38.82
  A 0.20 0.20 0.0 0 1 28.84 38.88
  Z"
/>
</svg>
