<?xml version="1.0" encoding="UTF-8" standalone="no"?>
<!DOCTYPE svg PUBLIC "-//W3C//DTD SVG 1.1//EN" "http://www.w3.org/Graphics/SVG/1.1/DTD/svg11.dtd">
<svg xmlns="http://www.w3.org/2000/svg" version="1.1" viewBox="0.00 0.00 46.00 46.00">
<path fill="#000000" fill-opacity="0.996" d="
  M 29.05 20.71
  Q 27.83 20.83 27.03 20.07
  Q 26.61 19.67 26.04 19.79
  Q 24.43 20.14 23.48 18.80
  A 0.57 0.57 0.0 0 0 22.55 18.79
  Q 21.48 20.27 19.79 19.75
  A 0.70 0.69 26.5 0 0 19.03 20.00
  Q 18.46 20.77 17.50 20.71
  A 0.63 0.63 0.0 0 1 17.12 19.60
  L 19.31 17.70
  Q 19.66 17.40 19.40 17.01
  C 17.91 14.75 12.74 17.94 11.44 19.41
  Q 11.11 19.78 11.08 20.28
  Q 10.95 23.23 7.07 25.12
  Q 6.26 25.52 7.16 25.45
  C 10.75 25.17 11.49 21.53 12.98 18.84
  A 0.58 0.58 0.0 0 1 13.83 18.65
  L 16.57 20.70
  Q 16.99 21.01 16.98 21.53
  Q 16.95 22.74 17.50 23.79
  Q 17.77 24.32 18.35 24.17
  Q 20.46 23.64 19.72 21.77
  A 0.53 0.53 0.0 0 1 20.26 21.05
  Q 20.70 21.09 20.97 21.45
  A 0.53 0.53 0.0 0 0 21.85 21.40
  L 22.33 20.58
  A 0.89 0.80 57.5 0 1 23.86 21.00
  Q 23.99 21.76 26.17 21.07
  A 0.23 0.23 0.0 0 1 26.45 21.39
  Q 25.47 23.55 27.54 24.01
  Q 27.71 24.05 27.74 24.23
  Q 27.77 24.35 27.77 24.48
  Q 27.80 25.24 28.18 24.59
  Q 29.20 22.82 29.05 20.71
  Q 30.27 20.53 31.35 19.09
  A 1.10 1.10 0.0 0 1 33.09 19.06
  C 34.40 20.69 35.97 26.33 38.90 25.41
  Q 39.99 25.07 38.87 24.83
  Q 35.26 24.05 35.16 20.45
  Q 35.15 19.96 34.83 19.59
  Q 32.09 16.50 27.93 16.27
  Q 27.52 16.25 27.20 16.51
  L 26.80 16.83
  Q 25.33 18.01 26.00 16.24
  L 27.33 12.79
  A 0.66 0.66 0.0 0 1 28.47 12.61
  Q 29.71 14.18 31.73 14.50
  Q 33.75 14.82 37.34 18.70
  Q 37.64 19.02 37.35 19.34
  Q 36.48 20.36 37.34 21.39
  Q 40.78 25.50 46.00 23.15
  L 46.00 24.69
  C 44.72 25.53 43.88 26.10 42.22 26.12
  C 40.69 26.14 39.31 26.65 37.91 26.38
  Q 33.33 25.50 32.85 20.60
  A 0.51 0.50 -11.3 0 0 32.20 20.17
  Q 31.53 20.37 31.03 20.87
  Q 30.60 21.29 30.81 21.85
  Q 31.06 22.53 30.37 22.98
  A 0.86 0.85 70.1 0 0 29.99 23.81
  L 30.16 25.06
  Q 30.23 25.56 29.80 25.82
  Q 28.76 26.46 28.07 25.78
  Q 27.01 24.73 27.51 26.01
  L 27.91 27.03
  A 0.69 0.68 -18.8 0 1 27.46 27.93
  L 26.59 28.19
  A 0.60 0.60 0.0 0 0 26.16 28.89
  L 26.40 30.18
  Q 26.55 30.93 25.79 30.77
  Q 25.32 30.67 24.97 30.34
  Q 24.64 30.02 24.28 30.31
  Q 23.71 30.78 23.77 31.74
  A 0.43 0.30 34.7 0 0 23.80 31.82
  L 25.86 34.68
  Q 26.22 35.18 25.75 35.58
  C 23.93 37.13 24.13 41.81 23.24 44.25
  Q 22.95 45.02 22.74 44.22
  C 22.23 42.27 21.69 40.20 21.65 38.11
  Q 21.62 36.78 20.19 35.34
  Q 19.71 34.86 20.28 34.49
  Q 20.95 34.05 21.18 33.29
  Q 21.30 32.89 21.56 32.57
  Q 21.71 32.39 21.87 32.37
  Q 22.64 32.23 22.38 31.63
  L 21.87 30.45
  A 0.50 0.50 0.0 0 0 21.06 30.30
  Q 20.73 30.64 20.29 30.75
  Q 19.82 30.88 19.75 30.40
  Q 19.63 29.60 19.99 28.91
  A 0.38 0.38 0.0 0 0 19.70 28.36
  Q 17.82 28.13 18.28 26.37
  Q 18.46 25.69 17.79 25.91
  Q 17.02 26.17 16.16 25.88
  A 0.62 0.62 0.0 0 1 15.81 25.02
  Q 16.39 23.82 15.60 22.92
  Q 15.25 22.52 15.27 22.00
  Q 15.32 20.43 13.75 20.07
  A 0.45 0.45 0.0 0 0 13.21 20.47
  Q 12.82 25.69 7.77 26.52
  Q 6.61 26.72 5.66 26.18
  Q 5.25 25.96 4.80 26.05
  Q 2.09 26.64 0.00 24.36
  L 0.00 22.95
  Q 4.50 25.52 8.35 21.81
  Q 9.52 20.68 8.63 19.20
  Q 8.35 18.74 8.78 18.41
  Q 10.40 17.14 11.94 15.86
  C 13.44 14.62 15.18 14.43 16.87 13.39
  A 1.59 0.27 -54.3 0 0 17.53 12.74
  Q 17.65 12.60 17.81 12.47
  A 0.56 0.55 60.0 0 1 18.68 12.71
  L 20.11 16.40
  A 0.99 0.97 46.3 0 1 20.10 17.15
  Q 19.87 17.73 20.21 18.26
  Q 20.51 18.70 20.90 18.34
  C 22.18 17.15 21.32 15.57 20.34 14.46
  Q 20.01 14.08 20.28 13.66
  Q 22.99 9.40 22.63 4.23
  Q 22.58 3.55 22.67 3.51
  A 0.71 0.60 81.8 0 1 23.51 4.25
  Q 23.20 9.31 25.75 13.66
  Q 26.07 14.20 25.60 14.63
  Q 23.88 16.19 25.08 18.45
  Q 25.34 18.94 25.69 18.51
  L 26.00 18.12
  Q 26.30 17.75 26.75 17.93
  Q 28.84 18.76 29.05 20.71
  Z
  M 23.0171 15.5600
  A 1.68 0.26 90.1 0 0 23.2800 13.8805
  A 1.68 0.26 90.1 0 0 23.0229 12.2000
  A 1.68 0.26 90.1 0 0 22.7600 13.8795
  A 1.68 0.26 90.1 0 0 23.0171 15.5600
  Z
  M 23.0670 28.9198
  A 3.03 2.67 89.3 0 0 25.6998 25.8574
  A 3.03 2.67 89.3 0 0 22.9930 22.8602
  A 3.03 2.67 89.3 0 0 20.3602 25.9226
  A 3.03 2.67 89.3 0 0 23.0670 28.9198
  Z
  M 23.12 36.13
  Q 23.53 35.33 23.20 34.47
  A 0.23 0.23 0.0 0 0 22.75 34.55
  L 22.73 36.86
  Q 22.73 37.45 23.11 37.00
  Q 23.46 36.56 23.12 36.13
  Z"
/>
<path fill="#000000" fill-opacity="0.996" d="
  M 8.76 14.94
  Q 6.77 15.17 5.58 13.72
  Q 5.12 13.16 5.85 13.19
  L 9.91 13.41
  Q 10.39 13.43 10.78 13.70
  Q 11.20 14.00 11.62 13.83
  Q 12.05 13.65 11.62 13.49
  C 7.17 11.73 4.00 13.69 0.67 9.18
  Q 0.20 8.54 0.97 8.71
  L 15.96 12.11
  A 0.54 0.54 0.0 0 1 16.37 12.71
  L 16.32 13.06
  A 0.41 0.41 0.0 0 1 15.94 13.41
  L 13.31 13.58
  Q 12.92 13.60 12.70 13.92
  Q 11.53 15.62 9.34 14.80
  A 0.11 0.11 0.0 0 0 9.22 14.98
  Q 9.47 15.22 9.67 15.42
  Q 9.84 15.58 9.84 15.81
  Q 9.85 16.28 9.47 16.44
  Q 8.96 16.66 8.84 16.11
  Q 8.75 15.73 8.98 15.51
  Q 9.71 14.82 8.76 14.94
  Z"
/>
<path fill="#000000" fill-opacity="0.996" d="
  M 35.33 13.49
  Q 37.71 13.22 40.16 13.29
  Q 41.06 13.31 40.39 13.91
  Q 38.76 15.36 36.55 14.79
  A 0.15 0.14 -87.6 0 0 36.37 14.96
  Q 36.44 15.35 36.85 15.38
  A 0.38 0.37 87.3 0 1 37.21 15.71
  Q 37.25 15.95 37.16 16.15
  Q 36.91 16.72 36.39 16.38
  Q 35.98 16.12 36.18 15.70
  A 0.51 0.50 9.4 0 0 35.66 14.98
  Q 34.89 15.07 34.13 14.88
  A 0.41 0.41 0.0 0 1 34.10 14.10
  L 34.65 13.92
  Q 35.44 13.66 34.61 13.63
  L 30.54 13.49
  A 0.67 0.61 62.8 0 1 30.19 13.36
  Q 29.36 12.77 30.07 12.17
  Q 30.23 12.04 30.50 11.98
  Q 37.97 10.41 44.91 8.71
  Q 45.96 8.45 45.29 9.30
  C 42.05 13.41 39.83 11.96 35.49 12.93
  A 0.28 0.27 -11.3 0 0 35.28 13.24
  L 35.32 13.49
  Q 35.32 13.50 35.33 13.49
  Z"
/>
<path fill="#000000" fill-opacity="0.996" d="
  M 23.3981 27.8115
  A 0.52 0.52 0.0 0 1 22.6628 27.8230
  L 21.0685 26.2781
  A 0.52 0.52 0.0 0 1 21.0570 25.5428
  L 22.6019 23.9485
  A 0.52 0.52 0.0 0 1 23.3372 23.9370
  L 24.9315 25.4819
  A 0.52 0.52 0.0 0 1 24.9430 26.2172
  L 23.3981 27.8115
  Z
  M 23.75 26.17
  A 0.32 0.32 0.0 0 0 23.70 25.58
  Q 23.01 25.36 22.33 25.64
  A 0.31 0.31 0.0 0 0 22.33 26.21
  Q 23.08 26.51 23.75 26.17
  Z"
/>
</svg>
