<?xml version="1.0" encoding="UTF-8" standalone="no"?>
<!DOCTYPE svg PUBLIC "-//W3C//DTD SVG 1.1//EN" "http://www.w3.org/Graphics/SVG/1.1/DTD/svg11.dtd">
<svg xmlns="http://www.w3.org/2000/svg" version="1.1" viewBox="0.00 0.00 46.00 46.00">
<path fill="#000000" d="
  M 26.30 9.31
  A 0.11 0.11 0.0 0 0 26.43 9.22
  L 26.47 8.96
  Q 26.51 8.71 26.27 8.67
  C 22.42 8.03 19.33 6.40 15.07 6.59
  A 0.34 0.34 0.0 0 1 14.74 6.38
  L 14.65 6.12
  Q 14.42 5.53 15.05 5.43
  C 26.19 3.69 37.46 5.61 42.92 16.44
  C 43.94 18.48 45.31 22.45 44.37 24.45
  Q 44.16 24.89 44.05 24.42
  C 42.87 19.55 37.01 10.89 30.67 12.85
  Q 30.15 13.01 29.67 12.77
  Q 26.36 11.10 22.88 12.59
  Q 22.36 12.81 22.46 13.37
  Q 22.68 14.62 23.49 15.60
  Q 23.92 16.13 23.38 16.55
  Q 22.84 16.96 22.62 17.60
  A 0.54 0.53 41.2 0 0 22.65 18.01
  L 26.61 25.97
  Q 27.60 27.96 28.44 25.98
  Q 28.56 25.70 27.88 24.55
  Q 27.55 23.98 28.08 23.59
  L 28.51 23.27
  Q 30.36 21.90 28.08 21.57
  L 27.35 21.46
  A 1.01 1.01 0.0 0 1 26.94 19.62
  L 29.60 17.84
  Q 30.98 16.92 30.79 18.56
  Q 30.53 20.78 31.97 22.47
  A 0.67 0.66 46.1 0 0 32.97 22.49
  Q 34.45 20.87 33.72 18.61
  A 0.28 0.28 0.0 0 1 34.17 18.31
  L 34.68 18.73
  A 1.98 1.94 15.4 0 1 35.37 19.92
  C 35.67 21.78 35.81 26.76 34.21 27.99
  Q 33.59 28.46 33.85 27.73
  L 34.46 25.96
  A 0.71 0.71 0.0 0 0 33.58 25.05
  C 31.50 25.70 30.30 27.90 29.62 30.62
  Q 29.49 31.14 29.97 31.39
  Q 30.58 31.70 31.30 31.71
  Q 32.16 31.73 31.48 32.26
  L 28.53 34.53
  Q 27.78 35.12 27.98 36.06
  L 28.60 38.84
  Q 28.83 39.86 29.64 39.20
  L 32.01 37.25
  Q 32.34 36.98 32.75 37.08
  Q 33.00 37.13 33.06 37.41
  Q 33.08 37.47 33.05 37.52
  L 30.93 41.40
  A 0.91 0.91 0.0 0 1 30.10 41.87
  L 24.91 41.72
  A 0.40 0.40 0.0 0 1 24.64 41.04
  Q 26.25 39.49 26.10 37.20
  A 0.76 0.76 0.0 0 0 24.85 36.68
  Q 24.27 37.18 23.97 37.88
  Q 23.77 38.34 23.26 38.29
  C 14.75 37.35 8.26 30.44 8.11 21.83
  Q 8.10 20.82 8.50 21.75
  C 10.42 26.09 11.09 29.50 16.23 31.20
  A 0.80 0.80 0.0 0 1 16.78 31.96
  L 16.79 32.73
  A 0.29 0.29 0.0 0 0 17.36 32.77
  Q 17.53 31.68 17.34 30.56
  A 1.31 1.30 56.8 0 1 17.53 29.62
  L 21.08 24.09
  Q 21.39 23.61 21.83 23.98
  Q 23.25 25.19 24.12 26.86
  A 0.40 0.40 0.0 0 1 23.77 27.45
  L 21.75 27.44
  A 1.21 1.21 0.0 0 0 20.85 27.84
  L 18.16 30.86
  Q 17.38 31.72 18.53 31.56
  Q 19.78 31.38 20.86 30.80
  Q 21.70 30.35 21.40 31.26
  L 21.01 32.47
  A 0.99 0.99 0.0 0 0 22.02 33.76
  C 27.56 33.40 25.42 29.26 24.45 26.05
  C 23.36 22.47 20.34 19.76 16.93 18.37
  A 0.45 0.45 0.0 0 1 16.89 17.56
  Q 17.77 17.07 18.75 16.99
  A 1.16 1.14 -85.8 0 0 19.77 16.10
  Q 20.10 14.68 18.89 14.54
  C 17.84 14.43 16.15 15.51 15.21 16.00
  Q 14.67 16.29 14.80 15.69
  Q 15.09 14.40 15.83 13.33
  Q 16.06 12.99 15.78 12.70
  Q 15.20 12.05 14.52 12.54
  Q 12.18 14.22 9.73 15.76
  Q 8.78 16.36 9.36 15.39
  L 11.96 11.11
  A 1.33 1.33 0.0 0 0 11.09 9.12
  Q 7.90 8.46 2.54 8.94
  Q 1.44 9.04 2.41 8.50
  C 5.76 6.66 11.29 6.72 15.05 6.98
  Q 15.54 7.02 15.72 7.48
  L 16.28 9.01
  Q 16.52 9.66 17.19 9.50
  Q 21.74 8.44 26.30 9.31
  Z"
/>
<path fill="#000000" d="
  M 34.00 34.77
  Q 32.59 34.58 31.55 35.55
  A 0.36 0.36 0.0 0 1 31.02 35.06
  Q 32.41 33.24 35.52 32.03
  Q 37.36 31.31 37.06 28.96
  A 1.24 1.24 0.0 0 1 37.19 28.26
  L 38.86 25.21
  Q 39.67 23.72 39.79 25.41
  Q 40.22 31.45 36.50 36.46
  Q 35.08 38.37 35.22 36.01
  Q 35.26 35.43 34.73 35.06
  Q 34.40 34.82 34.00 34.77
  Z"
/>
</svg>
