<?xml version="1.0" encoding="UTF-8" standalone="no"?>
<!DOCTYPE svg PUBLIC "-//W3C//DTD SVG 1.1//EN" "http://www.w3.org/Graphics/SVG/1.1/DTD/svg11.dtd">
<svg xmlns="http://www.w3.org/2000/svg" version="1.1" viewBox="0.00 0.00 46.00 46.00">
<path fill="#000000" d="
  M 20.37 27.20
  L 20.11 26.39
  Q 19.97 25.95 20.28 25.60
  Q 21.11 24.68 20.49 23.51
  Q 20.25 23.04 20.33 22.52
  Q 21.41 15.97 20.97 10.25
  Q 20.91 9.48 20.19 8.91
  Q 19.80 8.60 19.97 8.14
  L 22.62 0.71
  Q 23.01 -0.36 23.39 0.71
  L 26.05 8.13
  Q 26.23 8.61 25.85 8.96
  C 25.43 9.36 25.12 9.73 25.08 10.35
  Q 24.74 16.21 25.60 22.00
  C 25.76 23.07 25.53 23.38 25.31 24.42
  A 1.14 1.14 0.0 0 0 25.53 25.36
  Q 26.21 26.21 25.61 27.16
  Q 25.41 27.47 25.70 27.71
  Q 25.80 27.79 25.93 27.81
  Q 26.05 27.83 26.12 27.74
  Q 26.66 27.16 26.73 26.27
  A 1.04 1.03 -70.8 0 1 28.33 25.49
  Q 29.28 26.12 30.48 26.27
  A 0.50 0.50 0.0 0 0 30.96 25.50
  Q 29.89 23.85 27.86 23.71
  Q 27.01 23.64 27.51 22.95
  L 28.59 21.42
  A 0.57 0.56 -52.8 0 0 28.49 20.66
  L 28.11 20.35
  Q 27.74 20.04 28.21 19.92
  Q 30.75 19.30 32.21 17.06
  Q 32.27 16.96 32.35 17.05
  L 32.53 17.28
  Q 32.61 17.37 32.55 17.47
  L 30.81 20.80
  Q 29.81 22.72 31.83 21.94
  C 34.62 20.87 34.27 17.41 33.85 14.53
  Q 33.79 14.07 34.09 14.42
  C 36.82 17.54 34.71 21.74 34.41 25.17
  Q 34.30 26.44 35.16 25.48
  Q 36.30 24.20 37.98 23.91
  A 0.27 0.27 0.0 0 1 38.17 24.41
  Q 35.21 26.11 35.32 29.51
  Q 35.34 30.13 34.76 29.93
  L 34.05 29.68
  A 0.39 0.38 -0.3 0 0 33.56 30.17
  Q 34.23 32.15 32.95 33.68
  Q 32.38 34.36 32.46 33.48
  Q 32.57 32.31 32.04 31.51
  Q 31.56 30.78 30.87 31.09
  Q 30.41 31.29 30.48 31.78
  Q 30.71 33.48 29.14 33.90
  A 0.90 0.90 0.0 0 0 28.52 34.47
  L 27.98 35.97
  Q 27.75 36.60 27.28 36.13
  Q 26.45 35.32 25.30 35.16
  A 0.46 0.45 86.9 0 0 24.80 35.72
  Q 25.14 37.09 24.18 38.17
  Q 23.82 38.56 23.76 39.09
  Q 23.57 40.91 24.04 42.65
  Q 24.18 43.16 23.83 43.57
  Q 23.39 44.09 23.22 44.73
  Q 23.04 45.39 22.84 44.74
  Q 22.61 44.03 22.10 43.44
  A 0.89 0.86 -55.6 0 1 21.95 42.55
  Q 23.06 39.72 21.37 37.30
  Q 21.07 36.87 21.13 36.36
  L 21.23 35.51
  Q 21.29 34.95 20.74 35.08
  Q 19.60 35.37 18.70 36.13
  A 0.46 0.45 67.8 0 1 17.95 35.81
  Q 17.86 34.10 16.26 33.58
  Q 15.77 33.41 15.69 32.90
  L 15.49 31.62
  Q 15.41 31.12 14.91 31.01
  Q 14.34 30.88 13.94 31.50
  Q 13.35 32.40 13.74 33.53
  Q 13.92 34.07 13.45 33.76
  C 11.89 32.75 12.28 31.69 12.49 30.10
  Q 12.58 29.48 11.97 29.65
  L 11.30 29.85
  Q 10.73 30.01 10.74 29.42
  Q 10.80 26.03 7.84 24.38
  A 0.28 0.28 0.0 0 1 8.02 23.86
  Q 9.63 24.13 10.71 25.31
  Q 11.68 26.38 11.59 24.94
  C 11.36 21.55 9.19 17.61 11.92 14.45
  Q 12.15 14.19 12.15 14.53
  Q 12.15 15.33 12.00 16.03
  Q 11.19 19.95 14.47 22.20
  A 0.50 0.50 0.0 0 0 15.23 21.94
  C 15.64 20.61 14.01 18.93 13.66 17.59
  Q 13.38 16.51 14.07 17.39
  Q 15.50 19.21 17.69 19.88
  Q 18.21 20.04 17.83 20.42
  L 17.63 20.63
  Q 17.22 21.03 17.55 21.50
  L 18.57 22.98
  Q 18.98 23.57 18.27 23.62
  Q 16.49 23.76 15.21 25.24
  Q 15.05 25.42 15.05 25.66
  L 15.04 25.96
  A 0.34 0.33 -8.2 0 0 15.48 26.28
  L 18.46 25.29
  Q 19.68 24.89 19.39 26.13
  Q 19.19 26.98 19.81 27.55
  A 0.34 0.34 0.0 0 0 20.37 27.20
  Z
  M 22.62 30.97
  L 23.36 30.97
  A 0.13 0.13 0.0 0 0 23.49 30.84
  L 23.49 30.72
  A 8.07 0.47 90.0 0 0 23.02 22.65
  L 22.96 22.65
  A 8.07 0.47 -90.0 0 0 22.49 30.72
  L 22.49 30.84
  A 0.13 0.13 0.0 0 0 22.62 30.97
  Z
  M 17.94 27.00
  Q 18.01 26.87 18.07 26.74
  A 0.14 0.14 0.0 0 0 17.89 26.55
  Q 16.62 27.16 16.12 27.69
  Q 14.52 29.41 16.84 29.04
  Q 17.69 28.90 17.86 27.30
  Q 17.87 27.14 17.94 27.00
  Z
  M 30.39 28.15
  L 28.48 26.68
  Q 27.66 26.05 28.06 27.01
  L 28.80 28.78
  A 0.76 0.74 -8.0 0 0 29.41 29.23
  Q 30.04 29.30 30.45 28.84
  A 0.47 0.47 0.0 0 0 30.39 28.15
  Z
  M 25.11 32.06
  A 3.24 2.43 -32.9 0 1 21.08 31.78
  Q 20.53 30.94 18.73 32.05
  Q 18.32 32.31 18.77 32.48
  Q 23.14 34.18 27.47 32.41
  A 0.29 0.29 0.0 0 0 27.45 31.86
  Q 26.07 31.44 25.11 32.06
  Z"
/>
<path fill="#000000" d="
  M 10.44 33.22
  Q 10.51 32.93 10.75 32.75
  Q 10.99 32.57 11.26 32.58
  Q 11.87 32.60 11.72 33.18
  Q 11.36 34.67 12.70 35.34
  A 0.18 0.17 -35.2 0 1 12.64 35.67
  Q 11.84 35.77 11.49 36.44
  A 0.48 0.48 0.0 0 0 11.85 37.14
  Q 13.18 37.33 14.34 36.64
  Q 14.91 36.30 14.84 36.95
  Q 14.70 38.27 15.28 38.71
  Q 17.39 40.29 20.05 43.19
  Q 20.68 43.88 20.29 44.73
  L 20.18 44.97
  Q 19.80 45.78 19.24 45.08
  Q 17.49 42.86 14.62 43.06
  Q 14.07 43.10 13.65 43.46
  L 11.95 44.91
  Q 11.11 45.63 11.60 44.64
  L 12.67 42.47
  Q 12.89 42.04 12.50 41.74
  Q 11.26 40.77 10.55 39.35
  Q 10.29 38.83 9.70 38.85
  L 7.24 38.97
  Q 6.51 39.01 7.14 38.64
  L 9.19 37.45
  A 1.53 1.53 0.0 0 0 9.63 35.19
  L 8.18 33.31
  Q 7.29 32.15 8.54 32.96
  Q 9.17 33.37 9.93 33.54
  Q 10.34 33.63 10.44 33.22
  Z
  M 14.90 40.67
  Q 15.33 41.88 16.62 41.87
  Q 17.40 41.87 16.95 41.23
  Q 16.40 40.45 15.44 40.26
  Q 14.95 40.16 14.70 39.73
  L 14.03 38.57
  A 0.61 0.60 70.1 0 0 13.42 38.28
  L 13.07 38.33
  Q 12.53 38.40 12.59 38.94
  Q 12.78 40.47 14.16 40.23
  Q 14.71 40.14 14.90 40.67
  Z"
/>
<path fill="#000000" d="
  M 36.00 33.58
  Q 36.82 33.48 37.47 33.01
  Q 38.40 32.35 37.82 33.33
  Q 37.22 34.36 36.36 35.18
  A 1.40 1.40 0.0 0 0 36.64 37.42
  L 39.02 38.76
  Q 39.50 39.03 38.95 39.01
  L 36.27 38.95
  Q 35.73 38.93 35.48 39.42
  Q 34.78 40.78 33.58 41.73
  Q 33.15 42.07 33.39 42.56
  L 34.40 44.64
  Q 34.89 45.66 34.04 44.92
  L 32.47 43.57
  Q 32.02 43.18 31.43 43.12
  Q 28.76 42.87 26.96 44.89
  Q 25.87 46.11 25.69 44.48
  Q 25.52 42.94 26.90 42.26
  Q 27.36 42.04 27.65 41.62
  C 28.65 40.22 31.50 38.86 31.18 37.01
  Q 31.08 36.49 31.57 36.69
  Q 32.62 37.13 33.67 37.23
  Q 34.04 37.27 34.26 37.09
  Q 34.54 36.86 34.58 36.53
  Q 34.66 35.88 34.01 35.88
  L 33.62 35.88
  Q 32.77 35.87 33.70 35.18
  Q 34.70 34.43 34.30 33.28
  A 0.52 0.52 0.0 0 1 34.69 32.59
  Q 35.48 32.44 35.56 33.22
  Q 35.60 33.62 36.00 33.58
  Z
  M 33.3764 38.5643
  A 1.23 0.82 -39.7 0 0 31.9062 38.7191
  A 1.23 0.82 -39.7 0 0 31.4836 40.1357
  A 1.23 0.82 -39.7 0 0 32.9538 39.9809
  A 1.23 0.82 -39.7 0 0 33.3764 38.5643
  Z
  M 29.11 41.87
  Q 30.37 42.09 30.99 41.06
  A 0.46 0.46 0.0 0 0 30.54 40.37
  Q 29.43 40.52 28.93 41.49
  A 0.26 0.26 0.0 0 0 29.11 41.87
  Z"
/>
</svg>
