<?xml version="1.0" encoding="UTF-8" standalone="no"?>
<!DOCTYPE svg PUBLIC "-//W3C//DTD SVG 1.1//EN" "http://www.w3.org/Graphics/SVG/1.1/DTD/svg11.dtd">
<svg xmlns="http://www.w3.org/2000/svg" version="1.1" viewBox="0.00 0.00 46.00 46.00">
<path fill="#000000" d="
  M 43.07 0.53
  A 0.24 0.24 0.0 0 1 43.36 0.89
  L 40.59 4.83
  Q 40.27 5.28 39.75 5.46
  L 31.16 8.39
  Q 29.86 8.83 30.71 7.75
  C 31.67 6.55 32.34 5.30 33.87 4.61
  Q 37.75 2.87 43.07 0.53
  Z"
/>
<rect fill="#000000" x="-3.17" y="-1.47" transform="translate(20.01,6.16) rotate(-1.1)" width="6.34" height="2.94" rx="0.53"/>
<path fill="#000000" d="
  M 15.32 8.30
  L 13.68 8.87
  A 0.56 0.56 0.0 0 1 13.02 8.62
  L 12.13 7.11
  A 0.56 0.56 0.0 0 1 12.40 6.31
  L 14.44 5.48
  A 0.56 0.56 0.0 0 1 15.19 5.85
  L 15.68 7.62
  A 0.56 0.56 0.0 0 1 15.32 8.30
  Z"
/>
<rect fill="#000000" x="-1.55" y="-1.42" transform="translate(10.10,9.16) rotate(-33.4)" width="3.10" height="2.84" rx="0.60"/>
<path fill="#000000" d="
  M 27.31 12.53
  C 27.82 11.88 28.25 11.15 29.07 10.85
  Q 33.58 9.20 38.22 7.64
  Q 38.85 7.43 38.47 7.98
  Q 35.24 12.75 31.96 17.41
  C 31.09 18.66 29.83 19.41 28.65 20.32
  Q 28.24 20.64 27.85 20.29
  C 21.08 14.22 13.13 18.62 12.35 26.86
  A 1.54 1.53 -12.5 0 1 11.58 28.06
  L 9.34 29.34
  Q 8.63 29.74 8.94 28.99
  Q 10.32 25.57 11.72 21.82
  C 14.16 15.30 19.53 12.08 26.47 12.89
  A 0.93 0.92 -67.9 0 0 27.31 12.53
  Z"
/>
<path fill="#000000" d="
  M 16.95 41.92
  Q 17.63 42.04 17.39 41.40
  L 17.22 40.96
  Q 16.92 40.17 16.09 40.00
  C 5.74 37.86 1.66 25.40 6.66 16.75
  Q 11.31 8.71 22.24 9.15
  A 0.33 0.33 0.0 0 1 22.55 9.52
  L 22.40 10.89
  Q 22.35 11.36 21.87 11.33
  Q 15.98 10.88 11.60 14.34
  C 4.10 20.28 4.89 32.32 13.59 36.82
  C 15.82 37.97 17.62 37.99 19.76 36.79
  A 1.41 1.41 0.0 0 1 21.50 37.06
  L 29.02 45.22
  Q 29.53 45.78 28.78 45.73
  Q 25.71 45.53 19.76 45.09
  C 6.95 44.13 -0.90 34.69 0.32 21.92
  A 0.18 0.18 0.0 0 1 0.54 21.76
  L 2.73 22.25
  Q 2.99 22.31 2.96 22.57
  C 2.00 31.86 7.64 40.35 16.95 41.92
  Z"
/>
<rect fill="#000000" x="-1.47" y="-1.51" transform="translate(6.82,11.82) rotate(42.9)" width="2.94" height="3.02" rx="0.53"/>
<rect fill="#000000" x="-1.40" y="-1.54" transform="translate(4.15,15.18) rotate(30.8)" width="2.80" height="3.08" rx="0.61"/>
<path fill="#000000" d="
  M 28.37 21.98
  Q 33.72 18.12 40.06 16.15
  Q 40.99 15.86 40.26 16.51
  L 30.33 25.22
  A 0.79 0.79 0.0 0 0 30.05 25.78
  L 29.78 29.45
  A 0.88 0.87 -71.9 0 0 30.19 30.26
  L 30.82 30.65
  Q 31.43 31.04 30.94 31.57
  Q 29.14 33.54 29.28 36.24
  A 1.34 1.33 -5.9 0 1 28.14 37.63
  Q 25.66 38.00 23.25 37.56
  Q 22.42 37.40 22.50 36.49
  Q 22.54 36.09 22.92 35.99
  L 27.74 34.65
  A 0.80 0.79 62.8 0 0 28.14 33.39
  L 26.43 31.28
  A 0.77 0.77 0.0 0 1 26.35 30.41
  C 30.26 23.25 20.38 17.31 16.21 24.56
  Q 14.52 27.49 16.66 30.53
  Q 19.65 34.78 24.89 31.88
  A 0.85 0.84 -29.2 0 1 26.03 32.20
  L 26.46 32.93
  A 0.70 0.69 67.2 0 1 26.05 33.95
  L 19.82 35.71
  A 1.21 1.20 47.6 0 1 19.05 35.67
  Q 14.74 33.96 13.06 29.65
  Q 12.87 29.14 13.06 28.64
  C 14.36 25.24 13.81 21.88 17.72 19.85
  Q 23.16 17.02 27.54 21.89
  Q 27.91 22.31 28.37 21.98
  Z"
/>
<rect fill="#000000" x="-1.42" y="-1.56" transform="translate(2.33,19.10) rotate(17.0)" width="2.84" height="3.12" rx="0.63"/>
<path fill="#000000" d="
  M 26.12 27.24
  A 4.56 4.56 0.0 0 1 21.56 31.80
  A 4.56 4.56 0.0 0 1 17.00 27.24
  A 4.56 4.56 0.0 0 1 21.56 22.68
  A 4.56 4.56 0.0 0 1 26.12 27.24
  Z
  M 23.40 23.81
  Q 21.98 23.05 22.02 24.68
  A 0.72 0.72 0.0 0 0 22.71 25.39
  Q 23.00 25.41 23.25 25.33
  A 0.83 0.82 50.7 0 0 23.40 23.81
  Z
  M 23.33 27.28
  A 1.71 1.71 0.0 0 0 21.62 25.57
  A 1.71 1.71 0.0 0 0 19.91 27.28
  A 1.71 1.71 0.0 0 0 21.62 28.99
  A 1.71 1.71 0.0 0 0 23.33 27.28
  Z"
/>
<path fill="#000000" d="
  M 30.48 38.04
  L 30.54 35.18
  A 0.33 0.33 0.0 0 1 31.01 34.89
  L 38.21 38.13
  A 0.33 0.33 0.0 0 1 38.34 38.62
  L 34.51 44.15
  A 0.33 0.33 0.0 0 1 34.05 44.23
  L 27.86 39.89
  A 0.33 0.33 0.0 0 1 27.93 39.32
  L 30.28 38.34
  A 0.33 0.33 0.0 0 0 30.48 38.04
  Z"
/>
</svg>
