<?xml version="1.0" encoding="UTF-8" standalone="no"?>
<!DOCTYPE svg PUBLIC "-//W3C//DTD SVG 1.1//EN" "http://www.w3.org/Graphics/SVG/1.1/DTD/svg11.dtd">
<svg xmlns="http://www.w3.org/2000/svg" version="1.1" viewBox="0.00 0.00 46.00 46.00">
<path fill="#000000" fill-opacity="0.996" d="
  M 33.98 28.05
  Q 34.05 28.67 34.68 29.27
  A 0.40 0.39 22.8 0 0 35.35 29.00
  Q 35.38 28.13 33.98 28.05
  C 34.03 26.85 37.11 25.50 37.50 22.78
  A 0.30 0.29 16.2 0 0 37.32 22.46
  L 36.98 22.32
  Q 36.56 22.14 36.48 22.59
  Q 36.02 25.37 33.46 26.43
  Q 33.02 26.62 32.76 26.43
  Q 32.34 26.13 32.77 25.84
  Q 34.14 24.94 34.93 23.53
  A 0.52 0.51 15.8 0 0 34.50 22.77
  Q 31.76 22.65 30.88 20.02
  Q 30.70 19.47 31.23 19.72
  Q 31.85 20.01 31.88 20.72
  A 1.02 1.02 0.0 0 0 32.32 21.52
  Q 32.96 21.97 33.71 21.91
  A 0.40 0.39 -20.1 0 0 34.00 21.29
  Q 33.34 20.36 32.34 19.85
  A 1.35 1.35 0.0 0 1 31.79 17.97
  C 37.69 7.89 41.44 17.52 40.63 23.24
  Q 40.05 27.31 35.89 29.47
  Q 35.42 29.72 35.83 30.06
  Q 39.99 33.63 44.45 30.43
  Q 44.54 30.36 44.61 30.45
  L 44.77 30.69
  Q 44.86 30.83 44.74 30.94
  Q 42.17 33.27 38.71 33.82
  Q 38.20 33.90 37.80 33.58
  Q 37.00 32.93 36.15 32.35
  Q 35.84 32.14 35.52 32.21
  Q 34.95 32.34 35.46 32.63
  Q 36.04 32.97 36.37 33.37
  Q 36.75 33.84 36.49 34.26
  Q 36.25 34.65 35.80 34.57
  Q 35.61 34.53 35.43 34.59
  A 0.17 0.17 0.0 0 0 35.35 34.86
  L 38.67 38.53
  Q 38.99 38.88 38.52 38.88
  L 37.02 38.89
  A 1.33 1.29 -25.5 0 1 36.22 38.62
  L 34.20 37.09
  Q 33.84 36.81 33.75 36.37
  C 33.47 34.92 31.54 34.61 30.48 33.51
  A 0.44 0.44 0.0 0 0 29.82 33.54
  Q 29.70 33.68 29.54 33.75
  Q 29.19 33.91 28.95 33.61
  L 26.47 30.47
  A 3.86 3.86 0.0 0 1 26.26 25.96
  L 27.53 23.99
  Q 27.87 23.46 27.46 22.99
  L 27.11 22.59
  A 0.87 0.86 -47.4 0 1 27.07 21.51
  L 34.01 12.05
  Q 35.58 9.91 33.27 11.04
  Q 32.88 11.23 31.75 12.50
  Q 28.17 16.51 24.44 20.38
  Q 24.10 20.73 24.34 21.17
  Q 25.02 22.42 26.14 23.37
  Q 26.25 23.46 26.09 23.62
  L 26.08 23.63
  Q 25.95 23.76 25.82 23.63
  Q 21.85 19.89 19.29 15.44
  Q 18.16 13.47 17.76 15.71
  Q 17.69 16.08 17.89 17.17
  A 0.24 0.24 0.0 0 1 17.43 17.31
  L 16.70 15.59
  Q 16.48 15.06 16.04 15.45
  Q 15.54 15.90 15.57 16.54
  Q 15.60 17.06 15.96 17.44
  L 24.16 25.86
  A 2.35 2.35 0.0 0 1 24.72 28.19
  Q 24.21 29.82 22.58 30.21
  Q 22.03 30.35 22.32 29.87
  L 22.80 29.08
  A 0.34 0.33 -86.3 0 0 22.38 28.60
  Q 19.22 30.02 20.07 33.14
  Q 20.30 34.00 19.49 34.36
  L 17.80 35.11
  A 0.73 0.71 -19.4 0 0 17.39 35.94
  L 17.47 36.27
  Q 17.63 36.91 18.19 36.56
  C 21.46 34.49 22.08 38.90 24.98 38.17
  Q 26.91 37.68 25.58 39.17
  C 23.29 41.72 22.00 38.84 19.88 38.33
  Q 19.14 38.16 18.99 38.89
  L 18.93 39.16
  A 0.82 0.82 0.0 0 0 19.49 40.12
  Q 20.74 40.49 21.04 40.66
  Q 22.71 41.61 21.74 43.11
  A 0.42 0.41 -52.9 0 1 21.13 43.20
  Q 20.96 43.05 20.88 42.89
  Q 20.63 42.36 20.38 42.89
  C 19.64 44.50 17.35 44.54 15.57 44.56
  Q 15.15 44.56 14.91 44.90
  Q 14.79 45.06 14.60 45.12
  Q 14.31 45.22 14.48 44.96
  L 15.23 43.81
  Q 15.54 43.33 16.11 43.33
  Q 17.35 43.35 18.00 43.15
  Q 20.70 42.34 18.15 41.15
  Q 18.10 41.12 17.59 41.22
  Q 17.08 41.32 16.87 40.83
  L 16.42 39.74
  A 0.82 0.80 -46.7 0 1 16.41 39.15
  L 16.94 37.82
  A 1.69 1.69 0.0 0 0 14.24 35.95
  C 12.67 37.36 11.56 39.95 8.93 38.78
  Q 8.07 38.40 8.96 38.10
  Q 9.91 37.78 10.51 36.98
  Q 10.84 36.52 10.29 36.64
  Q 6.35 37.52 4.39 40.94
  Q 4.26 41.16 4.30 40.91
  C 4.78 37.55 7.54 35.70 10.86 33.39
  Q 11.03 33.27 11.14 33.44
  L 11.15 33.44
  Q 11.27 33.62 11.17 33.69
  L 8.57 35.43
  A 0.24 0.24 0.0 0 0 8.57 35.82
  L 8.81 36.00
  Q 8.96 36.11 9.12 36.01
  Q 10.00 35.42 10.98 35.31
  A 1.69 1.65 77.4 0 0 12.34 33.11
  Q 12.26 32.89 11.75 32.48
  Q 11.44 32.23 11.35 32.00
  Q 11.21 31.67 11.27 31.34
  Q 11.42 30.67 12.02 31.00
  L 12.24 31.13
  A 0.43 0.43 0.0 0 0 12.88 30.81
  L 13.19 28.53
  A 0.42 0.42 0.0 0 1 13.91 28.30
  Q 14.26 28.66 14.84 28.71
  A 1.07 0.98 33.3 0 0 15.33 28.63
  Q 17.36 27.71 18.68 25.93
  Q 18.84 25.73 18.81 25.56
  Q 18.78 25.40 18.65 25.30
  A 0.25 0.24 -51.3 0 0 18.32 25.34
  Q 18.09 25.58 17.80 25.72
  A 0.39 0.39 0.0 0 1 17.25 25.29
  Q 17.52 23.82 18.31 22.56
  A 0.47 0.46 -55.5 0 1 18.98 22.43
  L 19.24 22.62
  Q 19.74 22.98 19.48 23.53
  L 19.14 24.26
  A 0.39 0.38 84.9 0 0 19.71 24.74
  Q 20.52 24.17 21.12 24.85
  A 0.25 0.25 0.0 0 0 21.53 24.82
  Q 21.64 24.66 21.51 24.53
  Q 19.28 22.10 17.08 19.65
  Q 16.57 19.08 15.86 18.91
  Q 15.40 18.80 15.08 18.46
  C 13.81 17.12 12.39 15.86 11.73 14.14
  Q 8.45 5.57 16.21 0.56
  Q 16.81 0.17 16.53 0.83
  Q 14.94 4.69 16.52 8.43
  Q 16.80 9.10 17.28 9.24
  Q 17.71 9.36 18.06 9.05
  Q 18.52 8.65 18.49 9.25
  Q 18.36 11.77 19.40 14.05
  Q 19.86 15.07 20.29 14.03
  Q 20.82 12.72 22.05 12.00
  Q 22.67 11.64 22.46 12.33
  Q 21.29 16.14 23.23 19.61
  A 0.47 0.46 50.6 0 0 23.99 19.69
  C 28.57 14.40 33.41 8.64 39.05 4.44
  Q 40.28 3.53 39.58 4.90
  C 36.48 10.99 32.16 15.98 28.19 21.53
  Q 27.76 22.14 28.50 22.21
  L 29.27 22.28
  Q 29.72 22.32 29.73 22.77
  L 29.76 25.02
  Q 29.77 25.58 30.32 25.68
  Q 30.93 25.79 31.43 26.10
  Q 31.81 26.34 32.06 26.72
  Q 32.74 27.76 33.98 28.05
  Z
  M 12.53 9.14
  Q 12.87 8.38 12.98 7.57
  Q 13.04 7.12 13.26 6.73
  L 14.88 3.84
  Q 15.65 2.48 14.41 3.43
  C 12.49 4.91 12.10 7.75 11.84 10.00
  Q 11.80 10.36 11.96 10.63
  A 0.22 0.22 0.0 0 0 12.37 10.52
  L 12.37 9.92
  Q 12.37 9.51 12.53 9.14
  Z
  M 15.10 12.52
  Q 14.90 10.71 15.98 12.17
  Q 16.46 12.82 17.19 13.73
  Q 17.35 13.93 17.53 14.01
  Q 17.69 14.08 17.83 14.08
  Q 18.33 14.11 18.24 13.62
  L 17.81 11.27
  Q 17.72 10.81 17.27 10.71
  L 16.54 10.55
  A 0.80 0.77 82.5 0 1 16.00 10.12
  Q 15.41 8.95 15.24 7.79
  Q 14.73 4.33 13.93 7.49
  L 12.96 11.31
  Q 12.87 11.69 13.03 12.06
  L 13.97 14.19
  Q 14.67 15.77 15.03 14.08
  Q 15.19 13.34 15.10 12.52
  Z
  M 34.12 19.38
  Q 33.61 17.44 35.27 16.27
  A 2.01 2.00 -25.0 0 1 38.37 17.40
  Q 38.61 18.29 39.16 19.04
  Q 39.81 19.92 39.59 18.84
  Q 39.14 16.75 37.94 15.70
  A 2.41 2.40 45.3 0 0 34.81 15.68
  Q 33.55 16.75 32.69 18.19
  Q 32.51 18.50 32.70 18.82
  Q 33.16 19.59 33.90 20.07
  Q 34.31 20.34 34.42 20.82
  Q 34.62 21.74 35.49 21.79
  Q 36.43 21.85 36.80 21.24
  Q 37.08 20.78 36.55 20.86
  Q 34.59 21.15 34.12 19.38
  Z
  M 36.64 18.92
  Q 37.15 18.73 36.69 18.45
  Q 35.88 17.96 35.18 18.54
  A 0.32 0.32 0.0 0 0 35.35 19.11
  Q 35.98 19.17 36.64 18.92
  Z
  M 39.39 21.55
  C 39.27 24.46 38.43 25.73 36.15 27.42
  Q 35.98 27.55 36.10 27.72
  L 36.10 27.73
  Q 36.23 27.93 36.46 27.79
  Q 39.93 25.60 39.82 21.51
  Q 39.81 21.35 39.60 21.36
  L 39.59 21.36
  Q 39.40 21.36 39.39 21.55
  Z
  M 23.30 26.48
  L 23.03 27.90
  Q 22.94 28.39 23.44 28.38
  Q 23.71 28.37 23.85 28.09
  Q 24.41 27.00 23.30 26.48
  Q 22.43 25.16 21.31 25.25
  Q 20.63 25.30 19.69 26.38
  Q 17.67 28.72 14.60 29.60
  Q 14.16 29.72 14.10 30.17
  Q 14.04 30.58 14.19 31.11
  A 0.80 0.80 0.0 0 0 15.63 31.35
  Q 16.63 29.88 18.25 29.21
  A 0.42 0.42 0.0 0 1 18.66 29.93
  Q 16.75 31.34 17.49 33.46
  A 0.65 0.65 0.0 0 0 18.75 33.32
  Q 19.21 29.24 22.47 26.73
  Q 22.68 26.57 22.95 26.57
  Q 23.10 26.57 23.30 26.48
  Z
  M 27.57 25.66
  A 0.20 0.20 0.0 0 0 27.19 25.76
  L 27.36 27.39
  A 0.81 0.81 0.0 0 1 26.96 28.17
  Q 26.37 28.52 26.06 29.15
  Q 25.99 29.29 26.10 29.42
  L 26.27 29.62
  A 0.28 0.28 0.0 0 0 26.66 29.65
  Q 28.57 27.97 27.57 25.66
  Z
  M 31.36 30.81
  Q 31.37 30.49 31.27 30.19
  A 0.23 0.23 0.0 0 0 30.84 30.16
  Q 30.36 31.13 29.40 31.09
  C 28.60 31.05 27.96 30.21 27.05 29.93
  A 0.14 0.14 0.0 0 0 26.87 30.03
  L 26.79 30.29
  A 0.36 0.36 0.0 0 0 27.05 30.74
  Q 28.12 31.03 29.00 31.70
  Q 29.42 32.02 29.91 31.81
  Q 31.06 31.34 31.93 32.19
  Q 32.06 32.31 32.24 32.27
  Q 32.37 32.24 32.50 32.21
  A 0.14 0.14 0.0 0 0 32.58 32.00
  Q 32.26 31.50 31.68 31.28
  Q 31.35 31.16 31.36 30.81
  Z
  M 13.61 34.11
  L 13.43 34.49
  A 0.32 0.31 -3.2 0 0 13.88 34.89
  L 15.62 33.84
  A 0.77 0.77 0.0 0 0 15.37 32.42
  Q 13.75 32.10 13.75 33.48
  Q 13.75 33.81 13.61 34.11
  Z"
/>
<path fill="#000000" fill-opacity="0.996" d="
  M 14.60 19.57
  L 15.03 19.29
  Q 15.26 19.14 15.37 19.39
  L 15.54 19.75
  A 0.39 0.38 67.8 0 1 15.33 20.27
  Q 12.44 21.38 14.00 24.03
  A 1.65 1.65 0.0 0 1 12.68 26.51
  Q 11.15 26.60 10.63 28.02
  Q 10.44 28.53 10.05 28.91
  Q 9.81 29.15 9.48 29.25
  Q 9.07 29.38 9.19 28.97
  Q 9.31 28.55 9.27 28.11
  Q 9.22 27.62 8.89 27.24
  Q 8.31 26.56 8.70 25.76
  A 1.39 1.37 -39.2 0 0 8.80 24.85
  Q 7.68 19.86 12.82 18.54
  Q 13.59 18.34 14.04 19.39
  Q 14.22 19.82 14.60 19.57
  Z
  M 9.05 22.87
  L 9.29 22.94
  Q 9.60 23.03 9.69 22.73
  Q 10.43 20.37 12.80 19.66
  Q 12.85 19.65 12.82 19.61
  L 12.68 19.32
  Q 12.61 19.20 12.48 19.23
  Q 9.49 19.80 8.98 22.76
  Q 8.96 22.85 9.05 22.87
  Z
  M 13.01 20.58
  L 10.91 23.40
  Q 10.62 23.81 11.09 23.63
  Q 11.79 23.37 12.53 23.58
  A 0.38 0.38 0.0 0 0 12.93 22.98
  Q 12.67 22.66 12.81 22.25
  Q 13.05 21.50 13.14 21.38
  L 13.47 20.93
  A 0.29 0.29 0.0 0 0 13.01 20.58
  Z
  M 12.63 24.63
  Q 11.86 25.15 11.60 25.35
  Q 10.40 26.31 11.84 26.12
  Q 13.15 25.93 13.62 24.72
  A 0.43 0.43 0.0 0 0 13.13 24.14
  Q 12.75 24.22 12.63 24.63
  Z"
/>
<path fill="#000000" fill-opacity="0.996" d="
  M 26.73 34.45
  Q 26.82 33.97 26.62 33.56
  Q 26.13 32.52 27.07 33.17
  L 27.85 33.70
  Q 28.31 34.02 28.17 34.56
  C 27.63 36.63 24.96 38.60 22.93 37.24
  Q 22.34 36.85 23.05 36.78
  Q 24.86 36.60 25.67 34.97
  A 0.60 0.59 -76.0 0 1 26.22 34.63
  Q 26.37 34.63 26.52 34.63
  Q 26.70 34.63 26.73 34.45
  Z"
/>
<path fill="#000000" fill-opacity="0.996" d="
  M 29.18 38.19
  Q 29.44 38.33 29.45 38.65
  A 0.35 0.35 0.0 0 1 29.13 39.01
  Q 27.82 39.13 26.73 39.72
  Q 26.32 39.95 26.34 39.48
  C 26.40 37.29 28.86 36.57 29.99 35.00
  A 0.28 0.28 0.0 0 1 30.47 35.03
  Q 30.70 35.46 30.37 36.03
  Q 30.14 36.44 29.74 36.70
  Q 29.20 37.05 28.98 37.71
  A 0.40 0.39 -67.9 0 0 29.18 38.19
  Z"
/>
</svg>
