<?xml version="1.0" encoding="UTF-8" standalone="no"?>
<!DOCTYPE svg PUBLIC "-//W3C//DTD SVG 1.1//EN" "http://www.w3.org/Graphics/SVG/1.1/DTD/svg11.dtd">
<svg xmlns="http://www.w3.org/2000/svg" version="1.1" viewBox="0.00 0.00 46.00 46.00">
<path fill="#000000" d="
  M 20.27 4.31
  L 22.34 5.86
  A 1.03 1.02 -36.7 0 0 23.32 6.00
  Q 24.03 5.73 24.27 4.99
  A 0.55 0.54 -88.9 0 1 24.64 4.63
  Q 25.26 4.45 25.60 4.11
  Q 26.04 3.69 25.45 3.52
  Q 24.37 3.22 24.16 4.17
  Q 23.99 4.93 23.66 4.23
  Q 23.27 3.42 23.62 2.56
  Q 23.83 2.06 24.38 2.11
  Q 26.40 2.30 28.17 3.37
  Q 28.66 3.67 28.18 3.98
  L 23.27 7.16
  Q 22.92 7.39 22.57 7.17
  L 17.49 3.99
  Q 17.11 3.75 17.48 3.49
  Q 19.29 2.26 21.52 2.09
  A 0.75 0.75 0.0 0 1 22.32 2.80
  L 22.41 4.33
  A 0.44 0.44 0.0 0 1 21.78 4.75
  Q 21.33 4.53 21.40 4.02
  A 0.65 0.64 -83.9 0 0 20.82 3.30
  Q 20.47 3.26 20.23 3.50
  Q 19.77 3.93 20.27 4.31
  Z"
/>
<path fill="#000000" d="
  M 13.58 5.99
  Q 13.48 5.37 13.73 4.94
  A 0.57 0.56 47.0 0 1 14.73 4.98
  L 16.21 8.00
  A 0.71 0.70 -29.5 0 1 15.96 8.89
  L 11.21 11.97
  A 0.26 0.25 59.9 0 1 10.84 11.87
  Q 10.08 10.36 8.72 9.31
  Q 8.27 8.96 8.64 8.53
  Q 10.35 6.57 12.50 5.80
  Q 13.04 5.61 13.21 6.01
  Q 13.77 7.28 13.58 5.99
  Z
  M 11.38 8.45
  Q 11.40 8.12 11.56 7.77
  Q 11.92 7.04 11.21 7.45
  Q 10.43 7.90 10.29 8.70
  A 0.97 0.96 82.7 0 0 11.63 9.74
  Q 13.23 9.02 14.41 7.74
  Q 14.65 7.49 14.42 7.23
  L 14.24 7.03
  Q 13.95 6.72 13.73 7.08
  Q 13.06 8.17 11.95 8.80
  Q 11.34 9.14 11.38 8.45
  Z"
/>
<path fill="#000000" d="
  M 8.12 19.55
  Q 10.92 12.08 18.44 9.51
  A 0.44 0.43 -34.0 0 0 18.59 8.77
  Q 17.04 7.43 16.52 5.47
  Q 16.24 4.41 17.15 5.02
  Q 19.01 6.26 21.18 7.83
  C 23.64 9.60 26.28 6.52 28.81 4.96
  Q 29.43 4.57 29.30 5.29
  Q 28.98 7.15 27.57 8.41
  Q 26.62 9.25 27.81 9.69
  Q 35.24 12.42 37.81 19.88
  A 0.26 0.26 0.0 0 0 38.25 19.97
  Q 39.72 18.41 41.90 18.11
  A 0.26 0.26 0.0 0 1 42.16 18.51
  Q 40.79 20.76 39.07 22.80
  C 37.25 24.96 40.95 28.48 42.07 30.40
  A 0.31 0.31 0.0 0 1 41.76 30.86
  Q 39.84 30.56 38.54 29.16
  A 0.59 0.58 33.8 0 0 37.56 29.35
  Q 35.00 36.23 28.16 38.87
  A 0.69 0.68 56.1 0 0 27.94 40.01
  Q 28.79 40.81 29.25 41.92
  Q 30.13 44.03 28.26 42.71
  L 24.39 39.96
  A 2.40 2.38 44.6 0 0 21.61 39.97
  L 17.15 43.21
  Q 16.65 43.56 16.65 42.95
  Q 16.64 41.27 17.97 40.23
  A 0.76 0.76 0.0 0 0 17.78 38.92
  Q 10.83 36.24 8.21 29.25
  A 0.34 0.34 0.0 0 0 7.64 29.14
  Q 6.31 30.62 4.29 30.99
  A 0.37 0.37 0.0 0 1 3.92 30.42
  Q 5.40 28.16 7.09 26.01
  C 8.51 24.19 5.60 21.26 4.69 20.04
  Q 2.76 17.42 5.76 18.77
  Q 6.61 19.15 7.31 19.75
  Q 7.86 20.23 8.12 19.55
  Z
  M 15.02 17.77
  Q 16.28 17.60 15.54 18.63
  Q 11.46 24.29 15.58 29.97
  A 0.49 0.48 68.4 0 1 15.25 30.74
  Q 12.84 31.04 12.17 28.76
  A 1.53 1.48 12.2 0 0 11.67 28.01
  L 10.66 27.16
  A 0.87 0.87 0.0 0 1 10.36 26.29
  Q 10.52 25.57 9.98 24.98
  A 0.74 0.74 0.0 0 0 8.71 25.66
  Q 11.24 35.19 18.97 37.51
  C 28.18 40.29 34.59 34.57 37.20 25.94
  A 1.25 1.25 0.0 0 0 36.27 24.36
  Q 36.13 24.33 35.90 24.79
  C 35.15 26.25 35.90 26.89 34.27 28.08
  Q 33.90 28.34 33.77 28.77
  Q 33.04 31.17 30.54 30.69
  A 0.37 0.37 0.0 0 1 30.31 30.11
  Q 34.48 24.36 30.37 18.57
  A 0.49 0.49 0.0 0 1 30.75 17.80
  Q 33.03 17.70 33.78 19.74
  Q 33.94 20.18 34.29 20.49
  Q 35.84 21.86 35.95 24.01
  A 0.34 0.34 0.0 0 0 36.55 24.20
  L 36.86 23.80
  A 1.26 1.25 -32.4 0 0 37.10 22.75
  C 33.69 6.43 12.80 6.03 8.98 22.38
  Q 8.36 25.05 10.47 23.31
  Q 10.56 23.24 10.31 22.45
  A 0.84 0.84 0.0 0 1 10.64 21.50
  Q 11.92 20.63 12.42 19.18
  A 1.91 1.90 5.6 0 1 13.99 17.90
  L 15.02 17.77
  Z"
/>
<path fill="#000000" d="
  M 32.59 5.68
  Q 35.32 6.34 37.16 8.59
  A 0.65 0.64 -37.3 0 1 37.03 9.52
  Q 35.91 10.30 35.23 11.50
  Q 34.86 12.16 34.23 11.75
  L 30.10 9.08
  Q 29.62 8.77 29.76 8.22
  Q 30.21 6.35 31.34 4.79
  A 0.30 0.30 0.0 0 1 31.86 4.84
  L 32.04 5.23
  Q 32.21 5.59 32.59 5.68
  Z
  M 34.25 8.83
  Q 32.18 8.49 32.44 6.65
  Q 32.62 5.33 31.92 6.43
  L 31.41 7.23
  Q 31.05 7.79 31.60 8.15
  L 33.95 9.68
  A 0.78 0.78 0.0 0 0 34.86 9.64
  Q 36.49 8.38 34.48 7.75
  Q 34.27 7.69 34.37 7.88
  Q 34.48 8.10 34.68 8.21
  A 0.17 0.17 0.0 0 1 34.73 8.47
  L 34.50 8.74
  A 0.26 0.26 0.0 0 1 34.25 8.83
  Z"
/>
<path fill="#000000" d="
  M 6.73 12.44
  Q 7.04 12.38 7.35 12.28
  A 0.37 0.36 9.0 0 1 7.76 12.84
  L 6.41 14.65
  A 0.66 0.62 -57.5 0 1 5.60 14.86
  L 4.31 14.20
  A 0.45 0.45 0.0 0 1 4.12 13.58
  Q 5.31 11.47 7.13 9.92
  A 0.62 0.61 47.5 0 1 7.96 9.96
  L 10.10 12.09
  A 0.67 0.67 0.0 0 1 10.20 12.91
  L 7.28 17.69
  Q 7.07 18.02 6.72 17.85
  Q 5.20 17.13 3.75 16.48
  Q 2.67 15.99 3.33 15.21
  A 0.88 0.87 42.9 0 1 4.63 15.17
  Q 5.19 15.75 6.02 15.82
  Q 6.57 15.87 6.87 15.40
  L 8.45 12.95
  Q 8.78 12.44 8.30 12.07
  Q 7.98 11.82 7.81 11.40
  A 0.44 0.43 -37.1 0 0 7.05 11.30
  L 6.48 12.04
  Q 6.10 12.55 6.73 12.44
  Z"
/>
<path fill="#000000" d="
  M 39.55 12.98
  Q 39.54 12.19 38.97 11.56
  Q 38.55 11.09 38.10 11.54
  L 37.45 12.18
  Q 37.02 12.61 37.37 13.11
  L 39.14 15.58
  A 0.79 0.78 -31.1 0 0 40.14 15.82
  L 41.62 15.08
  Q 42.09 14.84 42.42 15.25
  L 42.62 15.49
  A 0.48 0.48 0.0 0 1 42.46 16.23
  L 39.41 17.75
  Q 38.85 18.03 38.50 17.50
  L 35.54 12.92
  Q 35.30 12.56 35.60 12.25
  L 38.04 9.78
  A 0.50 0.50 0.0 0 1 38.79 9.82
  L 41.48 13.27
  Q 41.78 13.65 41.52 14.05
  Q 41.02 14.81 40.20 14.83
  Q 39.53 14.85 38.99 14.29
  Q 38.38 13.65 38.14 12.82
  Q 37.96 12.14 38.63 12.32
  Q 39.10 12.45 39.24 13.02
  A 0.16 0.16 0.0 0 0 39.55 12.98
  Z"
/>
<path fill="#000000" d="
  M 27.97 16.46
  Q 22.66 13.17 17.53 16.84
  A 0.67 0.67 0.0 0 1 16.47 16.28
  L 16.49 15.57
  Q 16.52 14.46 17.55 14.05
  C 19.03 13.45 19.73 12.17 21.11 11.73
  C 23.13 11.08 25.03 11.35 26.61 12.81
  C 27.49 13.63 28.73 13.96 29.38 14.86
  Q 30.12 15.89 29.18 16.46
  Q 28.58 16.83 27.97 16.46
  Z"
/>
<path fill="#000000" d="
  M 22.42 24.03
  Q 22.05 24.61 21.97 25.29
  Q 21.91 25.73 21.47 25.70
  Q 20.80 25.65 20.34 25.12
  A 1.01 1.01 0.0 0 1 20.40 23.74
  C 22.78 21.46 20.85 20.09 19.41 18.34
  A 0.40 0.40 0.0 0 1 19.73 17.69
  Q 21.52 17.70 22.46 16.24
  Q 22.75 15.79 23.25 16.00
  Q 23.64 16.16 23.81 16.55
  Q 24.09 17.17 24.74 17.34
  L 26.27 17.74
  Q 26.99 17.93 26.53 18.52
  Q 26.08 19.11 25.43 19.50
  A 1.54 1.53 -6.3 0 0 24.77 20.32
  C 24.06 22.36 25.67 22.77 25.78 24.29
  Q 25.84 25.21 24.98 25.58
  Q 24.00 26.00 23.99 24.93
  Q 23.98 24.10 23.24 23.78
  Q 22.72 23.56 22.42 24.03
  Z"
/>
<path fill="#000000" d="
  M 20.68 20.62
  Q 21.33 21.29 20.50 21.70
  L 19.49 22.19
  A 1.21 1.20 55.1 0 1 18.06 21.93
  L 16.52 20.27
  A 0.78 0.78 0.0 0 1 17.12 18.96
  Q 19.17 19.05 20.68 20.62
  Z"
/>
<path fill="#000000" d="
  M 27.12 19.31
  Q 28.20 18.52 29.35 19.15
  A 0.61 0.61 0.0 0 1 29.59 19.99
  C 28.69 21.57 27.25 23.18 25.38 21.58
  Q 24.94 21.21 25.26 20.74
  C 25.70 20.10 26.52 19.75 27.12 19.31
  Z"
/>
<path fill="#000000" d="
  M 2.23 22.27
  L 2.22 22.75
  Q 2.21 23.44 2.90 23.39
  Q 3.51 23.35 3.58 23.41
  Q 4.68 24.36 3.25 24.29
  L 1.76 24.22
  A 0.81 0.79 -86.3 0 1 1.00 23.34
  Q 1.22 21.27 2.26 19.46
  Q 2.62 18.83 3.01 19.43
  L 6.32 24.53
  Q 6.64 25.02 6.15 25.32
  L 5.51 25.71
  Q 4.82 26.14 4.84 25.33
  Q 4.91 22.92 2.84 21.90
  Q 2.24 21.59 2.23 22.27
  Z"
/>
<path fill="#000000" d="
  M 43.65 27.01
  Q 43.77 26.77 43.57 26.38
  Q 43.24 25.72 42.32 25.49
  Q 41.98 25.41 42.14 25.09
  L 42.31 24.73
  Q 42.47 24.41 42.79 24.58
  Q 43.56 24.98 44.44 25.04
  A 0.60 0.60 0.0 0 1 45.00 25.70
  Q 44.78 27.98 43.52 29.93
  A 0.34 0.33 -38.8 0 1 42.92 29.87
  Q 42.51 28.76 41.69 27.92
  Q 41.27 27.49 41.26 26.89
  Q 41.25 26.11 40.56 25.68
  Q 38.61 24.50 40.75 23.19
  Q 41.30 22.85 41.21 22.13
  Q 41.15 21.59 41.53 21.21
  Q 42.26 20.49 42.68 19.61
  Q 43.28 18.35 43.84 19.63
  L 44.99 22.22
  A 1.12 1.09 80.8 0 1 43.89 23.79
  Q 43.37 23.74 42.27 24.17
  Q 42.25 24.18 42.23 24.15
  L 42.01 23.92
  A 0.18 0.18 0.0 0 1 42.10 23.62
  Q 43.21 23.35 43.43 22.98
  Q 44.53 21.10 42.56 22.04
  Q 41.30 22.65 41.26 24.44
  C 41.24 25.57 42.14 26.44 42.92 27.15
  Q 43.37 27.57 43.65 27.01
  Z"
/>
<path fill="#000000" d="
  M 24.76 26.26
  Q 26.22 25.90 26.44 24.50
  Q 26.65 23.22 27.84 22.72
  Q 29.71 21.91 30.43 22.50
  Q 30.94 22.91 30.49 23.38
  C 27.90 26.07 25.65 30.01 21.17 28.47
  C 19.00 27.72 17.24 25.02 15.46 23.33
  A 0.50 0.50 0.0 0 1 15.57 22.52
  L 16.14 22.22
  A 1.41 1.41 0.0 0 1 17.86 22.54
  Q 18.34 23.08 19.03 23.33
  A 0.80 0.78 8.9 0 1 19.56 24.04
  Q 19.63 25.72 21.28 26.23
  Q 21.72 26.37 22.11 26.13
  Q 23.02 25.59 23.93 26.14
  Q 24.32 26.38 24.76 26.26
  Z"
/>
<path fill="#000000" d="
  M 2.80 27.34
  Q 3.31 27.02 3.55 26.57
  Q 4.46 24.94 4.92 26.67
  Q 4.94 26.75 4.84 27.19
  Q 4.73 27.67 4.35 27.98
  Q 3.39 28.76 3.06 29.97
  A 0.37 0.37 0.0 0 1 2.38 30.04
  Q 1.70 28.74 1.22 27.25
  Q 0.84 26.07 1.22 25.45
  Q 1.53 24.94 2.07 25.20
  L 2.53 25.43
  Q 3.03 25.67 2.66 26.08
  Q 2.32 26.48 2.25 26.99
  A 0.36 0.36 0.0 0 0 2.80 27.34
  Z"
/>
<path fill="#000000" d="
  M 20.69 29.42
  Q 21.21 29.51 21.29 29.53
  A 0.81 0.81 0.0 0 1 21.46 31.05
  C 17.99 32.80 16.91 29.18 16.19 26.69
  Q 16.06 26.24 16.53 26.25
  Q 17.15 26.26 17.43 26.58
  Q 18.66 28.01 20.15 29.18
  Q 20.38 29.37 20.69 29.42
  Z"
/>
<path fill="#000000" d="
  M 29.81 26.69
  C 29.30 29.55 27.65 32.99 24.18 30.71
  A 0.65 0.65 0.0 0 1 24.55 29.51
  C 26.92 29.55 27.63 26.45 29.44 26.29
  Q 29.89 26.25 29.81 26.69
  Z"
/>
<path fill="#000000" d="
  M 7.40 35.42
  Q 7.58 35.49 7.76 35.55
  Q 8.09 35.65 7.95 35.97
  L 7.81 36.27
  Q 7.53 36.88 7.04 36.43
  Q 6.79 36.20 6.51 36.04
  Q 6.02 35.78 6.24 36.29
  Q 6.56 37.03 7.19 37.52
  Q 7.62 37.86 7.88 37.37
  Q 8.03 37.09 8.31 36.91
  A 0.74 0.74 0.0 0 0 8.52 35.85
  L 6.81 33.47
  A 0.80 0.79 60.9 0 0 5.86 33.19
  L 4.02 33.94
  A 0.45 0.45 0.0 0 1 3.49 33.79
  L 3.32 33.55
  A 0.62 0.61 -30.7 0 1 3.56 32.63
  L 6.18 31.38
  Q 7.05 30.97 7.58 31.77
  L 10.12 35.63
  Q 10.63 36.40 9.98 37.05
  L 8.01 39.04
  Q 7.45 39.60 6.97 38.98
  L 4.30 35.56
  Q 3.92 35.07 4.46 34.77
  L 5.48 34.18
  A 0.88 0.87 49.4 0 1 6.47 34.26
  Q 6.90 34.60 7.08 35.11
  Q 7.16 35.34 7.40 35.42
  Z"
/>
<path fill="#000000" d="
  M 39.04 37.32
  Q 39.06 37.20 39.04 37.06
  Q 39.02 36.94 38.90 36.88
  Q 38.35 36.63 38.29 36.06
  Q 38.24 35.56 38.66 35.28
  Q 39.15 34.94 39.38 34.36
  A 0.76 0.76 0.0 0 1 40.53 34.02
  L 41.44 34.68
  Q 42.06 35.12 41.59 35.72
  L 38.88 39.10
  A 0.49 0.49 0.0 0 1 38.15 39.14
  L 35.60 36.57
  A 0.58 0.57 -46.1 0 1 35.59 35.77
  Q 37.39 33.82 38.36 31.35
  A 0.65 0.64 -65.8 0 1 39.25 31.01
  L 42.62 32.69
  A 0.38 0.37 21.5 0 1 42.81 33.12
  L 42.70 33.52
  Q 42.51 34.19 41.87 33.89
  L 40.21 33.11
  Q 39.66 32.85 39.29 33.34
  L 37.50 35.72
  Q 37.15 36.18 37.44 36.67
  Q 37.88 37.40 38.62 37.60
  Q 38.99 37.71 39.04 37.32
  Z"
/>
<path fill="#000000" d="
  M 22.77 37.43
  C 21.97 37.03 21.88 36.87 20.94 36.75
  Q 20.39 36.68 20.06 36.23
  Q 19.23 35.09 17.90 34.63
  A 1.98 1.97 -86.6 0 1 16.60 33.16
  L 16.38 32.13
  A 0.52 0.51 11.0 0 1 17.17 31.60
  Q 23.02 35.55 28.89 31.66
  A 0.58 0.58 0.0 0 1 29.78 32.23
  L 29.65 33.07
  A 1.95 1.95 0.0 0 1 28.38 34.60
  Q 26.91 35.13 25.93 36.39
  A 1.01 1.01 0.0 0 1 25.04 36.78
  Q 24.18 36.70 23.57 37.30
  Q 23.22 37.65 22.77 37.43
  Z"
/>
<path fill="#000000" d="
  M 13.06 43.28
  Q 10.52 42.44 8.74 40.42
  Q 8.29 39.91 8.85 39.53
  Q 10.08 38.69 10.75 37.34
  A 0.56 0.56 0.0 0 1 11.55 37.11
  L 16.10 40.04
  A 0.66 0.66 0.0 0 1 16.33 40.88
  L 14.80 44.01
  A 0.49 0.49 0.0 0 1 14.05 44.17
  Q 13.90 44.04 13.81 43.89
  Q 13.55 43.44 13.06 43.28
  Z
  M 10.70 40.90
  Q 10.87 41.40 11.33 41.50
  Q 11.92 41.63 11.57 41.14
  L 11.31 40.76
  Q 10.81 40.05 11.67 40.17
  Q 13.77 40.45 13.46 42.40
  Q 13.35 43.13 13.81 42.56
  L 14.48 41.73
  A 0.59 0.59 0.0 0 0 14.35 40.87
  L 12.13 39.38
  A 0.93 0.92 -44.3 0 0 11.10 39.37
  Q 9.80 40.22 10.39 40.54
  Q 10.61 40.66 10.70 40.90
  Z"
/>
<path fill="#000000" d="
  M 34.87 41.25
  Q 35.81 40.73 35.66 39.82
  A 0.96 0.96 0.0 0 0 34.19 39.17
  L 31.33 41.02
  A 0.32 0.31 43.3 0 0 31.35 41.56
  Q 32.71 42.35 32.24 43.80
  A 0.57 0.57 0.0 0 1 31.19 43.89
  L 29.76 41.05
  A 0.90 0.89 -30.1 0 1 30.07 39.90
  L 34.37 37.11
  A 0.54 0.53 52.7 0 1 35.07 37.21
  L 37.26 39.78
  A 0.63 0.63 0.0 0 1 37.15 40.70
  L 34.07 42.95
  Q 33.33 43.49 32.86 42.69
  L 32.53 42.11
  A 0.87 0.87 0.0 0 1 32.80 40.95
  L 34.11 40.07
  Q 34.68 39.70 34.66 40.37
  Q 34.65 40.69 34.55 40.98
  Q 34.34 41.55 34.87 41.25
  Z"
/>
<path fill="#000000" d="
  M 24.84 46.00
  L 24.26 46.00
  Q 22.98 44.89 23.79 43.35
  A 0.39 0.39 0.0 0 1 24.52 43.50
  L 24.58 44.30
  A 0.53 0.53 0.0 0 0 25.30 44.75
  L 25.59 44.64
  A 0.43 0.43 0.0 0 0 25.74 43.93
  Q 24.80 42.99 23.63 42.12
  Q 22.76 41.47 22.12 42.46
  Q 21.90 42.82 22.09 43.19
  Q 22.56 44.14 22.43 45.22
  Q 22.36 45.79 21.79 45.81
  Q 19.58 45.88 17.78 44.69
  Q 17.23 44.33 17.79 43.99
  L 21.70 41.58
  Q 22.08 41.35 22.32 40.97
  L 22.51 40.68
  Q 22.71 40.37 23.02 40.58
  L 28.27 44.07
  Q 28.70 44.36 28.27 44.65
  Q 26.76 45.65 24.84 46.00
  Z
  M 21.4937 43.5541
  A 0.82 0.59 -45.6 0 0 20.4985 43.7272
  A 0.82 0.59 -45.6 0 0 20.3463 44.7259
  A 0.82 0.59 -45.6 0 0 21.3415 44.5528
  A 0.82 0.59 -45.6 0 0 21.4937 43.5541
  Z"
/>
</svg>
