<?xml version="1.0" encoding="UTF-8" standalone="no"?>
<!DOCTYPE svg PUBLIC "-//W3C//DTD SVG 1.1//EN" "http://www.w3.org/Graphics/SVG/1.1/DTD/svg11.dtd">
<svg xmlns="http://www.w3.org/2000/svg" version="1.1" viewBox="0.00 0.00 46.00 46.00">
<path fill="#000000" d="
  M 28.90 15.13
  Q 28.24 15.94 27.21 15.62
  A 0.77 0.77 0.0 0 0 26.28 16.06
  Q 26.03 16.68 26.37 17.83
  Q 26.56 18.48 26.04 18.05
  Q 25.60 17.68 24.98 17.64
  Q 24.29 17.59 24.43 18.27
  L 25.29 22.35
  A 0.54 0.50 57.7 0 1 25.22 22.73
  L 23.27 25.96
  A 0.18 0.18 0.0 0 1 22.96 25.96
  L 21.05 22.72
  Q 20.80 22.30 20.95 21.84
  L 21.94 18.92
  A 0.99 0.99 0.0 0 0 20.97 17.61
  Q 20.64 17.62 20.35 17.76
  Q 19.95 17.95 19.99 17.51
  Q 20.16 15.91 17.92 15.12
  A 0.96 0.96 0.0 0 0 16.69 16.34
  Q 18.65 22.00 22.35 26.62
  Q 22.74 27.10 22.35 27.58
  L 20.08 30.38
  Q 19.71 30.85 19.31 30.40
  Q 18.57 29.57 18.01 29.17
  Q 17.43 28.76 16.77 29.13
  Q 16.29 29.39 15.85 29.07
  L 12.22 26.41
  A 0.81 0.77 -28.2 0 0 11.67 26.26
  L 10.59 26.36
  Q 9.93 26.42 10.34 25.90
  Q 10.96 25.09 11.29 24.13
  Q 11.50 23.50 10.88 23.26
  Q 8.82 22.46 7.77 24.30
  Q 7.54 24.69 7.19 24.41
  C 4.26 22.11 3.46 18.63 2.97 15.12
  C 2.71 13.29 1.78 12.40 0.58 11.18
  Q 0.01 10.60 0.80 10.78
  Q 2.22 11.10 3.23 12.16
  Q 3.58 12.54 4.10 12.52
  Q 4.72 12.49 5.29 12.75
  Q 5.86 13.00 5.42 13.44
  L 5.19 13.67
  A 1.27 1.26 -23.7 0 0 4.81 14.64
  C 4.91 17.19 6.17 20.14 9.08 20.16
  Q 9.58 20.17 9.42 19.69
  Q 9.00 18.43 8.46 17.27
  Q 8.19 16.71 8.70 16.18
  Q 8.89 15.98 9.05 16.21
  L 10.01 17.69
  Q 10.37 18.25 11.02 18.05
  Q 11.52 17.90 11.86 17.54
  Q 12.22 17.17 12.02 16.70
  C 10.83 13.86 10.90 11.34 7.71 9.25
  Q 7.31 8.98 7.20 8.51
  Q 6.66 6.06 5.33 3.93
  Q 5.23 3.77 5.36 3.64
  L 5.59 3.41
  A 0.43 0.43 0.0 0 1 6.21 3.42
  L 9.62 7.10
  Q 9.90 7.40 9.87 7.82
  C 9.72 9.90 13.42 13.64 14.96 14.82
  A 0.86 0.86 0.0 0 0 16.34 14.07
  L 16.20 12.31
  Q 16.14 11.46 16.56 12.20
  Q 17.34 13.55 17.94 12.33
  A 1.12 1.08 -34.6 0 0 18.04 11.83
  Q 17.80 8.45 19.25 6.89
  Q 22.14 3.78 19.89 7.38
  Q 19.12 8.62 19.28 12.02
  Q 19.33 12.98 20.56 12.40
  Q 20.98 12.21 21.22 11.81
  C 22.40 9.86 24.35 10.52 25.52 12.06
  Q 26.79 13.76 26.98 11.64
  Q 27.19 9.14 25.67 6.15
  Q 25.56 5.95 25.59 5.83
  Q 25.63 5.68 25.77 5.63
  Q 25.90 5.58 26.00 5.69
  Q 28.29 8.33 28.43 11.89
  Q 28.45 12.36 28.65 12.57
  Q 28.97 12.92 29.44 12.80
  Q 30.29 12.60 30.04 13.00
  Q 29.88 13.23 29.89 13.50
  A 1.03 0.14 88.6 0 0 30.04 14.45
  L 30.88 14.86
  Q 31.45 15.14 31.73 14.57
  C 32.40 13.22 33.55 12.87 34.34 11.85
  Q 35.91 9.84 36.48 7.39
  A 0.71 0.68 73.2 0 1 36.65 7.06
  L 40.14 3.25
  Q 40.20 3.19 40.27 3.23
  L 40.50 3.37
  Q 40.97 3.66 40.67 4.13
  Q 39.32 6.25 39.05 8.75
  A 0.77 0.77 0.0 0 1 38.42 9.41
  C 36.00 9.82 35.20 14.56 34.15 16.51
  A 0.79 0.79 0.0 0 0 34.16 17.28
  Q 34.43 17.77 34.92 18.05
  A 0.78 0.76 -53.9 0 0 35.87 17.89
  L 37.17 16.46
  Q 37.35 16.26 37.56 16.42
  L 37.77 16.60
  Q 37.84 16.65 37.82 16.74
  L 36.92 19.53
  Q 36.75 20.07 37.32 20.08
  C 40.08 20.10 41.04 17.30 41.37 14.89
  Q 41.43 14.42 41.16 14.03
  L 40.80 13.51
  Q 40.42 12.97 41.02 12.67
  Q 41.46 12.45 41.97 12.52
  Q 42.52 12.59 42.92 12.20
  Q 43.90 11.26 45.20 10.84
  Q 45.96 10.60 45.47 11.23
  L 43.39 13.95
  A 1.34 1.33 64.3 0 0 43.11 14.77
  Q 43.10 20.54 39.09 24.55
  A 0.51 0.51 0.0 0 1 38.26 24.38
  Q 37.59 22.68 35.89 23.08
  A 1.21 1.20 65.5 0 0 35.19 24.96
  L 36.08 26.19
  A 0.25 0.25 0.0 0 1 35.78 26.56
  C 33.61 25.65 31.92 28.13 30.36 29.00
  Q 29.92 29.24 29.43 29.14
  Q 28.18 28.87 27.23 29.93
  C 22.69 34.94 17.06 42.24 10.11 42.87
  Q 4.53 43.37 9.74 41.30
  C 16.12 38.77 25.06 25.80 28.45 19.25
  A 2.32 2.13 61.9 0 0 28.69 18.32
  Q 28.73 17.32 29.36 16.35
  Q 29.78 15.69 29.36 15.14
  Q 29.14 14.85 28.90 15.13
  Z
  M 23.83 12.53
  L 23.95 14.41
  Q 24.03 15.63 24.80 14.69
  Q 25.66 13.64 24.52 11.97
  Q 24.27 11.62 23.85 11.52
  C 21.57 10.98 20.04 13.59 21.69 15.24
  Q 22.29 15.84 22.35 14.99
  L 22.49 13.05
  Q 22.52 12.50 23.05 12.33
  L 23.38 12.22
  A 0.35 0.34 79.0 0 1 23.83 12.53
  Z
  M 15.80 25.99
  Q 14.12 26.79 16.16 28.19
  A 1.32 1.31 -41.7 0 0 17.51 28.26
  Q 18.72 27.61 18.00 25.76
  C 17.46 24.40 15.16 20.78 13.00 20.06
  Q 12.74 19.97 12.78 20.24
  L 13.18 22.79
  A 0.65 0.65 0.0 0 0 13.73 23.34
  Q 14.43 23.44 14.75 24.01
  A 0.27 0.27 0.0 0 1 14.60 24.39
  Q 14.35 24.47 14.11 24.40
  Q 13.44 24.19 13.64 24.86
  Q 13.75 25.26 14.16 25.39
  Q 14.40 25.46 14.83 25.31
  Q 15.50 25.08 15.88 25.41
  Q 16.28 25.76 15.80 25.99
  Z
  M 31.63 23.66
  Q 32.00 23.46 32.41 23.42
  A 0.68 0.67 0.5 0 0 33.02 22.83
  L 33.33 20.17
  Q 33.42 19.43 32.84 19.90
  Q 29.83 22.37 28.14 25.91
  A 1.66 1.65 37.8 0 0 28.37 27.69
  Q 30.10 29.73 31.04 27.27
  Q 31.15 26.96 31.06 26.71
  Q 30.91 26.35 30.57 26.14
  Q 30.10 25.83 30.48 25.42
  Q 30.63 25.25 30.83 25.14
  Q 31.16 24.97 31.35 25.29
  Q 31.57 25.66 31.99 25.47
  Q 32.32 25.32 32.52 25.06
  Q 32.92 24.57 32.29 24.48
  L 31.76 24.40
  Q 30.51 24.23 31.63 23.66
  Z
  M 23.0347 23.0751
  A 1.35 0.91 94.9 0 0 24.0567 21.8077
  A 1.35 0.91 94.9 0 0 23.2653 20.3849
  A 1.35 0.91 94.9 0 0 22.2433 21.6523
  A 1.35 0.91 94.9 0 0 23.0347 23.0751
  Z"
/>
<path fill="#000000" d="
  M 27.23 32.26
  C 30.40 37.20 34.04 39.65 39.25 42.25
  Q 39.81 42.52 39.21 42.70
  C 33.45 44.38 28.10 38.84 24.35 35.41
  Q 23.68 34.79 24.31 34.13
  L 26.17 32.16
  Q 26.77 31.54 27.23 32.26
  Z"
/>
</svg>
