<?xml version="1.0" encoding="UTF-8" standalone="no"?>
<!DOCTYPE svg PUBLIC "-//W3C//DTD SVG 1.1//EN" "http://www.w3.org/Graphics/SVG/1.1/DTD/svg11.dtd">
<svg xmlns="http://www.w3.org/2000/svg" version="1.1" viewBox="0.00 0.00 46.00 46.00">
<path fill="#000000" d="
  M 24.18 4.75
  L 24.08 8.96
  Q 24.06 9.55 24.36 10.06
  L 25.01 11.16
  Q 25.28 11.62 24.88 11.96
  Q 24.55 12.23 24.27 12.50
  Q 24.03 12.73 23.97 13.03
  Q 23.72 14.15 24.44 14.69
  Q 24.84 14.98 25.26 14.73
  L 29.00 12.60
  Q 31.51 11.16 30.27 13.78
  Q 29.59 15.19 28.38 16.31
  A 0.95 0.91 -20.8 0 0 28.08 16.94
  L 27.95 19.08
  A 0.89 0.88 -13.5 0 1 27.51 19.79
  Q 26.85 20.17 27.00 21.00
  Q 27.09 21.50 27.44 21.87
  Q 28.37 22.85 27.36 24.07
  Q 27.11 24.38 26.71 24.33
  L 26.28 24.27
  Q 25.74 24.20 25.74 24.75
  C 25.77 30.47 26.46 36.60 24.44 42.02
  Q 23.67 44.09 23.68 41.88
  L 23.78 21.96
  Q 23.78 21.41 24.33 21.48
  Q 24.94 21.56 25.51 21.33
  Q 25.77 21.22 25.69 20.95
  L 25.61 20.69
  Q 25.50 20.28 25.07 20.30
  Q 23.91 20.34 23.66 19.55
  Q 23.54 19.18 23.89 18.27
  Q 24.08 17.78 24.16 17.22
  A 0.62 0.62 0.0 0 0 23.70 16.54
  Q 23.12 16.39 22.51 16.49
  Q 21.90 16.59 21.93 17.21
  Q 21.96 17.96 22.35 18.59
  Q 22.62 19.02 22.45 19.50
  Q 22.12 20.38 21.07 20.21
  A 0.50 0.49 5.0 0 0 20.49 20.69
  Q 20.49 20.88 20.49 21.06
  Q 20.48 21.33 20.75 21.35
  L 21.73 21.42
  Q 22.25 21.45 22.25 21.98
  L 22.35 41.29
  Q 22.36 43.32 21.48 41.49
  C 19.42 37.25 20.23 29.47 20.36 24.80
  Q 20.37 24.17 19.74 24.25
  L 19.35 24.30
  A 0.74 0.74 0.0 0 1 18.58 23.86
  L 18.21 22.98
  Q 18.01 22.52 18.37 22.17
  Q 19.78 20.76 18.33 19.48
  A 0.91 0.89 19.7 0 1 18.03 18.86
  L 17.96 16.92
  Q 17.94 16.30 17.44 15.93
  Q 15.56 14.54 15.72 12.27
  Q 15.75 11.71 16.23 12.00
  L 21.02 14.87
  A 0.62 0.61 17.2 0 0 21.95 14.38
  L 22.03 13.22
  Q 22.07 12.53 21.49 12.16
  Q 21.04 11.87 21.00 11.42
  Q 20.97 11.14 21.30 10.68
  C 22.56 8.92 21.78 6.91 21.93 4.74
  Q 21.98 4.14 21.47 4.47
  Q 20.97 4.81 20.36 4.97
  Q 19.84 5.10 19.78 4.57
  L 19.64 3.37
  Q 19.59 2.95 20.01 2.96
  L 21.33 2.99
  A 0.52 0.51 86.3 0 0 21.85 2.39
  L 21.70 1.46
  Q 21.63 1.06 22.04 1.06
  L 24.05 1.06
  Q 24.56 1.06 24.44 1.55
  L 24.26 2.31
  A 0.56 0.56 0.0 0 0 24.81 3.00
  L 26.00 2.99
  Q 26.52 2.98 26.47 3.50
  L 26.36 4.64
  Q 26.31 5.16 25.81 5.04
  Q 25.16 4.88 24.62 4.52
  Q 24.19 4.24 24.18 4.75
  Z
  M 17.47 15.43
  C 19.33 15.71 19.56 17.47 20.01 18.88
  Q 20.06 19.03 20.21 19.04
  Q 20.36 19.04 20.50 19.05
  Q 20.72 19.06 20.72 18.84
  Q 20.67 15.48 17.33 14.71
  Q 17.24 14.69 17.22 14.79
  L 17.18 15.04
  Q 17.13 15.38 17.47 15.43
  Z
  M 28.47 14.64
  Q 25.52 15.76 25.26 18.99
  Q 25.25 19.14 25.40 19.15
  L 25.87 19.16
  A 0.31 0.31 0.0 0 0 26.19 18.87
  Q 26.37 16.13 28.86 15.14
  A 0.14 0.03 -23.7 0 0 28.98 15.05
  L 28.85 14.78
  A 0.31 0.30 64.8 0 0 28.47 14.64
  Z"
/>
<path fill="#000000" d="
  M 39.97 13.78
  Q 39.79 14.84 38.80 15.33
  C 37.48 15.99 35.73 15.00 34.61 14.25
  A 0.22 0.21 -69.0 0 0 34.28 14.40
  L 34.20 14.84
  Q 34.17 15.03 34.35 15.12
  L 37.15 16.44
  A 0.55 0.55 0.0 0 1 37.27 17.36
  L 37.07 17.53
  A 1.12 1.12 0.0 0 1 35.77 17.64
  Q 34.50 16.90 33.56 15.80
  Q 33.53 15.76 33.48 15.79
  L 33.23 15.96
  Q 33.02 16.11 33.17 16.32
  Q 34.05 17.61 35.36 18.47
  A 0.53 0.52 59.1 0 1 35.12 19.43
  Q 33.23 19.61 32.58 17.74
  Q 32.57 17.71 32.54 17.72
  L 32.26 17.82
  Q 32.09 17.88 32.13 18.06
  Q 32.43 19.37 33.27 20.45
  Q 33.67 20.97 33.14 21.34
  Q 30.86 22.91 29.38 25.22
  Q 28.78 26.15 28.73 25.04
  L 28.52 21.04
  Q 28.47 19.91 29.39 19.24
  C 32.24 17.19 34.33 11.14 30.96 8.27
  Q 30.56 7.93 30.63 7.41
  C 30.81 6.09 31.14 3.88 32.43 3.06
  Q 33.02 2.68 32.73 3.31
  C 29.37 10.54 42.82 7.55 44.99 6.63
  Q 45.31 6.49 45.53 6.77
  Q 45.70 6.98 45.45 7.21
  C 44.49 8.11 43.86 9.19 42.61 9.63
  Q 38.81 10.96 34.74 10.19
  Q 34.55 10.16 34.52 10.35
  L 34.47 10.64
  Q 34.40 11.02 34.78 11.08
  Q 38.07 11.63 41.24 10.81
  Q 43.55 10.22 41.99 11.86
  Q 41.60 12.28 40.45 13.03
  Q 40.05 13.30 39.97 13.78
  Z
  M 39.47 12.95
  L 34.96 12.37
  Q 34.46 12.31 34.87 12.59
  Q 36.94 14.02 39.49 13.43
  A 0.25 0.24 -47.7 0 0 39.47 12.95
  Z"
/>
<path fill="#000000" d="
  M 13.46 17.98
  Q 12.70 19.77 11.31 19.30
  Q 9.86 18.81 11.19 18.05
  Q 12.24 17.45 12.89 16.34
  Q 12.94 16.24 12.86 16.18
  L 12.66 16.01
  A 0.28 0.27 -47.4 0 0 12.29 16.03
  Q 11.40 16.94 10.30 17.44
  Q 8.90 18.08 8.71 16.91
  A 0.72 0.71 77.7 0 1 9.22 16.11
  Q 11.61 15.44 11.66 15.25
  Q 12.23 13.31 10.60 14.64
  Q 8.09 16.70 6.09 14.19
  A 0.45 0.45 0.0 0 1 6.50 13.46
  Q 8.96 13.80 11.12 12.70
  A 0.14 0.14 0.0 0 0 11.04 12.44
  L 6.18 12.94
  Q 5.73 12.99 5.36 12.75
  Q 4.27 12.05 3.88 11.65
  Q 2.22 9.98 4.51 10.68
  Q 7.56 11.61 10.75 11.07
  Q 13.23 10.66 10.74 10.35
  C 7.23 9.92 2.35 11.13 0.60 6.86
  Q 0.34 6.21 0.98 6.49
  Q 6.60 8.96 12.64 7.50
  A 1.80 1.80 0.0 0 0 13.78 4.87
  Q 13.40 4.20 13.49 3.48
  Q 13.65 2.34 14.19 3.36
  Q 15.14 5.16 15.44 7.20
  Q 15.51 7.73 15.14 8.11
  C 11.82 11.43 13.76 17.24 17.14 19.63
  Q 17.60 19.96 17.57 20.52
  L 17.34 24.76
  Q 17.26 26.10 16.52 24.99
  Q 15.12 22.88 13.04 21.38
  Q 12.61 21.07 12.84 20.59
  L 14.04 18.05
  Q 14.09 17.94 14.03 17.92
  L 13.79 17.83
  Q 13.56 17.75 13.46 17.98
  Z"
/>
</svg>
