<?xml version="1.0" encoding="UTF-8" standalone="no"?>
<!DOCTYPE svg PUBLIC "-//W3C//DTD SVG 1.1//EN" "http://www.w3.org/Graphics/SVG/1.1/DTD/svg11.dtd">
<svg xmlns="http://www.w3.org/2000/svg" version="1.1" viewBox="0.00 0.00 420.00 420.00">
<path fill="#000000" d="
  M 210.81 52.90
  Q 210.02 51.96 209.23 52.90
  Q 188.72 77.31 170.00 101.08
  Q 162.54 110.54 160.02 122.25
  A 0.30 0.30 0.0 0 1 159.56 122.44
  L 122.22 97.83
  Q 121.79 97.55 121.27 97.56
  L 107.66 97.90
  Q 107.14 97.91 107.02 97.40
  L 93.08 34.49
  Q 91.77 28.59 94.52 33.97
  Q 104.63 53.71 121.59 71.66
  Q 130.56 81.15 143.74 86.22
  C 151.38 89.16 154.73 84.17 158.30 78.72
  C 175.30 52.78 191.94 26.45 209.87 1.17
  A 0.25 0.25 0.0 0 1 210.28 1.18
  C 212.90 5.40 216.37 9.79 218.77 13.40
  Q 240.48 46.12 262.03 78.95
  C 265.48 84.19 268.72 89.15 276.07 86.45
  C 285.30 83.06 292.27 77.89 299.45 70.36
  Q 315.65 53.33 325.50 33.98
  Q 328.27 28.53 326.95 34.50
  L 313.04 97.26
  A 0.81 0.80 -83.1 0 1 312.23 97.90
  L 298.75 97.56
  Q 298.24 97.55 297.81 97.83
  L 260.49 122.43
  A 0.42 0.42 0.0 0 1 259.85 122.14
  C 258.51 113.14 253.29 105.49 247.80 98.47
  Q 229.49 75.03 210.81 52.90
  Z"
/>
<path fill="#000000" d="
  M 229.74 141.42
  L 210.23 154.56
  A 0.32 0.32 0.0 0 1 209.87 154.56
  L 190.28 141.43
  A 0.32 0.32 0.0 0 1 190.17 141.05
  L 209.72 91.95
  A 0.32 0.32 0.0 0 1 210.32 91.95
  L 229.85 141.04
  A 0.32 0.32 0.0 0 1 229.74 141.42
  Z"
/>
<path fill="#000000" d="
  M 247.15 193.46
  L 302.93 230.14
  A 2.44 2.44 0.0 0 1 303.49 233.72
  L 278.88 264.19
  A 2.50 2.49 37.2 0 1 275.50 264.65
  L 211.20 218.89
  A 1.10 1.10 0.0 0 0 209.94 218.89
  L 145.63 264.64
  A 2.44 2.44 0.0 0 1 142.34 264.21
  Q 130.14 249.52 118.56 234.42
  Q 117.47 233.00 117.04 231.68
  A 0.92 0.91 -25.5 0 1 117.41 230.65
  Q 145.37 212.27 172.30 194.62
  Q 173.36 193.93 174.41 193.49
  A 0.36 0.36 0.0 0 0 174.48 192.86
  L 90.17 132.36
  Q 88.48 131.15 89.94 129.68
  L 112.95 106.53
  A 1.44 1.43 39.0 0 1 114.75 106.35
  L 210.45 169.27
  A 0.22 0.22 0.0 0 0 210.69 169.27
  L 306.37 106.36
  A 1.44 1.43 50.9 0 1 308.18 106.55
  L 331.38 129.87
  A 1.54 1.53 49.7 0 1 331.19 132.20
  L 247.13 192.52
  A 0.57 0.57 0.0 0 0 247.15 193.46
  Z
  M 203.93 192.64
  A 0.35 0.34 -45.3 0 1 203.93 193.21
  L 186.28 205.36
  Q 184.65 206.48 185.58 208.23
  L 186.52 210.00
  A 2.11 2.11 0.0 0 0 189.55 210.78
  L 210.15 197.19
  A 0.78 0.77 -44.5 0 1 211.00 197.19
  L 231.46 210.72
  Q 233.19 211.87 234.34 210.14
  L 235.57 208.28
  Q 236.69 206.60 235.03 205.46
  L 217.26 193.26
  A 0.60 0.60 0.0 0 1 217.26 192.27
  Q 258.50 164.31 298.69 135.48
  Q 301.79 133.25 300.49 130.03
  A 1.78 1.78 0.0 0 0 297.87 129.21
  C 268.56 148.36 239.78 168.40 211.05 188.30
  A 0.86 0.86 0.0 0 1 210.07 188.30
  C 181.36 168.41 152.68 148.21 123.25 129.29
  Q 120.90 127.78 120.39 130.52
  L 120.31 130.97
  Q 119.80 133.77 122.13 135.40
  L 203.93 192.64
  Z"
/>
<path fill="#000000" d="
  M 20.51 141.20
  C 15.01 137.32 9.26 134.13 3.04 132.42
  Q 2.41 132.25 3.02 132.01
  C 11.54 128.76 20.17 129.35 28.98 130.64
  Q 58.84 134.99 87.03 145.61
  C 91.88 147.45 95.31 149.52 98.87 152.85
  A 0.37 0.37 0.0 0 1 98.72 153.48
  C 90.96 155.64 85.09 161.77 87.07 170.38
  Q 87.73 173.23 90.76 177.18
  C 100.05 189.29 111.70 200.65 115.85 215.40
  Q 116.01 215.96 115.53 216.28
  L 89.51 233.23
  A 0.80 0.80 0.0 0 1 88.34 232.88
  Q 78.17 210.18 65.94 188.34
  C 54.75 168.34 38.98 154.24 20.51 141.20
  Z"
/>
<path fill="#000000" d="
  M 337.73 143.71
  C 353.39 138.37 369.95 133.72 386.31 131.24
  C 398.25 129.43 406.84 128.53 417.15 131.95
  Q 417.88 132.20 417.14 132.38
  Q 412.33 133.55 407.89 136.23
  C 387.80 148.35 369.11 163.50 356.82 183.82
  C 347.28 199.57 339.38 216.34 331.54 232.91
  A 0.73 0.73 0.0 0 1 330.49 233.20
  L 304.46 216.25
  Q 303.98 215.94 304.15 215.39
  C 308.49 200.82 319.40 189.63 328.62 178.02
  C 332.82 172.74 334.77 168.32 332.30 162.10
  C 330.85 158.45 327.43 156.10 324.01 154.32
  C 323.22 153.90 322.22 153.95 321.32 153.61
  Q 320.79 153.40 321.18 152.98
  C 325.39 148.44 331.70 145.76 337.73 143.71
  Z"
/>
<path fill="#000000" d="
  M 71.29 261.43
  L 109.00 237.51
  A 0.67 0.67 0.0 0 1 109.88 237.65
  L 131.06 263.71
  A 0.67 0.67 0.0 0 1 130.90 264.70
  L 94.86 288.01
  A 0.67 0.67 0.0 0 1 94.00 287.89
  L 71.15 262.44
  A 0.67 0.67 0.0 0 1 71.29 261.43
  Z"
/>
<path fill="#000000" d="
  M 326.11 287.90
  L 290.42 264.82
  A 0.88 0.88 0.0 0 1 290.22 263.53
  L 311.13 237.79
  A 0.88 0.88 0.0 0 1 312.28 237.60
  L 349.62 261.29
  A 0.88 0.88 0.0 0 1 349.81 262.62
  L 327.24 287.75
  A 0.88 0.88 0.0 0 1 326.11 287.90
  Z"
/>
<path fill="#000000" d="
  M 245.29 276.04
  L 260.00 276.03
  A 2.13 2.10 -21.8 0 1 261.52 276.67
  C 268.28 283.66 274.82 291.15 275.00 301.75
  Q 275.19 312.52 273.81 323.04
  A 2.19 2.17 70.0 0 1 273.27 324.21
  C 257.70 341.43 242.42 359.03 231.32 379.31
  Q 223.50 393.61 214.10 412.54
  C 213.04 414.68 211.56 417.01 210.46 419.30
  A 0.51 0.51 0.0 0 1 209.55 419.32
  C 197.80 397.04 187.24 373.21 171.89 353.83
  Q 159.72 338.44 146.84 324.29
  A 2.98 2.95 21.2 0 1 146.09 322.61
  C 145.01 311.10 142.80 297.68 149.38 287.64
  Q 152.63 282.69 158.85 276.39
  Q 159.20 276.04 159.70 276.04
  L 174.74 276.03
  Q 175.29 276.03 175.71 275.69
  L 192.38 262.12
  A 1.10 1.09 32.2 0 1 193.33 261.91
  L 195.97 262.56
  Q 196.57 262.70 196.26 263.23
  Q 192.77 269.20 189.45 275.23
  C 174.91 301.65 175.78 332.28 204.31 349.18
  C 208.77 351.83 212.23 351.29 216.73 348.60
  C 242.37 333.29 244.92 304.68 232.79 279.73
  Q 228.65 271.23 223.68 263.20
  Q 223.38 262.72 223.93 262.58
  L 226.62 261.90
  Q 227.20 261.75 227.67 262.13
  L 244.34 275.70
  Q 244.75 276.04 245.29 276.04
  Z"
/>
<path fill="#000000" d="
  M 292.41 294.43
  A 0.75 0.74 42.0 0 0 292.35 293.38
  L 282.85 284.93
  A 10.29 10.28 -72.8 0 1 279.48 278.52
  L 279.24 276.54
  Q 278.76 272.65 282.11 274.69
  L 324.21 300.27
  A 3.33 3.33 0.0 0 0 328.42 299.65
  L 355.65 269.17
  A 0.98 0.98 0.0 0 1 357.07 269.13
  C 360.29 272.31 360.62 277.32 359.82 281.82
  Q 359.45 283.91 357.87 285.75
  Q 343.77 302.18 329.92 318.36
  A 0.79 0.78 -52.5 0 1 328.88 318.50
  Q 316.82 310.11 304.64 302.09
  Q 300.75 299.53 298.72 303.80
  C 293.07 315.68 299.56 324.32 310.04 329.54
  Q 310.60 329.82 310.13 330.24
  C 307.49 332.58 297.52 329.33 294.32 328.36
  C 286.16 325.87 282.84 321.15 283.08 312.61
  C 283.29 305.15 287.71 299.70 292.41 294.43
  Z"
/>
<path fill="#000000" d="
  M 128.63 294.28
  C 133.24 299.71 137.78 304.91 138.03 312.46
  C 138.37 322.44 133.54 326.87 124.37 329.23
  Q 118.11 330.84 113.27 331.24
  Q 111.88 331.36 111.13 330.21
  Q 110.84 329.75 111.31 329.48
  Q 115.64 327.03 118.64 324.64
  C 125.48 319.18 125.96 308.99 121.03 302.05
  A 2.20 2.19 61.6 0 0 118.46 301.28
  Q 116.09 302.17 113.76 303.76
  Q 102.89 311.13 92.08 318.62
  A 0.56 0.55 52.2 0 1 91.34 318.52
  Q 77.27 302.12 63.14 285.63
  C 59.53 281.42 60.53 273.04 63.85 269.26
  A 1.13 1.13 0.0 0 1 65.54 269.25
  L 92.54 299.47
  Q 94.55 301.72 97.13 300.15
  L 138.96 274.72
  Q 142.41 272.63 141.89 276.63
  L 141.65 278.48
  A 10.50 10.49 -17.2 0 1 138.22 284.98
  L 128.68 293.46
  A 0.60 0.59 48.9 0 0 128.63 294.28
  Z"
/>
<path fill="#000000" d="
  M 89.94 328.51
  A 0.90 0.90 0.0 0 1 90.12 329.37
  C 87.63 337.26 86.62 344.11 90.96 351.74
  C 97.70 363.60 107.18 373.02 117.24 381.98
  A 1.21 1.21 0.0 0 1 117.59 383.24
  L 113.18 398.04
  A 2.06 2.04 -8.8 0 1 112.36 399.15
  L 90.29 413.86
  A 0.76 0.71 30.2 0 1 89.77 413.98
  L 75.28 412.35
  Q 74.79 412.29 74.56 411.87
  Q 72.07 407.47 70.96 403.50
  Q 65.25 383.12 60.41 362.51
  Q 58.02 352.36 56.80 342.00
  C 55.14 327.91 60.60 316.10 70.16 306.14
  A 0.44 0.44 0.0 0 1 70.82 306.16
  L 89.94 328.51
  Z"
/>
<path fill="#000000" d="
  M 349.17 405.98
  C 348.61 407.83 347.71 410.24 346.62 411.83
  Q 346.31 412.29 345.75 412.35
  L 331.54 413.95
  A 1.34 1.31 57.6 0 1 330.65 413.74
  L 308.61 399.05
  A 1.57 1.56 8.9 0 1 308.00 398.22
  L 303.46 383.04
  A 0.82 0.81 -29.9 0 1 303.69 382.20
  C 312.50 374.23 321.02 365.95 327.71 355.97
  C 333.92 346.70 334.41 340.30 330.98 329.50
  Q 330.81 328.94 331.19 328.50
  L 350.43 306.01
  Q 350.58 305.84 350.74 306.00
  C 358.83 314.00 364.71 325.00 364.61 336.50
  C 364.56 341.84 363.84 347.42 362.65 353.12
  Q 357.06 379.84 349.17 405.98
  Z"
/>
</svg>
