<?xml version="1.0" encoding="UTF-8" standalone="no"?>
<!DOCTYPE svg PUBLIC "-//W3C//DTD SVG 1.1//EN" "http://www.w3.org/Graphics/SVG/1.1/DTD/svg11.dtd">
<svg xmlns="http://www.w3.org/2000/svg" version="1.1" viewBox="0.00 0.00 46.00 46.00">
<path fill="#000000" d="
  M 25.13 46.00
  L 21.02 46.00
  C 6.49 44.08 -3.06 29.90 2.71 15.84
  C 8.28 2.24 24.87 -2.25 36.54 6.71
  C 52.71 19.13 44.34 43.48 25.13 46.00
  Z
  M 6.57 27.48
  Q 6.79 27.35 6.71 27.10
  Q 5.74 24.15 6.74 21.23
  A 0.62 0.61 -76.9 0 0 6.25 20.43
  Q 5.09 20.28 4.66 19.24
  Q 4.47 18.77 4.79 18.39
  Q 5.64 17.38 6.88 17.52
  Q 7.39 17.58 7.69 17.15
  L 9.86 14.07
  A 0.59 0.59 0.0 0 0 9.73 13.26
  L 9.39 13.02
  A 0.98 0.96 24.1 0 1 9.01 12.05
  Q 9.21 11.03 10.24 10.69
  Q 10.76 10.53 11.16 10.90
  L 11.65 11.36
  A 0.60 0.59 43.9 0 0 12.47 11.35
  Q 14.11 9.75 16.24 8.93
  Q 16.75 8.74 16.39 8.32
  Q 15.95 7.81 16.01 7.09
  A 0.86 0.85 82.3 0 1 16.55 6.37
  L 17.77 5.90
  Q 18.37 5.67 18.63 6.26
  L 19.10 7.36
  Q 19.32 7.85 19.84 7.72
  Q 23.06 6.94 26.29 7.73
  Q 26.53 7.78 26.65 7.58
  L 28.08 5.22
  Q 28.20 5.01 27.97 4.97
  Q 20.93 3.65 16.72 5.44
  Q 1.36 12.00 3.87 28.98
  Q 3.90 29.18 4.07 29.07
  L 6.57 27.48
  Z
  M 41.78 30.05
  Q 40.69 30.57 39.35 30.51
  Q 38.82 30.49 38.54 30.96
  L 36.57 34.31
  Q 36.34 34.71 36.68 35.03
  Q 37.33 35.64 37.28 36.50
  Q 37.26 36.99 36.90 37.28
  Q 36.57 37.54 36.11 37.70
  A 0.77 0.76 -24.0 0 1 35.21 37.36
  Q 35.05 37.09 34.80 36.97
  Q 34.39 36.76 34.00 37.02
  L 30.40 39.39
  Q 30.09 39.59 30.03 39.95
  L 29.65 42.35
  Q 29.61 42.61 29.85 42.51
  Q 38.68 38.87 41.78 30.05
  Q 42.19 29.67 42.24 29.26
  C 42.83 24.54 42.88 19.63 40.68 15.39
  Q 37.08 8.49 29.42 5.43
  Q 29.19 5.34 29.24 5.58
  L 29.96 8.73
  Q 30.02 8.97 30.26 9.05
  Q 31.64 9.49 33.30 10.91
  Q 33.67 11.23 33.99 11.24
  Q 34.49 11.25 34.78 10.86
  Q 35.07 10.47 35.56 10.41
  Q 36.47 10.30 36.92 11.02
  C 37.41 11.81 36.98 12.59 36.37 13.16
  Q 35.97 13.54 36.35 13.95
  Q 37.48 15.18 38.08 16.73
  Q 38.32 17.32 38.95 17.28
  Q 40.27 17.19 41.36 17.96
  A 0.67 0.67 0.0 0 1 41.57 18.80
  Q 41.11 19.72 40.19 20.14
  Q 39.78 20.32 39.78 20.78
  L 39.85 27.10
  Q 39.86 27.45 40.19 27.59
  Q 41.92 28.28 41.78 30.05
  Z
  M 38.73 24.16
  A 15.55 15.55 0.0 0 0 23.18 8.61
  A 15.55 15.55 0.0 0 0 7.63 24.16
  A 15.55 15.55 0.0 0 0 23.18 39.71
  A 15.55 15.55 0.0 0 0 38.73 24.16
  Z
  M 9.87 34.70
  Q 10.05 34.43 9.83 34.20
  Q 8.45 32.72 7.82 30.81
  A 0.19 0.19 0.0 0 0 7.64 30.67
  L 4.56 30.56
  A 0.16 0.16 0.0 0 0 4.41 30.80
  L 7.96 36.92
  Q 8.15 37.26 8.37 36.94
  L 9.87 34.70
  Z
  M 16.74 42.84
  Q 22.56 44.12 28.57 43.08
  Q 28.79 43.05 28.64 42.89
  L 26.76 40.82
  Q 26.57 40.62 26.30 40.66
  Q 23.06 41.21 19.82 40.65
  Q 19.31 40.57 19.13 41.06
  Q 18.50 42.78 16.74 42.84
  Q 16.11 41.52 16.27 40.06
  Q 16.33 39.48 15.80 39.23
  Q 13.93 38.38 12.46 36.92
  Q 12.30 36.76 12.09 36.85
  L 9.30 38.02
  Q 9.16 38.09 9.29 38.17
  L 16.74 42.84
  Z"
/>
<path fill="#000000" d="
  M 27.67 26.00
  Q 28.37 28.42 27.56 30.99
  Q 27.34 31.71 28.03 31.43
  C 30.37 30.48 30.93 26.85 27.67 26.00
  C 29.60 23.21 27.76 22.07 26.39 20.04
  Q 25.90 19.31 26.75 19.56
  Q 27.43 19.75 27.89 20.30
  A 0.61 0.60 48.1 0 0 28.78 20.35
  L 30.00 19.15
  A 0.54 0.53 29.6 0 0 29.75 18.25
  C 26.73 17.53 24.46 13.98 26.58 11.13
  A 0.34 0.33 -54.8 0 1 27.03 11.05
  L 27.30 11.23
  Q 27.51 11.37 27.39 11.59
  Q 26.03 14.16 28.53 15.46
  Q 29.44 15.94 30.02 15.09
  Q 30.48 14.43 31.26 14.23
  A 0.41 0.41 0.0 0 1 31.75 14.77
  Q 31.45 15.61 30.79 16.26
  A 0.58 0.57 43.7 0 0 30.81 17.10
  L 34.73 20.60
  A 1.83 1.81 -56.0 0 1 35.14 22.77
  Q 34.68 23.70 35.12 24.61
  Q 35.29 24.96 35.08 25.30
  Q 34.91 25.56 34.54 25.43
  Q 34.27 25.33 34.04 25.15
  Q 33.53 24.73 33.03 25.06
  Q 32.34 25.50 32.37 24.68
  Q 32.39 24.41 32.62 24.17
  A 0.61 0.61 0.0 0 0 32.77 23.56
  Q 32.39 22.35 31.42 21.57
  A 0.52 0.51 -62.2 0 0 30.60 21.83
  Q 30.07 23.72 31.35 25.13
  Q 35.20 29.37 31.47 33.72
  C 29.94 35.51 25.78 33.16 23.87 33.92
  Q 20.61 35.23 23.96 36.26
  Q 24.46 36.42 25.56 35.53
  A 0.40 0.40 0.0 0 1 26.13 35.59
  Q 26.31 35.82 26.08 36.13
  C 24.21 38.66 21.66 38.13 19.23 36.48
  C 17.12 35.06 14.80 34.08 13.28 32.13
  Q 8.68 26.22 10.93 19.31
  Q 11.46 17.68 11.43 19.39
  C 11.38 21.68 11.54 24.22 13.29 25.96
  Q 16.87 29.52 21.74 29.15
  Q 22.67 29.08 22.65 28.31
  Q 22.63 27.78 22.22 27.46
  L 21.62 27.00
  Q 20.88 26.43 21.81 26.38
  Q 22.78 26.32 23.46 26.94
  C 24.55 27.95 23.80 29.73 23.15 30.76
  Q 22.86 31.24 23.39 31.08
  C 27.77 29.76 24.67 23.42 20.90 24.57
  Q 19.60 24.96 19.39 26.31
  A 1.09 1.09 0.0 0 1 17.85 27.13
  Q 13.95 25.29 12.45 21.36
  A 0.27 0.26 68.0 0 1 12.59 21.02
  L 12.86 20.89
  Q 13.04 20.81 13.12 20.99
  Q 14.03 23.16 16.13 24.33
  Q 16.59 24.59 17.04 24.33
  Q 17.47 24.08 18.03 24.10
  Q 19.68 24.18 18.14 23.13
  C 8.30 16.47 20.98 5.71 23.90 13.89
  Q 24.13 14.53 23.91 15.02
  Q 23.72 15.44 23.32 15.66
  Q 22.84 15.92 22.87 15.37
  Q 23.02 13.20 20.64 12.68
  Q 19.16 12.35 18.33 13.62
  Q 16.56 16.28 18.70 18.94
  A 0.67 0.66 -64.5 0 0 19.88 18.52
  Q 19.88 17.79 19.51 17.25
  A 0.45 0.27 85.7 0 1 19.85 16.58
  Q 20.56 17.55 21.07 18.67
  A 0.21 0.21 0.0 0 0 21.39 18.75
  Q 22.17 18.17 21.53 17.34
  Q 21.08 16.77 21.80 16.91
  C 22.44 17.03 22.95 17.57 22.96 18.28
  Q 22.99 19.91 23.35 21.53
  Q 23.46 22.02 23.87 22.31
  Q 26.15 23.86 27.67 26.00
  Z
  M 15.64 29.28
  Q 14.31 27.83 12.77 27.31
  Q 11.70 26.95 12.44 27.80
  Q 13.65 29.19 15.43 29.63
  Q 16.11 29.80 15.64 29.28
  Z
  M 17.77 31.28
  Q 17.33 31.23 17.47 31.66
  C 17.99 33.27 20.35 33.03 21.43 32.29
  A 0.34 0.34 0.0 0 0 21.27 31.67
  L 17.77 31.28
  Z"
/>
</svg>
