<?xml version="1.0" encoding="UTF-8" standalone="no"?>
<!DOCTYPE svg PUBLIC "-//W3C//DTD SVG 1.1//EN" "http://www.w3.org/Graphics/SVG/1.1/DTD/svg11.dtd">
<svg xmlns="http://www.w3.org/2000/svg" version="1.1" viewBox="0.00 0.00 46.00 46.00">
<path fill="#000000" d="
  M 18.60 8.76
  L 17.02 1.03
  Q 16.93 0.57 17.29 0.87
  C 18.93 2.21 19.85 5.91 20.73 7.93
  Q 21.00 8.53 21.45 8.05
  Q 21.92 7.56 21.87 6.78
  Q 21.84 6.20 22.39 6.04
  L 23.72 5.66
  A 0.38 0.38 0.0 0 1 24.07 6.32
  Q 23.21 7.04 23.63 8.13
  A 0.53 0.53 0.0 0 1 23.26 8.83
  Q 21.60 9.24 20.81 10.73
  Q 20.53 11.27 20.01 10.96
  L 19.43 10.61
  A 0.98 0.97 45.3 0 0 18.45 10.60
  Q 17.72 11.01 16.95 10.78
  A 1.16 1.14 -6.4 0 1 16.27 10.25
  Q 15.81 9.46 14.94 9.18
  Q 14.25 8.96 14.88 8.61
  L 15.94 8.01
  A 0.70 0.69 -36.5 0 1 16.78 8.13
  Q 17.41 8.78 18.23 9.08
  Q 18.70 9.26 18.60 8.76
  Z"
/>
<path fill="#000000" d="
  M 25.73 33.94
  Q 17.85 35.17 13.19 28.77
  Q 12.61 27.97 13.10 27.11
  Q 14.61 24.46 12.05 22.80
  Q 11.56 22.49 11.06 22.76
  Q 9.06 23.84 7.62 25.58
  A 1.15 1.15 0.0 0 0 8.07 27.38
  L 10.83 28.51
  Q 12.61 29.23 10.71 29.46
  Q 8.42 29.74 5.45 28.83
  Q 3.52 28.24 4.56 26.51
  C 5.91 24.25 8.74 22.85 10.98 21.28
  Q 11.39 20.99 11.48 20.50
  Q 12.25 16.29 15.32 13.50
  C 16.76 12.20 18.10 12.16 19.95 12.24
  Q 20.45 12.26 20.89 12.02
  C 22.46 11.16 23.97 10.06 25.82 10.32
  Q 30.34 10.96 33.36 14.46
  A 0.87 0.85 -28.3 0 0 34.26 14.72
  Q 37.44 13.74 40.84 14.40
  A 1.79 1.78 26.5 0 1 41.83 17.35
  L 39.61 19.81
  Q 36.92 22.79 38.45 19.08
  Q 38.74 18.39 39.26 17.07
  A 0.78 0.78 0.0 0 0 38.57 16.00
  L 34.99 15.83
  Q 33.98 15.79 33.81 16.78
  L 33.57 18.14
  Q 33.48 18.69 33.78 19.15
  Q 34.60 20.39 35.84 21.22
  A 0.90 0.90 0.0 0 1 36.24 22.04
  Q 35.65 29.24 29.40 32.68
  A 0.32 0.31 29.0 0 0 29.57 33.27
  Q 30.76 33.22 31.85 32.77
  Q 32.30 32.58 32.74 32.79
  Q 33.32 33.06 34.00 33.08
  A 0.45 0.45 0.0 0 1 34.37 33.75
  Q 33.13 35.91 30.95 34.62
  Q 30.23 34.20 29.86 34.93
  L 29.67 35.29
  A 0.45 0.45 0.0 0 0 29.91 35.92
  L 31.34 36.47
  Q 32.00 36.72 31.67 37.34
  L 31.32 37.98
  A 0.85 0.82 -36.9 0 0 31.24 38.48
  L 32.28 45.00
  Q 32.50 46.39 31.68 45.24
  C 30.39 43.42 28.81 39.43 26.98 38.56
  A 0.49 0.49 0.0 0 1 26.84 37.78
  L 27.83 36.75
  A 0.39 0.18 -25.1 0 0 27.88 36.69
  Q 28.13 36.16 27.72 35.81
  Q 27.52 35.63 27.22 35.66
  Q 26.11 35.76 25.80 36.90
  Q 25.68 37.37 25.22 37.52
  Q 24.13 37.90 23.00 37.73
  A 0.53 0.53 0.0 0 1 22.60 36.98
  C 23.27 35.61 25.03 35.49 25.99 34.40
  Q 26.49 33.82 25.73 33.94
  Z
  M 27.32 30.44
  L 27.95 31.07
  A 0.66 0.66 0.0 0 0 28.81 31.14
  Q 35.86 26.02 32.94 18.91
  C 29.48 10.44 17.65 10.58 14.54 18.79
  C 11.63 26.47 18.01 33.44 25.92 32.30
  Q 26.42 32.23 26.46 31.73
  L 26.53 30.73
  A 0.46 0.46 0.0 0 1 27.32 30.44
  Z"
/>
<path fill="#000000" d="
  M 24.83 16.98
  Q 26.35 17.62 25.80 15.99
  Q 25.48 15.06 26.61 14.62
  A 0.83 0.83 0.0 0 1 27.73 15.51
  Q 27.34 18.12 25.31 19.82
  Q 24.14 20.81 24.81 19.43
  Q 25.07 18.90 25.12 18.32
  Q 25.17 17.83 24.68 17.79
  Q 22.49 17.63 20.72 18.85
  A 0.47 0.46 76.1 0 1 20.00 18.41
  Q 20.17 16.91 21.40 16.02
  Q 21.82 15.71 22.29 15.91
  L 24.83 16.98
  Z"
/>
<path fill="#000000" d="
  M 29.84 24.63
  L 31.17 24.00
  Q 31.68 23.77 31.80 24.31
  Q 32.17 25.89 30.75 25.88
  Q 28.75 25.88 26.67 24.37
  Q 26.36 24.14 26.20 23.83
  Q 25.89 23.24 26.00 23.07
  Q 26.24 22.72 26.55 23.01
  L 27.69 24.06
  A 0.45 0.45 0.0 0 0 28.43 23.81
  Q 28.84 21.54 27.63 19.67
  Q 27.36 19.26 27.50 18.79
  Q 27.70 18.08 28.41 17.88
  Q 29.02 17.70 29.00 18.34
  C 28.96 19.99 29.70 20.72 29.74 22.10
  C 29.77 22.80 29.28 23.39 29.21 24.18
  A 0.45 0.44 80.5 0 0 29.84 24.63
  Z"
/>
<path fill="#000000" d="
  M 17.33 20.45
  Q 17.08 20.72 16.69 20.73
  A 0.64 0.64 0.0 0 1 16.06 20.20
  Q 15.97 19.73 16.29 19.31
  A 0.84 0.84 0.0 0 1 17.04 18.97
  Q 19.75 19.21 21.64 21.16
  A 0.72 0.71 -60.4 0 1 21.82 21.82
  Q 21.59 22.88 20.69 22.13
  A 0.99 0.93 -81.8 0 1 20.41 21.73
  Q 19.84 20.24 18.20 20.11
  Q 17.68 20.07 17.33 20.45
  Z"
/>
<path fill="#000000" d="
  M 22.84 26.89
  Q 24.90 27.61 26.50 26.29
  Q 27.59 25.38 27.47 26.80
  Q 27.32 28.59 25.15 29.41
  A 0.71 0.71 0.0 0 1 24.39 29.23
  C 23.69 28.48 23.03 27.37 21.81 27.65
  A 0.51 0.51 0.0 0 0 21.54 28.49
  Q 21.92 28.92 22.03 29.48
  Q 22.13 29.98 21.65 30.13
  L 20.75 30.42
  Q 20.17 30.61 20.06 30.01
  Q 19.85 28.82 20.29 27.70
  Q 20.49 27.20 20.07 26.87
  C 18.05 25.24 18.78 23.99 17.51 22.34
  A 0.67 0.67 0.0 0 1 17.78 21.31
  Q 18.45 21.02 18.71 21.77
  Q 19.33 23.64 20.13 25.57
  A 0.75 0.75 0.0 0 0 21.19 25.93
  L 23.23 24.73
  Q 23.42 24.62 23.51 24.79
  L 23.51 24.80
  Q 23.60 24.96 23.52 25.01
  Q 22.91 25.45 22.54 26.10
  Q 22.21 26.67 22.84 26.89
  Z"
/>
</svg>
