<?xml version="1.0" encoding="UTF-8" standalone="no"?>
<!DOCTYPE svg PUBLIC "-//W3C//DTD SVG 1.1//EN" "http://www.w3.org/Graphics/SVG/1.1/DTD/svg11.dtd">
<svg xmlns="http://www.w3.org/2000/svg" version="1.1" viewBox="0.00 0.00 46.00 46.00">
<path fill="#000000" fill-opacity="0.996" d="
  M 23.05 13.25
  Q 22.51 12.01 22.01 13.26
  Q 21.27 15.09 19.75 16.38
  Q 19.38 16.69 19.00 16.40
  Q 16.48 14.51 13.54 15.64
  A 1.41 1.41 0.0 0 1 11.79 14.99
  L 10.84 13.21
  Q 10.61 12.79 10.16 12.64
  Q 8.55 12.11 9.31 10.55
  C 11.05 6.95 18.03 4.97 17.99 10.22
  Q 17.99 10.63 17.70 10.92
  Q 16.79 11.85 15.50 11.96
  A 1.40 1.39 88.2 0 1 13.99 10.54
  L 14.00 9.96
  A 0.47 0.47 0.0 0 1 14.75 9.59
  L 15.65 10.25
  Q 16.53 10.88 16.47 9.80
  Q 16.43 8.98 15.49 8.41
  C 14.53 7.84 13.40 8.30 12.56 8.82
  A 1.67 1.67 0.0 0 0 12.27 11.41
  C 16.37 15.54 23.51 10.63 19.13 5.96
  Q 18.75 5.56 18.28 5.86
  L 17.56 6.32
  Q 17.24 6.53 16.95 6.28
  Q 16.81 6.15 16.74 5.94
  Q 16.69 5.77 16.76 5.55
  Q 17.42 3.41 19.38 4.11
  Q 19.99 4.33 20.01 3.67
  Q 20.04 2.63 20.96 2.24
  Q 21.70 1.94 21.57 2.72
  Q 21.35 4.06 21.93 5.27
  A 0.53 0.53 0.0 0 0 22.77 5.43
  Q 23.89 4.36 23.48 2.72
  A 0.42 0.42 0.0 0 1 24.05 2.24
  Q 24.99 2.65 25.02 3.76
  Q 25.03 4.23 25.50 4.19
  Q 25.64 4.18 25.77 4.01
  A 1.95 1.29 62.9 0 1 28.36 5.48
  Q 28.47 5.92 28.14 6.31
  Q 27.72 6.81 27.33 6.29
  Q 26.52 5.22 25.70 6.18
  C 21.70 10.81 29.06 15.84 33.09 11.01
  A 0.94 0.94 0.0 0 0 33.27 10.13
  Q 32.58 7.77 29.29 8.13
  A 1.20 1.19 67.5 0 0 28.49 10.07
  L 28.77 10.43
  A 0.30 0.30 0.0 0 0 29.21 10.46
  L 30.10 9.67
  Q 30.55 9.26 30.87 9.77
  Q 31.54 10.82 30.51 11.53
  Q 29.40 12.29 27.87 11.31
  Q 26.37 10.34 27.29 8.81
  C 29.49 5.11 34.00 7.53 35.75 10.33
  A 1.57 1.56 -32.0 0 1 35.25 12.48
  Q 33.69 13.46 33.22 15.27
  A 0.66 0.66 0.0 0 1 32.46 15.76
  L 29.23 15.16
  Q 28.84 15.09 28.48 15.25
  L 25.93 16.34
  Q 25.44 16.56 25.06 16.18
  Q 23.76 14.91 23.05 13.25
  Z
  M 22.87 11.24
  Q 24.01 13.57 26.63 14.42
  Q 26.84 14.49 26.92 14.28
  L 26.92 14.27
  Q 27.00 14.07 26.79 14.00
  C 23.58 12.88 21.72 8.98 24.04 6.36
  Q 25.37 4.86 23.54 5.67
  Q 23.35 5.76 23.01 6.79
  Q 22.91 7.10 22.69 7.19
  Q 22.21 7.41 22.01 6.91
  Q 21.71 6.11 21.09 5.63
  Q 20.25 4.97 20.80 5.90
  Q 23.93 11.21 18.47 14.00
  Q 18.26 14.10 18.38 14.31
  L 18.52 14.56
  A 0.05 0.05 0.0 0 0 18.59 14.58
  Q 20.90 13.29 22.28 11.20
  A 0.34 0.34 0.0 0 1 22.87 11.24
  Z
  M 33.80 12.47
  Q 32.64 12.75 31.97 13.71
  A 0.26 0.26 0.0 0 0 32.26 14.10
  Q 33.40 13.72 33.92 12.61
  Q 34.00 12.42 33.80 12.47
  Z
  M 11.46 12.92
  Q 11.87 14.08 13.02 14.00
  A 0.24 0.24 0.0 0 0 13.14 13.57
  L 11.80 12.66
  A 0.23 0.22 7.4 0 0 11.46 12.92
  Z"
/>
<path fill="#000000" fill-opacity="0.996" d="
  M 0.00 20.83
  L 0.00 20.23
  Q 0.65 15.40 4.89 13.60
  C 7.85 12.35 10.59 13.64 11.48 16.68
  A 0.43 0.43 0.0 0 1 10.82 17.16
  L 8.51 15.55
  A 1.25 1.25 0.0 0 0 7.82 15.32
  Q 4.65 15.26 3.10 17.74
  C 2.23 19.13 2.60 20.65 2.60 22.26
  C 2.59 26.45 7.69 28.39 10.56 30.28
  Q 10.68 30.36 10.76 30.25
  L 10.92 30.02
  A 0.10 0.10 0.0 0 0 10.88 29.87
  Q 10.13 29.54 9.77 28.80
  Q 9.56 28.37 9.10 28.25
  Q 2.85 26.72 2.99 20.76
  C 3.11 15.61 9.94 14.74 10.55 20.01
  Q 10.93 23.34 12.61 25.01
  C 12.97 25.37 13.30 26.08 13.43 26.54
  A 0.36 0.36 0.0 0 1 13.00 27.00
  L 12.59 26.90
  Q 12.28 26.82 12.24 27.14
  Q 12.22 27.35 12.37 27.53
  Q 12.44 27.61 12.58 27.65
  Q 13.99 28.03 13.32 29.46
  Q 13.10 29.91 13.51 30.21
  Q 14.35 30.83 14.72 31.81
  Q 14.83 32.11 14.51 32.13
  L 14.20 32.15
  Q 13.95 32.16 13.87 31.92
  Q 13.49 30.78 12.44 30.23
  A 0.24 0.23 -62.3 0 0 12.13 30.33
  L 12.00 30.59
  A 0.31 0.31 0.0 0 0 12.06 30.96
  L 13.62 32.36
  A 0.36 0.35 72.1 0 1 13.31 32.97
  Q 12.66 32.82 12.22 32.32
  A 1.61 1.59 -9.7 0 0 11.62 31.90
  C 6.22 29.78 0.77 27.49 0.00 20.83
  Z
  M 7.01 20.72
  Q 6.66 20.72 6.42 20.89
  A 0.37 0.37 0.0 0 0 6.44 21.51
  C 8.87 22.90 9.91 19.55 8.37 18.38
  A 2.65 2.65 0.0 0 0 4.99 18.55
  C 2.55 20.79 4.53 23.76 6.33 25.46
  A 1.06 1.05 42.8 0 0 7.84 25.41
  Q 8.78 24.37 10.07 24.33
  Q 10.75 24.31 10.58 23.66
  Q 10.52 23.40 10.01 23.33
  Q 9.77 23.30 9.45 23.39
  Q 6.07 24.39 4.92 21.17
  Q 4.74 20.66 5.07 20.23
  Q 5.70 19.41 6.69 19.12
  A 0.64 0.63 -8.0 0 1 7.50 19.72
  L 7.51 20.23
  A 0.49 0.48 -88.9 0 1 7.01 20.72
  Z
  M 9.38 26.96
  L 9.38 27.47
  A 0.52 0.51 86.9 0 0 9.94 27.98
  Q 10.29 27.95 10.64 28.03
  A 0.68 0.68 0.0 0 1 11.15 28.63
  Q 11.23 29.33 11.76 29.75
  A 0.26 0.26 0.0 0 0 12.18 29.53
  Q 12.03 27.68 10.34 26.69
  Q 9.86 26.41 10.25 26.01
  Q 10.46 25.78 10.81 25.83
  A 0.42 0.42 0.0 0 0 11.15 25.09
  L 10.85 24.84
  A 0.77 0.77 0.0 0 0 9.62 25.17
  Q 9.33 25.99 8.58 26.29
  A 0.28 0.28 0.0 0 0 8.77 26.81
  Q 8.89 26.77 9.01 26.72
  Q 9.37 26.57 9.38 26.96
  Z"
/>
<path fill="#000000" fill-opacity="0.996" d="
  M 16.98 26.00
  Q 17.40 25.97 17.61 25.45
  A 0.49 0.49 0.0 0 0 17.19 24.78
  Q 16.46 24.72 16.11 24.07
  Q 15.83 23.53 16.41 23.36
  Q 16.71 23.27 17.00 23.37
  A 0.42 0.27 55.5 0 0 16.98 22.67
  Q 15.43 21.92 14.33 20.55
  Q 13.82 19.92 14.57 20.23
  L 16.02 20.83
  Q 16.08 20.86 16.11 20.85
  Q 16.25 20.78 16.25 20.64
  Q 16.25 20.53 16.13 20.40
  Q 15.23 19.45 14.09 18.95
  Q 13.60 18.74 13.44 19.25
  Q 12.58 21.96 15.23 23.03
  A 0.48 0.48 0.0 0 1 15.47 23.73
  Q 15.23 24.11 15.42 24.48
  Q 15.65 24.96 16.14 25.15
  Q 16.91 25.46 16.98 26.00
  C 13.70 26.22 13.59 23.38 12.19 21.43
  A 1.24 1.22 33.3 0 1 11.99 20.49
  Q 12.21 19.31 11.71 18.25
  Q 11.40 17.61 12.09 17.45
  C 15.61 16.63 18.71 19.08 21.09 21.01
  Q 21.60 21.42 21.68 20.77
  Q 21.72 20.39 21.28 20.01
  Q 20.48 19.34 19.75 18.69
  Q 19.29 18.28 19.87 18.09
  L 20.31 17.94
  A 0.59 0.58 58.4 0 1 20.92 18.09
  Q 21.63 18.84 22.06 19.79
  A 0.49 0.49 0.0 0 0 22.92 19.86
  L 23.98 18.24
  A 0.73 0.72 -71.6 0 1 24.62 17.91
  Q 25.06 17.93 25.34 18.21
  A 0.46 0.45 -36.1 0 1 25.22 18.95
  Q 24.09 19.51 23.34 20.52
  Q 23.01 20.97 23.57 21.04
  Q 24.23 21.13 24.77 20.56
  Q 28.16 17.01 32.98 17.29
  Q 33.45 17.32 33.59 16.88
  Q 35.36 11.35 40.71 13.78
  C 47.61 16.91 45.31 26.06 39.48 29.01
  Q 35.61 30.97 32.03 32.77
  Q 31.82 32.87 31.61 32.77
  L 30.19 32.05
  A 0.33 0.33 0.0 0 1 30.19 31.47
  Q 32.03 30.54 31.63 28.60
  Q 31.53 28.14 31.93 27.89
  Q 32.22 27.71 32.61 27.67
  Q 32.85 27.65 32.89 27.41
  L 32.95 27.04
  A 0.13 0.12 -80.9 0 0 32.85 26.89
  Q 32.53 26.83 32.26 26.96
  Q 31.07 27.52 31.60 26.34
  Q 32.19 25.00 33.31 24.06
  A 1.85 1.80 -9.8 0 0 33.84 23.33
  C 34.80 20.78 34.33 15.31 39.08 16.63
  Q 41.34 17.27 42.19 19.90
  A 0.13 0.13 0.0 0 0 42.39 19.97
  L 42.65 19.76
  Q 42.71 19.72 42.69 19.65
  Q 41.53 15.04 36.87 15.37
  A 1.29 1.25 18.6 0 0 36.05 15.76
  Q 35.30 16.58 34.32 17.07
  Q 33.87 17.29 33.61 17.72
  Q 32.84 18.99 33.11 20.39
  A 1.35 1.33 -37.1 0 1 32.98 21.27
  L 30.90 25.04
  A 1.30 1.29 -82.9 0 1 30.08 25.68
  L 28.37 26.11
  Q 26.21 26.65 28.38 27.55
  Q 29.18 27.89 29.77 28.55
  A 0.79 0.79 0.0 0 1 29.87 29.42
  L 29.11 30.90
  A 0.96 0.95 -60.8 0 0 29.46 32.15
  Q 32.66 34.15 33.88 37.70
  A 2.07 2.01 0.9 0 1 31.20 40.22
  Q 31.00 40.14 30.80 39.89
  A 1.34 0.19 48.6 0 1 30.33 39.17
  Q 30.06 38.35 30.88 38.01
  Q 31.13 37.91 31.13 37.63
  Q 31.14 36.91 30.37 36.54
  A 0.48 0.48 0.0 0 1 30.23 35.77
  L 30.51 35.49
  A 0.39 0.38 30.4 0 0 30.34 34.85
  Q 29.17 34.52 28.85 33.33
  Q 28.64 32.60 27.91 32.79
  L 26.33 33.20
  Q 25.83 33.33 25.43 33.01
  Q 23.74 31.71 22.90 29.76
  A 0.36 0.36 0.0 0 0 22.25 29.75
  Q 21.23 31.88 19.32 33.25
  A 0.68 0.67 -45.4 0 1 18.54 33.26
  Q 17.74 32.72 16.82 32.94
  A 1.06 1.04 5.1 0 0 16.11 33.52
  Q 15.63 34.54 14.67 35.09
  Q 14.31 35.30 14.61 35.60
  L 14.87 35.87
  Q 15.27 36.27 15.57 35.79
  C 17.93 32.02 21.08 36.68 21.35 39.26
  C 21.50 40.68 22.37 42.47 21.07 43.70
  Q 20.55 44.19 20.54 43.47
  Q 20.51 40.30 18.50 37.96
  Q 17.95 37.32 18.77 37.53
  Q 19.53 37.73 19.66 38.55
  A 0.39 0.38 85.6 0 0 20.04 38.88
  L 20.39 38.88
  A 0.31 0.30 78.9 0 0 20.67 38.46
  Q 19.80 36.33 17.81 35.17
  A 0.40 0.40 0.0 0 0 17.22 35.61
  Q 18.57 40.98 14.43 44.58
  Q 14.36 44.65 14.29 44.58
  L 14.09 44.38
  Q 13.95 44.25 14.07 44.10
  Q 16.76 40.84 15.45 36.87
  Q 15.25 36.29 14.67 36.48
  Q 14.23 36.62 14.12 37.06
  Q 13.97 37.64 14.45 37.99
  Q 14.61 38.10 14.71 38.27
  Q 14.93 38.64 14.74 39.03
  Q 14.37 39.81 13.63 40.24
  Q 13.17 40.50 12.71 40.25
  C 8.78 38.11 13.75 33.25 15.81 31.93
  Q 16.37 31.57 16.05 30.99
  L 15.24 29.53
  A 0.87 0.86 50.1 0 1 15.32 28.57
  Q 16.19 27.52 17.53 27.28
  A 0.38 0.38 0.0 0 0 17.77 26.68
  Q 17.50 26.31 16.98 26.00
  Z
  M 35.11 24.79
  L 35.16 24.51
  A 0.38 0.37 24.3 0 1 35.76 24.29
  L 37.31 25.49
  A 1.14 1.14 0.0 0 0 38.81 25.40
  C 40.27 23.96 42.06 21.74 40.98 19.67
  Q 40.33 18.45 39.25 18.02
  C 36.57 16.95 34.44 20.76 37.16 21.75
  A 1.87 1.49 -37.5 0 0 38.25 21.77
  Q 38.62 21.67 38.73 21.33
  Q 38.90 20.80 38.36 20.75
  Q 38.02 20.72 37.73 20.55
  A 0.62 0.61 -58.5 0 1 37.53 19.70
  Q 37.98 19.00 38.91 19.14
  A 1.65 1.64 -64.8 0 1 39.89 21.87
  L 38.51 23.40
  A 0.99 0.98 -64.7 0 1 37.65 23.71
  L 34.97 23.32
  Q 34.36 23.23 34.28 23.84
  Q 34.24 24.13 34.34 24.42
  Q 34.45 24.71 34.30 24.98
  Q 34.20 25.18 33.99 25.27
  Q 33.29 25.60 34.26 25.83
  L 35.12 26.03
  Q 35.98 26.23 35.60 25.43
  Q 35.46 25.14 35.18 24.95
  Q 35.09 24.89 35.11 24.79
  Z
  M 27.51 25.56
  Q 29.47 25.61 29.68 23.79
  Q 29.74 23.23 30.20 22.91
  Q 31.29 22.15 31.97 21.00
  Q 32.26 20.50 31.85 20.11
  Q 31.42 19.69 31.62 19.19
  Q 31.92 18.43 31.17 18.76
  Q 29.89 19.33 28.95 20.38
  Q 28.29 21.10 29.20 20.75
  L 30.44 20.26
  Q 31.11 20.00 30.69 20.58
  Q 29.49 22.27 27.56 22.80
  A 0.21 0.21 0.0 0 0 27.48 23.17
  Q 27.90 23.48 28.42 23.23
  A 0.43 0.42 -17.1 0 1 29.03 23.55
  Q 29.15 24.42 28.24 24.59
  Q 26.10 24.99 24.39 23.45
  A 0.33 0.33 0.0 0 0 23.93 23.47
  Q 23.83 23.57 23.80 23.72
  Q 23.76 23.94 23.96 24.21
  Q 25.10 25.68 26.91 26.24
  Q 27.00 26.27 27.04 26.18
  Q 27.12 26.03 27.13 25.88
  Q 27.17 25.55 27.51 25.56
  Z
  M 37.23 28.32
  Q 35.33 27.96 34.72 29.57
  Q 34.55 30.03 35.01 29.87
  Q 36.42 29.36 37.23 28.32
  Q 41.43 26.93 42.73 22.74
  Q 42.79 22.54 42.60 22.48
  L 42.59 22.48
  Q 42.40 22.41 42.33 22.60
  Q 41.15 25.69 39.47 26.72
  Q 37.59 27.87 37.23 28.32
  Z
  M 22.5255 26.9699
  A 2.08 0.81 90.4 0 0 23.3500 24.8957
  A 2.08 0.81 90.4 0 0 22.5545 22.8101
  A 2.08 0.81 90.4 0 0 21.7300 24.8843
  A 2.08 0.81 90.4 0 0 22.5255 26.9699
  Z
  M 17.93 25.16
  A 0.37 0.36 -48.8 0 0 17.97 25.80
  Q 18.99 26.27 19.76 25.36
  A 1.16 1.10 -80.3 0 1 20.08 25.12
  Q 21.02 24.69 21.31 23.75
  Q 21.58 22.86 20.79 23.36
  L 17.93 25.16
  Z
  M 34.57 28.01
  Q 35.67 27.76 36.27 26.70
  Q 36.60 26.10 35.92 26.18
  Q 34.69 26.32 33.90 27.20
  Q 33.71 27.41 33.23 27.81
  Q 32.69 28.27 33.05 29.15
  Q 33.28 29.69 33.66 29.25
  Q 33.96 28.91 34.10 28.45
  Q 34.21 28.09 34.57 28.01
  Z
  M 21.2738 27.1151
  A 0.99 0.99 0.0 0 0 19.8784 27.0003
  L 18.4293 28.2292
  A 0.99 0.99 0.0 0 0 18.3146 29.6246
  L 18.5862 29.9449
  A 0.99 0.99 0.0 0 0 19.9816 30.0597
  L 21.4307 28.8308
  A 0.99 0.99 0.0 0 0 21.5454 27.4354
  L 21.2738 27.1151
  Z
  M 26.7592 29.6174
  A 1.03 1.03 0.0 0 0 26.5943 28.1701
  L 25.1073 26.9873
  A 1.03 1.03 0.0 0 0 23.6600 27.1522
  L 23.4608 27.4026
  A 1.03 1.03 0.0 0 0 23.6257 28.8499
  L 25.1127 30.0327
  A 1.03 1.03 0.0 0 0 26.5600 29.8678
  L 26.7592 29.6174
  Z
  M 33.19 30.23
  Q 33.25 29.37 32.68 30.01
  L 31.43 31.43
  Q 30.75 32.19 31.73 31.91
  Q 33.10 31.53 33.19 30.23
  Z
  M 31.84 37.83
  Q 31.57 38.10 31.49 38.45
  A 0.53 0.53 0.0 0 0 32.14 39.07
  Q 33.29 38.79 32.77 37.51
  Q 32.38 36.56 31.93 36.12
  A 0.35 0.34 3.9 0 0 31.41 36.57
  L 31.89 37.23
  A 0.46 0.45 50.6 0 1 31.84 37.83
  Z
  M 13.32 37.13
  Q 13.65 36.78 13.62 36.67
  Q 13.37 35.60 12.73 36.50
  Q 11.66 38.02 12.90 39.15
  A 0.33 0.33 0.0 0 0 13.43 39.03
  Q 13.71 38.35 13.28 37.78
  Q 13.03 37.44 13.32 37.13
  Z"
/>
<path fill="#000000" fill-opacity="0.996" d="
  M 24.79 38.93
  Q 25.41 38.66 25.67 38.04
  A 0.91 0.84 87.6 0 1 26.00 37.65
  Q 26.41 37.41 26.73 37.55
  Q 27.07 37.70 26.76 37.91
  C 25.03 39.15 24.78 41.37 24.37 43.74
  A 0.25 0.25 0.0 0 1 23.91 43.82
  L 23.42 42.96
  A 1.58 1.56 -53.5 0 1 23.26 41.83
  C 23.83 39.56 23.47 36.89 25.74 35.19
  C 27.97 33.52 29.98 34.98 29.38 37.63
  Q 28.55 41.25 31.16 44.14
  Q 31.20 44.19 31.15 44.26
  L 30.99 44.48
  A 0.30 0.29 -52.1 0 1 30.56 44.54
  Q 28.46 42.79 27.73 40.22
  C 27.50 39.42 27.71 38.52 27.55 37.58
  Q 27.47 37.09 27.62 36.62
  L 27.98 35.54
  A 0.40 0.40 0.0 0 0 27.41 35.07
  Q 25.28 36.25 24.35 38.51
  A 0.33 0.33 0.0 0 0 24.79 38.93
  Z"
/>
</svg>
