<?xml version="1.0" encoding="UTF-8" standalone="no"?>
<!DOCTYPE svg PUBLIC "-//W3C//DTD SVG 1.1//EN" "http://www.w3.org/Graphics/SVG/1.1/DTD/svg11.dtd">
<svg xmlns="http://www.w3.org/2000/svg" version="1.1" viewBox="0.00 0.00 46.00 46.00">
<path fill="#000000" d="
  M 22.67 0.00
  L 23.45 0.00
  L 28.26 1.88
  Q 28.96 2.16 28.43 2.68
  L 26.33 4.77
  Q 25.76 5.34 24.96 5.29
  L 24.28 5.24
  Q 23.35 5.19 24.03 4.56
  L 25.70 2.98
  Q 26.27 2.45 25.54 2.18
  Q 23.07 1.27 20.59 2.15
  A 0.52 0.52 0.0 0 0 20.42 3.02
  L 22.17 4.61
  Q 22.73 5.11 21.98 5.20
  L 21.05 5.31
  A 1.41 1.39 -25.6 0 1 19.92 4.92
  L 17.71 2.76
  A 0.55 0.55 0.0 0 1 17.90 1.86
  L 22.67 0.00
  Z"
/>
<path fill="#000000" d="
  M 35.81 7.71
  Q 35.68 7.85 35.50 7.94
  Q 35.09 8.17 34.72 7.87
  Q 31.97 5.64 28.48 5.18
  Q 28.01 5.12 28.34 4.79
  L 30.09 3.01
  Q 30.47 2.63 30.99 2.80
  Q 39.41 5.54 43.11 13.55
  Q 43.53 14.47 42.97 15.30
  L 41.58 17.35
  Q 40.95 18.28 40.76 17.17
  Q 40.24 14.11 38.32 11.68
  Q 38.00 11.27 38.33 10.85
  Q 38.64 10.46 38.70 9.99
  Q 38.75 9.55 38.42 9.13
  Q 37.68 8.17 36.64 7.58
  Q 36.17 7.32 35.81 7.71
  Z"
/>
<path fill="#000000" d="
  M 7.35 10.32
  Q 7.52 10.58 7.76 10.72
  Q 8.30 11.02 7.92 11.50
  Q 5.88 14.04 5.31 17.25
  Q 5.12 18.26 4.55 17.40
  L 3.10 15.24
  A 1.67 1.67 0.0 0 1 2.97 13.63
  Q 6.61 5.61 14.99 2.86
  A 1.08 1.07 -32.4 0 1 16.08 3.10
  L 17.65 4.59
  A 0.34 0.34 0.0 0 1 17.47 5.18
  Q 14.05 5.69 11.39 7.89
  A 0.63 0.62 45.4 0 1 10.59 7.88
  L 10.18 7.53
  A 0.67 0.67 0.0 0 0 9.27 7.56
  L 7.45 9.39
  A 0.75 0.73 -39.3 0 0 7.35 10.32
  Z"
/>
<path fill="#000000" d="
  M 39.76 23.22
  A 16.84 16.84 0.0 0 1 22.92 40.06
  A 16.84 16.84 0.0 0 1 6.08 23.22
  A 16.84 16.84 0.0 0 1 22.92 6.38
  A 16.84 16.84 0.0 0 1 39.76 23.22
  Z
  M 38.16 23.22
  A 15.24 15.24 0.0 0 0 22.92 7.98
  A 15.24 15.24 0.0 0 0 7.68 23.22
  A 15.24 15.24 0.0 0 0 22.92 38.46
  A 15.24 15.24 0.0 0 0 38.16 23.22
  Z"
/>
<path fill="#000000" d="
  M 24.00 15.41
  Q 23.38 16.15 22.48 15.57
  Q 21.36 14.82 20.30 15.20
  Q 17.31 16.28 14.27 15.21
  A 0.42 0.42 0.0 0 0 13.75 15.80
  Q 14.31 16.94 15.25 17.76
  A 0.84 0.84 0.0 0 1 15.38 18.90
  Q 13.71 21.13 12.85 23.77
  A 1.41 1.34 45.7 0 0 12.86 24.64
  Q 14.20 28.54 17.74 30.21
  A 2.36 2.35 -56.5 0 1 18.48 33.91
  Q 18.36 34.05 17.47 33.79
  Q 17.17 33.70 17.21 33.39
  C 17.60 30.25 13.48 30.37 11.53 29.61
  Q 11.04 29.42 11.33 28.98
  C 12.72 26.89 11.81 25.05 10.13 23.49
  Q 9.65 23.05 10.26 22.82
  Q 13.20 21.69 13.76 18.49
  A 0.70 0.64 -53.8 0 0 13.72 18.13
  L 12.24 14.80
  A 0.52 0.52 0.0 0 1 12.84 14.09
  Q 16.92 15.07 20.94 14.03
  Q 21.47 13.89 21.93 14.17
  Q 23.03 14.83 24.23 14.17
  Q 24.71 13.91 25.24 14.05
  Q 29.14 15.05 33.12 14.14
  A 0.66 0.65 5.6 0 1 33.87 15.05
  L 32.60 17.82
  Q 32.41 18.26 32.50 18.72
  Q 33.12 21.75 35.96 22.81
  Q 36.47 23.00 36.09 23.40
  C 34.58 25.02 33.32 26.90 34.93 28.97
  Q 35.32 29.47 34.71 29.66
  C 32.95 30.18 28.48 30.41 28.99 33.35
  Q 29.04 33.64 28.77 33.73
  Q 27.89 34.04 27.76 33.90
  A 2.31 2.31 0.0 0 1 28.65 30.12
  C 31.17 29.22 34.13 25.33 32.99 22.75
  Q 31.88 20.26 30.61 18.57
  Q 30.33 18.19 30.72 17.92
  Q 31.89 17.12 32.41 15.79
  A 0.38 0.38 0.0 0 0 31.98 15.28
  L 28.99 15.85
  A 1.40 1.40 0.0 0 1 28.13 15.73
  Q 26.51 14.97 24.73 15.04
  Q 24.28 15.06 24.00 15.41
  Z"
/>
<path fill="#000000" d="
  M 23.90 19.14
  Q 23.79 20.59 24.57 21.84
  Q 25.11 22.69 24.43 23.42
  L 23.79 24.11
  A 1.01 1.01 0.0 0 1 22.19 23.97
  L 21.36 22.67
  Q 21.08 22.23 21.50 21.91
  Q 22.60 21.07 22.37 19.63
  Q 22.33 19.35 22.18 19.18
  A 0.44 0.44 0.0 0 0 21.41 19.47
  Q 21.40 20.30 20.49 20.21
  Q 20.00 20.15 19.62 19.84
  Q 18.79 19.16 17.63 19.46
  A 0.88 0.87 -88.7 0 0 17.00 20.07
  L 16.41 22.19
  A 0.47 0.47 0.0 0 0 16.97 22.78
  Q 17.51 22.66 18.00 22.93
  A 0.59 0.58 -59.3 0 1 18.21 23.76
  Q 17.47 24.90 17.54 26.25
  Q 17.56 26.58 17.22 26.57
  L 16.88 26.56
  Q 16.68 26.55 16.65 26.35
  L 16.44 24.74
  Q 16.36 24.12 15.73 24.21
  L 14.26 24.43
  A 0.28 0.28 0.0 0 1 13.97 24.03
  C 15.87 20.35 16.78 17.66 20.99 16.02
  Q 21.42 15.85 21.80 16.10
  Q 23.01 16.91 24.49 16.29
  Q 24.92 16.10 25.37 16.23
  C 29.15 17.32 30.55 20.30 32.06 23.88
  Q 32.35 24.56 31.64 24.37
  Q 30.96 24.19 30.23 24.25
  Q 29.76 24.28 29.77 24.76
  Q 29.79 25.65 29.37 26.41
  A 0.36 0.36 0.0 0 1 28.70 26.20
  Q 28.85 24.86 27.96 23.80
  Q 27.57 23.33 27.13 23.75
  L 26.28 24.55
  A 0.48 0.47 55.5 0 0 26.18 25.11
  Q 26.37 25.51 26.78 25.49
  Q 26.91 25.48 27.12 25.34
  Q 27.39 25.17 27.70 25.28
  Q 28.22 25.48 27.70 25.68
  C 26.48 26.16 25.97 27.00 24.76 27.27
  Q 21.39 28.03 18.85 25.67
  Q 18.47 25.32 18.99 25.34
  L 19.75 25.39
  A 0.38 0.38 0.0 0 0 20.02 24.73
  Q 18.67 23.52 17.92 21.87
  Q 17.68 21.35 18.25 21.36
  L 18.73 21.37
  Q 18.87 21.38 18.82 21.50
  Q 18.77 21.65 18.82 21.82
  Q 18.84 21.90 18.91 21.97
  Q 20.94 23.85 22.32 25.89
  A 0.84 0.83 48.8 0 0 23.63 25.98
  L 27.97 21.22
  Q 28.20 20.96 28.39 21.25
  L 28.63 21.62
  Q 28.64 21.64 28.33 22.08
  Q 28.25 22.19 28.12 22.32
  A 0.36 0.36 0.0 0 0 28.27 22.93
  Q 30.17 23.50 29.44 20.18
  A 1.19 1.19 0.0 0 0 27.71 19.39
  Q 27.20 19.67 26.71 19.64
  A 0.53 0.53 0.0 0 0 26.17 20.33
  Q 26.32 20.78 26.66 21.15
  A 0.15 0.14 -35.6 0 1 26.62 21.38
  L 26.24 21.55
  A 0.25 0.24 -19.1 0 1 25.90 21.39
  Q 25.52 19.93 24.24 18.99
  Q 23.93 18.76 23.90 19.14
  Z
  M 25.8376 17.6164
  A 2.78 0.70 2.4 0 0 23.0893 16.8006
  A 2.78 0.70 2.4 0 0 20.2824 17.3836
  A 2.78 0.70 2.4 0 0 23.0307 18.1994
  A 2.78 0.70 2.4 0 0 25.8376 17.6164
  Z"
/>
<path fill="#000000" d="
  M 0.00 24.60
  L 0.00 22.52
  L 0.96 18.34
  Q 1.42 16.34 2.61 18.01
  Q 3.49 19.25 4.86 21.13
  C 5.15 21.51 5.25 21.97 5.10 22.38
  Q 4.89 22.97 4.42 22.56
  L 2.98 21.28
  A 0.48 0.47 -63.3 0 0 2.20 21.54
  Q 1.76 23.63 2.23 25.71
  A 0.43 0.43 0.0 0 0 2.92 25.94
  L 4.50 24.62
  Q 4.94 24.24 5.13 24.80
  Q 5.21 25.06 5.19 25.36
  Q 5.18 25.62 4.98 25.89
  Q 3.49 27.90 2.24 29.69
  A 0.54 0.54 0.0 0 1 1.28 29.52
  L 0.00 24.60
  Z"
/>
<path fill="#000000" d="
  M 46.00 21.90
  L 46.00 25.47
  L 44.58 29.73
  A 0.34 0.33 36.0 0 1 43.99 29.82
  L 41.21 26.02
  A 1.34 1.33 -58.9 0 1 40.97 25.04
  L 41.03 24.64
  A 0.28 0.27 24.2 0 1 41.48 24.47
  L 43.15 25.87
  A 0.47 0.46 26.1 0 0 43.90 25.62
  Q 44.35 23.59 43.95 21.57
  A 0.51 0.51 0.0 0 0 43.10 21.30
  L 41.93 22.41
  Q 41.48 22.83 41.12 22.35
  Q 40.70 21.80 41.07 21.31
  Q 42.59 19.32 43.92 17.46
  A 0.48 0.48 0.0 0 1 44.77 17.60
  L 46.00 21.90
  Z"
/>
<path fill="#000000" d="
  M 27.50 27.27
  Q 27.62 27.26 27.75 27.20
  Q 27.94 27.12 27.90 27.33
  Q 27.64 28.54 26.76 29.49
  A 0.47 0.47 0.0 0 1 25.94 29.13
  Q 26.09 27.37 27.50 27.27
  Z"
/>
<path fill="#000000" d="
  M 18.75 27.47
  L 19.52 27.47
  A 0.63 0.62 2.6 0 1 20.14 28.14
  L 20.05 29.52
  Q 20.00 30.32 19.56 29.66
  L 18.45 28.02
  Q 18.08 27.46 18.75 27.47
  Z"
/>
<path fill="#000000" d="
  M 22.77 28.82
  L 21.59 29.38
  Q 21.00 29.66 21.11 29.02
  L 21.17 28.68
  Q 21.24 28.30 21.62 28.26
  L 24.34 28.03
  Q 24.94 27.97 24.97 28.58
  L 25.01 29.25
  A 0.27 0.27 0.0 0 1 24.53 29.43
  Q 24.23 29.05 23.82 28.84
  Q 23.30 28.57 22.77 28.82
  Z"
/>
<path fill="#000000" d="
  M 7.58 37.96
  L 9.16 39.52
  A 0.76 0.75 53.6 0 0 10.06 39.66
  L 10.62 39.36
  Q 11.14 39.07 11.61 39.45
  Q 14.29 41.59 17.71 42.01
  A 0.18 0.18 0.0 0 1 17.82 42.31
  L 15.82 44.32
  Q 15.62 44.51 15.36 44.43
  Q 6.71 41.77 2.97 33.56
  Q 2.56 32.67 3.12 31.87
  L 4.54 29.82
  Q 5.17 28.91 5.34 30.00
  Q 5.84 33.11 7.83 35.54
  Q 8.27 36.07 7.71 36.48
  Q 7.53 36.61 7.42 36.82
  Q 7.07 37.45 7.58 37.96
  Z"
/>
<path fill="#000000" d="
  M 36.92 39.45
  Q 37.36 39.09 38.11 38.35
  Q 39.21 37.28 38.35 36.35
  Q 37.99 35.96 38.31 35.54
  Q 40.30 32.98 40.82 29.76
  A 0.33 0.33 0.0 0 1 41.41 29.63
  L 43.06 31.97
  Q 43.54 32.65 43.20 33.41
  Q 39.59 41.57 31.05 44.32
  Q 30.43 44.52 29.97 44.05
  L 28.49 42.54
  Q 27.97 42.00 28.71 41.91
  Q 31.98 41.52 34.53 39.42
  A 0.89 0.88 38.9 0 1 35.50 39.32
  L 35.96 39.55
  Q 36.47 39.81 36.92 39.45
  Z"
/>
<path fill="#000000" d="
  M 24.18 32.69
  A 0.82 0.82 0.0 0 1 23.56 33.17
  Q 21.96 33.40 21.74 31.87
  Q 21.65 31.27 22.20 31.01
  Q 23.27 30.50 24.25 31.20
  Q 24.68 31.51 24.47 31.99
  L 24.18 32.69
  Z"
/>
<path fill="#000000" d="
  M 23.14 34.87
  Q 24.18 34.71 25.30 32.61
  Q 25.90 31.51 25.91 32.76
  L 25.94 34.87
  Q 25.95 35.60 25.32 35.98
  L 23.85 36.86
  Q 23.40 37.13 22.89 37.01
  Q 19.38 36.18 20.37 32.57
  Q 20.54 31.97 20.90 32.47
  Q 21.43 33.19 21.89 33.93
  Q 22.53 34.96 23.14 34.87
  Z"
/>
<path fill="#000000" d="
  M 27.07 46.00
  L 18.92 46.00
  Q 16.03 44.96 20.23 42.06
  C 20.77 41.69 21.49 41.61 22.01 41.91
  Q 22.55 42.23 22.08 42.65
  L 20.39 44.18
  A 0.46 0.45 32.7 0 0 20.56 44.95
  Q 23.01 45.72 25.45 44.97
  A 0.49 0.49 0.0 0 0 25.64 44.14
  L 24.11 42.71
  Q 23.57 42.21 24.24 41.89
  Q 24.57 41.73 24.95 41.70
  Q 25.25 41.68 25.57 41.90
  Q 30.23 44.99 27.07 46.00
  Z"
/>
</svg>
